Inter-Roman.glyphspackage
{
glyphname = exclam;
layers = (
{
anchors = (
{
name = _center;
pos = (304,745);
}
);
guides = (
{
angle = 90;
pos = (304,1584);
}
);
layerId = "C698F293-3EC0-4A5A-A3A0-0FDB1F5CF265";
shapes = (
{
closed = 1;
nodes = (
(389,480,l),
(401,1490,l),
(207,1490,l),
(219,480,l)
);
},
{
closed = 1;
nodes = (
(376,-12,o),
(435,47,o),
(435,119,cs),
(435,191,o),
(376,250,o),
(304,250,cs),
(232,250,o),
(173,191,o),
(173,119,cs),
(173,47,o),
(232,-12,o),
(304,-12,cs)
);
}
);
width = 608;
},
{
anchors = (
{
name = _center;
pos = (388,745);
}
);
layerId = "5C20EF92-B63D-42A8-8878-93C2863E0093";
shapes = (
{
closed = 1;
nodes = (
(570,466,l),
(600,1490,l),
(176,1490,l),
(206,466,l)
);
},
{
closed = 1;
nodes = (
(518,-24,o),
(602,52,o),
(602,175,cs),
(602,298,o),
(518,374,o),
(388,374,cs),
(258,374,o),
(174,298,o),
(174,175,cs),
(174,52,o),
(258,-24,o),
(388,-24,cs)
);
}
);
width = 776;
},
{
anchors = (
{
name = _center;
pos = (293,745);
}
);
layerId = "B1F27B51-9973-4381-9301-4FE46FE1CA59";
shapes = (
{
closed = 1;
nodes = (
(316,442,l),
(316,1490,l),
(270,1490,l),
(270,442,l)
);
},
{
closed = 1;
nodes = (
(322,-9,o),
(346,15,o),
(346,44,cs),
(346,73,o),
(322,97,o),
(293,97,cs),
(264,97,o),
(240,73,o),
(240,44,cs),
(240,15,o),
(264,-9,o),
(293,-9,cs)
);
}
);
width = 586;
},
{
anchors = (
{
name = _center;
pos = (264,745);
}
);
guides = (
{
angle = 90;
pos = (264,1536);
}
);
layerId = m007;
shapes = (
{
closed = 1;
nodes = (
(344,432,l),
(357,1490,l),
(171,1490,l),
(184,432,l)
);
},
{
closed = 1;
nodes = (
(328,-12,o),
(380,40,o),
(380,104,cs),
(380,168,o),
(328,220,o),
(264,220,cs),
(200,220,o),
(148,168,o),
(148,104,cs),
(148,40,o),
(200,-12,o),
(264,-12,cs)
);
}
);
width = 528;
},
{
anchors = (
{
name = _center;
pos = (368,745);
}
);
guides = (
{
orientation = center;
angle = 90;
pos = (-1658,516);
}
);
layerId = m009;
shapes = (
{
closed = 1;
nodes = (
(542,496,l),
(580,1490,l),
(156,1490,l),
(194,496,l)
);
},
{
closed = 1;
nodes = (
(487,-19,o),
(576,70,o),
(576,189,cs),
(576,308,o),
(487,397,o),
(368,397,cs),
(249,397,o),
(160,308,o),
(160,189,cs),
(160,70,o),
(249,-19,o),
(368,-19,cs)
);
}
);
width = 736;
},
{
anchors = (
{
name = _center;
pos = (240,745);
}
);
guides = (
{
angle = 90;
pos = (240,1633);
}
);
layerId = m011;
shapes = (
{
closed = 1;
nodes = (
(263,442,l),
(263,1490,l),
(217,1490,l),
(217,442,l)
);
},
{
closed = 1;
nodes = (
(267,-8,o),
(288,13,o),
(288,40,cs),
(288,67,o),
(267,88,o),
(240,88,cs),
(213,88,o),
(192,67,o),
(192,40,cs),
(192,13,o),
(213,-8,o),
(240,-8,cs)
);
}
);
width = 480;
}
);
tags = (
"TODO-opsz"
);
unicode = 33;
userData = {
"interface.width-adjustments" = (
-16
);
};
}
{
glyphname = numbersign;
layers = (
{
layerId = "C698F293-3EC0-4A5A-A3A0-0FDB1F5CF265";
shapes = (
{
closed = 1;
nodes = (
(864,0,l),
(1108,1490,l),
(957,1490,l),
(711,0,l)
);
},
{
closed = 1;
nodes = (
(1150,411,l),
(1175,561,l),
(59,561,l),
(34,411,l)
);
},
{
closed = 1;
nodes = (
(340,0,l),
(584,1490,l),
(433,1490,l),
(189,0,l)
);
},
{
closed = 1;
nodes = (
(1238,927,l),
(1261,1079,l),
(147,1079,l),
(122,927,l)
);
}
);
width = 1297;
},
{
layerId = "5C20EF92-B63D-42A8-8878-93C2863E0093";
shapes = (
{
closed = 1;
nodes = (
(962,0,l),
(1208,1490,l),
(916,1490,l),
(672,0,l)
);
},
{
closed = 1;
nodes = (
(1210,340,l),
(1260,632,l),
(62,632,l),
(12,340,l)
);
},
{
closed = 1;
nodes = (
(440,0,l),
(684,1490,l),
(392,1490,l),
(148,0,l)
);
},
{
closed = 1;
nodes = (
(1294,858,l),
(1344,1150,l),
(146,1150,l),
(96,858,l)
);
}
);
width = 1356;
},
{
layerId = "B1F27B51-9973-4381-9301-4FE46FE1CA59";
shapes = (
{
closed = 1;
nodes = (
(812,0,l),
(1056,1490,l),
(1010,1490,l),
(766,0,l)
);
},
{
closed = 1;
nodes = (
(1158,462,l),
(1166,510,l),
(56,510,l),
(46,462,l)
);
},
{
closed = 1;
nodes = (
(288,0,l),
(532,1490,l),
(486,1490,l),
(242,0,l)
);
},
{
closed = 1;
nodes = (
(1242,980,l),
(1250,1026,l),
(140,1026,l),
(130,980,l)
);
}
);
width = 1298;
},
{
associatedMasterId = "C698F293-3EC0-4A5A-A3A0-0FDB1F5CF265";
layerId = "8B226100-FDA1-4179-99A9-A0AFC43B9D41";
name = "Dec 27 18, 16:44";
shapes = (
{
closed = 1;
nodes = (
(410,0,l),
(608,1490,l),
(460,1490,l),
(262,0,l)
);
},
{
closed = 1;
nodes = (
(862,0,l),
(1062,1490,l),
(914,1490,l),
(716,0,l)
);
},
{
closed = 1;
nodes = (
(1222,1082,l),
(166,1082,l),
(146,930,l),
(1202,930,l)
);
},
{
closed = 1;
nodes = (
(1154,558,l),
(98,558,l),
(78,414,l),
(1134,414,l)
);
}
);
width = 1314;
},
{
associatedMasterId = "C698F293-3EC0-4A5A-A3A0-0FDB1F5CF265";
layerId = "B5EAF93B-AA24-4C05-A772-FDBA6714CABE";
name = "Dec 27 18, 16:46";
shapes = (
{
closed = 1;
nodes = (
(920,0,l),
(920,1490,l)
);
},
{
closed = 1;
nodes = (
(1214,1004,l),
(102,1004,l)
);
},
{
closed = 1;
nodes = (
(396,0,l),
(396,1490,l)
);
},
{
closed = 1;
nodes = (
(1214,486,l),
(102,486,l)
);
}
);
width = 1314;
},
{
associatedMasterId = "5C20EF92-B63D-42A8-8878-93C2863E0093";
layerId = "8150BABC-50DE-457F-AD29-9E6DAA541700";
name = "Dec 27 18, 16:50";
shapes = (
{
closed = 1;
nodes = (
(504,0,l),
(774,1446,l),
(558,1446,l),
(288,0,l)
);
},
{
closed = 1;
nodes = (
(862,0,l),
(1132,1446,l),
(914,1446,l),
(642,0,l)
);
},
{
closed = 1;
nodes = (
(1294,1024,l),
(200,1024,l),
(206,830,l),
(1304,830,l)
);
},
{
closed = 1;
nodes = (
(1214,608,l),
(120,608,l),
(126,410,l),
(1218,410,l)
);
}
);
width = 1422;
},
{
associatedMasterId = "5C20EF92-B63D-42A8-8878-93C2863E0093";
background = {
shapes = (
{
closed = 1;
nodes = (
(416,0,l),
(686,1446,l),
(472,1446,l),
(200,0,l)
);
},
{
closed = 1;
nodes = (
(774,0,l),
(1044,1446,l),
(826,1446,l),
(556,0,l)
);
},
{
closed = 1;
nodes = (
(1208,1024,l),
(114,1024,l),
(120,830,l),
(1216,830,l)
);
},
{
closed = 1;
nodes = (
(1126,608,l),
(32,608,l),
(38,410,l),
(1132,410,l)
);
}
);
};
layerId = "5A59D344-CADF-46E4-B2F0-D61FEE264785";
name = "Dec 27 18, 16:53";
shapes = (
{
closed = 1;
nodes = (
(884,0,l),
(884,1490,l)
);
},
{
closed = 1;
nodes = (
(1222,1004,l),
(24,1004,l)
);
},
{
closed = 1;
nodes = (
(360,0,l),
(360,1490,l)
);
},
{
closed = 1;
nodes = (
(1222,486,l),
(24,486,l)
);
}
);
width = 1246;
},
{
associatedMasterId = "B1F27B51-9973-4381-9301-4FE46FE1CA59";
background = {
shapes = (
{
closed = 1;
nodes = (
(410,0,l),
(608,1490,l),
(460,1490,l),
(262,0,l)
);
},
{
closed = 1;
nodes = (
(862,0,l),
(1062,1490,l),
(914,1490,l),
(716,0,l)
);
},
{
closed = 1;
nodes = (
(1222,1082,l),
(184,1082,l),
(162,930,l),
(1202,930,l)
);
},
{
closed = 1;
nodes = (
(1154,558,l),
(116,558,l),
(96,414,l),
(1134,414,l)
);
}
);
};
layerId = "234210DF-ABFB-4FAA-87B6-7476935D9366";
name = "Dec 27 18, 16:59";
shapes = (
{
closed = 1;
nodes = (
(920,0,l),
(920,1490,l)
);
},
{
closed = 1;
nodes = (
(1214,1004,l),
(102,1004,l)
);
},
{
closed = 1;
nodes = (
(396,0,l),
(396,1490,l)
);
},
{
closed = 1;
nodes = (
(1214,486,l),
(102,486,l)
);
}
);
width = 1314;
},
{
layerId = m007;
shapes = (
{
closed = 1;
nodes = (
(826,0,l),
(1070,1490,l),
(926,1490,l),
(680,0,l)
);
},
{
closed = 1;
nodes = (
(1114,414,l),
(1138,558,l),
(26,558,l),
(2,414,l)
);
},
{
closed = 1;
nodes = (
(302,0,l),
(546,1490,l),
(402,1490,l),
(158,0,l)
);
},
{
closed = 1;
nodes = (
(1202,930,l),
(1224,1076,l),
(114,1076,l),
(90,930,l)
);
}
);
width = 1228;
},
{
associatedMasterId = m007;
layerId = "A65B6635-F187-476F-8C72-4833854692DA";
name = "Dec 27 18, 16:44";
shapes = (
{
closed = 1;
nodes = (
(410,0,l),
(608,1490,l),
(460,1490,l),
(262,0,l)
);
},
{
closed = 1;
nodes = (
(862,0,l),
(1062,1490,l),
(914,1490,l),
(716,0,l)
);
},
{
closed = 1;
nodes = (
(1222,1082,l),
(166,1082,l),
(146,930,l),
(1202,930,l)
);
},
{
closed = 1;
nodes = (
(1154,558,l),
(98,558,l),
(78,414,l),
(1134,414,l)
);
}
);
width = 1314;
},
{
associatedMasterId = m007;
layerId = "31F8A0AC-041C-44BB-A78F-042BAC1903AA";
name = "Dec 27 18, 16:46";
shapes = (
{
closed = 1;
nodes = (
(920,0,l),
(920,1490,l)
);
},
{
closed = 1;
nodes = (
(1214,1004,l),
(102,1004,l)
);
},
{
closed = 1;
nodes = (
(396,0,l),
(396,1490,l)
);
},
{
closed = 1;
nodes = (
(1214,486,l),
(102,486,l)
);
}
);
width = 1314;
},
{
layerId = m009;
shapes = (
{
closed = 1;
nodes = (
(946,0,l),
(1192,1490,l),
(900,1490,l),
(656,0,l)
);
},
{
closed = 1;
nodes = (
(1194,340,l),
(1244,632,l),
(46,632,l),
(-4,340,l)
);
},
{
closed = 1;
nodes = (
(424,0,l),
(668,1490,l),
(376,1490,l),
(132,0,l)
);
},
{
closed = 1;
nodes = (
(1278,858,l),
(1328,1150,l),
(130,1150,l),
(80,858,l)
);
}
);
width = 1324;
},
{
associatedMasterId = m009;
layerId = "9B25ACDF-7270-4C05-AC54-DA27304BFBB0";
name = "Dec 27 18, 16:50";
shapes = (
{
closed = 1;
nodes = (
(504,0,l),
(774,1446,l),
(558,1446,l),
(288,0,l)
);
},
{
closed = 1;
nodes = (
(862,0,l),
(1132,1446,l),
(914,1446,l),
(642,0,l)
);
},
{
closed = 1;
nodes = (
(1294,1024,l),
(200,1024,l),
(206,830,l),
(1304,830,l)
);
},
{
closed = 1;
nodes = (
(1214,608,l),
(120,608,l),
(126,410,l),
(1218,410,l)
);
}
);
width = 1422;
},
{
associatedMasterId = m009;
background = {
shapes = (
{
closed = 1;
nodes = (
(416,0,l),
(686,1446,l),
(472,1446,l),
(200,0,l)
);
},
{
closed = 1;
nodes = (
(774,0,l),
(1044,1446,l),
(826,1446,l),
(556,0,l)
);
},
{
closed = 1;
nodes = (
(1208,1024,l),
(114,1024,l),
(120,830,l),
(1216,830,l)
);
},
{
closed = 1;
nodes = (
(1126,608,l),
(32,608,l),
(38,410,l),
(1132,410,l)
);
}
);
};
layerId = "A928F438-0632-4D88-BDF3-089DF969381A";
name = "Dec 27 18, 16:53";
shapes = (
{
closed = 1;
nodes = (
(884,0,l),
(884,1490,l)
);
},
{
closed = 1;
nodes = (
(1222,1004,l),
(24,1004,l)
);
},
{
closed = 1;
nodes = (
(360,0,l),
(360,1490,l)
);
},
{
closed = 1;
nodes = (
(1222,486,l),
(24,486,l)
);
}
);
width = 1246;
},
{
layerId = m011;
shapes = (
{
closed = 1;
nodes = (
(748,0,l),
(992,1490,l),
(946,1490,l),
(702,0,l)
);
},
{
closed = 1;
nodes = (
(1094,462,l),
(1102,510,l),
(-8,510,l),
(-18,462,l)
);
},
{
closed = 1;
nodes = (
(224,0,l),
(468,1490,l),
(422,1490,l),
(178,0,l)
);
},
{
closed = 1;
nodes = (
(1178,980,l),
(1186,1026,l),
(76,1026,l),
(66,980,l)
);
}
);
width = 1170;
},
{
associatedMasterId = m011;
background = {
shapes = (
{
closed = 1;
nodes = (
(410,0,l),
(608,1490,l),
(460,1490,l),
(262,0,l)
);
},
{
closed = 1;
nodes = (
(862,0,l),
(1062,1490,l),
(914,1490,l),
(716,0,l)
);
},
{
closed = 1;
nodes = (
(1222,1082,l),
(184,1082,l),
(162,930,l),
(1202,930,l)
);
},
{
closed = 1;
nodes = (
(1154,558,l),
(116,558,l),
(96,414,l),
(1134,414,l)
);
}
);
};
layerId = "CC7ECA14-76E3-4F70-80E5-1916AE7BDE1E";
name = "Dec 27 18, 16:59";
shapes = (
{
closed = 1;
nodes = (
(920,0,l),
(920,1490,l)
);
},
{
closed = 1;
nodes = (
(1214,1004,l),
(102,1004,l)
);
},
{
closed = 1;
nodes = (
(396,0,l),
(396,1490,l)
);
},
{
closed = 1;
nodes = (
(1214,486,l),
(102,486,l)
);
}
);
width = 1314;
}
);
note = "1. outline\0122. slant 9.4 deg\0123. remove extra shapes created by outlining";
unicode = 35;
userData = {
"interface.width-adjustments" = (
-16
);
};
}
{
glyphname = dollar;
kernLeft = S;
kernRight = S;
layers = (
{
layerId = "C698F293-3EC0-4A5A-A3A0-0FDB1F5CF265";
shapes = (
{
closed = 1;
nodes = (
(720,-186,l),
(720,1676,l),
(602,1676,l),
(602,-186,l)
);
},
{
ref = S;
}
);
width = 1306;
},
{
guides = (
{
pos = (0,2280);
},
{
pos = (0,764);
}
);
layerId = "5C20EF92-B63D-42A8-8878-93C2863E0093";
shapes = (
{
closed = 1;
nodes = (
(760,-186,l),
(760,1676,l),
(640,1676,l),
(640,-186,l)
);
},
{
ref = S;
}
);
width = 1364;
},
{
layerId = "B1F27B51-9973-4381-9301-4FE46FE1CA59";
shapes = (
{
closed = 1;
nodes = (
(656,-186,l),
(656,1676,l),
(610,1676,l),
(610,-186,l)
);
},
{
alignment = -1;
ref = S;
}
);
width = 1254;
},
{
layerId = m007;
shapes = (
{
closed = 1;
nodes = (
(683,-186,l),
(683,1676,l),
(565,1676,l),
(565,-186,l)
);
},
{
ref = S;
}
);
width = 1258;
},
{
guides = (
{
pos = (-96,2280);
}
);
layerId = m009;
shapes = (
{
closed = 1;
nodes = (
(774,-186,l),
(774,1676,l),
(654,1676,l),
(654,-186,l)
);
},
{
ref = S;
}
);
width = 1403;
},
{
layerId = m011;
shapes = (
{
closed = 1;
nodes = (
(595,-186,l),
(595,1676,l),
(549,1676,l),
(549,-186,l)
);
},
{
alignment = -1;
ref = S;
}
);
width = 1126;
}
);
metricLeft = S;
metricRight = S;
unicode = 36;
userData = {
"interface.width-adjustments" = (
-16
);
};
}
{
glyphname = percent;
layers = (
{
layerId = "C698F293-3EC0-4A5A-A3A0-0FDB1F5CF265";
shapes = (
{
closed = 1;
nodes = (
(913,116,o),
(1015,-20,o),
(1204,-20,cs),
(1391,-20,o),
(1492,116,o),
(1492,280,cs),
(1492,358,ls),
(1492,521,o),
(1393,657,o),
(1204,658,cs),
(1018,657,o),
(913,521,o),
(914,358,cs),
(914,280,ls)
);
},
{
closed = 1;
nodes = (
(1062,448,o),
(1103,532,o),
(1204,532,cs),
(1309,532,o),
(1344,448,o),
(1344,358,cs),
(1344,280,ls),
(1344,189,o),
(1306,105,o),
(1204,104,cs),
(1100,105,o),
(1062,189,o),
(1062,280,cs),
(1062,358,ls)
);
},
{
closed = 1;
nodes = (
(172,969,o),
(273,832,o),
(462,832,cs),
(649,832,o),
(751,969,o),
(750,1132,cs),
(750,1210,ls),
(751,1373,o),
(652,1510,o),
(462,1510,cs),
(276,1510,o),
(172,1373,o),
(172,1210,cs),
(172,1132,ls)
);
},
{
closed = 1;
nodes = (
(320,1300,o),
(361,1385,o),
(462,1384,cs),
(567,1385,o),
(602,1300,o),
(602,1210,cs),
(602,1132,ls),
(602,1041,o),
(564,957,o),
(462,958,cs),
(358,957,o),
(320,1041,o),
(320,1132,cs),
(320,1210,ls)
);
},
{
pos = (542,0);
ref = fraction;
}
);
width = 1664;
},
{
layerId = "5C20EF92-B63D-42A8-8878-93C2863E0093";
shapes = (
{
closed = 1;
nodes = (
(951,90,o),
(1075,-73,o),
(1304,-72,cs),
(1532,-73,o),
(1658,90,o),
(1658,280,cs),
(1658,358,ls),
(1658,550,o),
(1535,710,o),
(1304,710,cs),
(1078,710,o),
(951,547,o),
(952,358,cs),
(952,280,ls)
);
},
{
closed = 1;
nodes = (
(1204,416,o),
(1226,483,o),
(1304,482,cs),
(1386,483,o),
(1402,416,o),
(1402,358,cs),
(1402,280,ls),
(1402,221,o),
(1383,157,o),
(1304,158,cs),
(1226,157,o),
(1204,224,o),
(1204,280,cs),
(1204,358,ls)
);
},
{
closed = 1;
nodes = (
(172,943,o),
(295,783,o),
(524,782,cs),
(752,783,o),
(879,940,o),
(878,1132,cs),
(878,1210,ls),
(879,1402,o),
(755,1562,o),
(524,1562,cs),
(301,1562,o),
(172,1402,o),
(172,1210,cs),
(172,1132,ls)
);
},
{
closed = 1;
nodes = (
(428,1265,o),
(447,1335,o),
(524,1336,cs),
(607,1335,o),
(623,1268,o),
(622,1210,cs),
(622,1132,ls),
(623,1073,o),
(604,1009,o),
(524,1010,cs),
(449,1009,o),
(428,1073,o),
(428,1132,cs),
(428,1210,ls)
);
},
{
pos = (632,0);
ref = fraction;
}
);
width = 1824;
},
{
layerId = "B1F27B51-9973-4381-9301-4FE46FE1CA59";
shapes = (
{
closed = 1;
nodes = (
(931,97,o),
(1037,-20,o),
(1176,-20,cs),
(1313,-20,o),
(1420,97,o),
(1420,270,cs),
(1420,318,ls),
(1420,491,o),
(1313,608,o),
(1176,608,cs),
(1037,608,o),
(931,491,o),
(930,318,cs),
(930,270,ls)
);
},
{
closed = 1;
nodes = (
(977,465,o),
(1064,561,o),
(1176,562,cs),
(1287,561,o),
(1373,465,o),
(1374,318,cs),
(1374,270,ls),
(1373,122,o),
(1287,26,o),
(1176,26,cs),
(1064,26,o),
(977,122,o),
(978,270,cs),
(978,318,ls)
);
},
{
closed = 1;
nodes = (
(163,999,o),
(269,881,o),
(408,882,cs),
(545,881,o),
(652,999,o),
(652,1172,cs),
(652,1218,ls),
(652,1393,o),
(545,1510,o),
(408,1510,cs),
(269,1510,o),
(163,1393,o),
(162,1218,cs),
(162,1172,ls)
);
},
{
closed = 1;
nodes = (
(209,1367,o),
(296,1463,o),
(408,1464,cs),
(519,1463,o),
(605,1367,o),
(606,1218,cs),
(606,1172,ls),
(605,1024,o),
(519,928,o),
(408,928,cs),
(296,928,o),
(209,1024,o),
(210,1172,cs),
(210,1218,ls)
);
},
{
alignment = -1;
pos = (512,0);
ref = fraction;
}
);
width = 1582;
},
{
layerId = m007;
shapes = (
{
closed = 1;
nodes = (
(881,116,o),
(983,-20,o),
(1172,-20,cs),
(1359,-20,o),
(1460,116,o),
(1460,280,cs),
(1460,358,ls),
(1460,521,o),
(1361,657,o),
(1172,658,cs),
(986,657,o),
(881,521,o),
(882,358,cs),
(882,280,ls)
);
},
{
closed = 1;
nodes = (
(1030,448,o),
(1071,532,o),
(1172,532,cs),
(1277,532,o),
(1312,448,o),
(1312,358,cs),
(1312,280,ls),
(1312,189,o),
(1274,105,o),
(1172,104,cs),
(1068,105,o),
(1030,189,o),
(1030,280,cs),
(1030,358,ls)
);
},
{
closed = 1;
nodes = (
(140,969,o),
(241,832,o),
(430,832,cs),
(617,832,o),
(719,969,o),
(718,1132,cs),
(718,1210,ls),
(719,1373,o),
(620,1510,o),
(430,1510,cs),
(244,1510,o),
(140,1373,o),
(140,1210,cs),
(140,1132,ls)
);
},
{
closed = 1;
nodes = (
(288,1300,o),
(329,1385,o),
(430,1384,cs),
(535,1385,o),
(570,1300,o),
(570,1210,cs),
(570,1132,ls),
(570,1041,o),
(532,957,o),
(430,958,cs),
(326,957,o),
(288,1041,o),
(288,1132,cs),
(288,1210,ls)
);
},
{
pos = (542,0);
ref = fraction;
}
);
width = 1600;
},
{
layerId = m009;
shapes = (
{
closed = 1;
nodes = (
(935,90,o),
(1059,-73,o),
(1288,-72,cs),
(1516,-73,o),
(1642,90,o),
(1642,280,cs),
(1642,358,ls),
(1642,550,o),
(1519,710,o),
(1288,710,cs),
(1062,710,o),
(935,547,o),
(936,358,cs),
(936,280,ls)
);
},
{
closed = 1;
nodes = (
(1188,416,o),
(1210,483,o),
(1288,482,cs),
(1370,483,o),
(1386,416,o),
(1386,358,cs),
(1386,280,ls),
(1386,221,o),
(1367,157,o),
(1288,158,cs),
(1210,157,o),
(1188,224,o),
(1188,280,cs),
(1188,358,ls)
);
},
{
closed = 1;
nodes = (
(156,943,o),
(279,783,o),
(508,782,cs),
(736,783,o),
(863,940,o),
(862,1132,cs),
(862,1210,ls),
(863,1402,o),
(739,1562,o),
(508,1562,cs),
(285,1562,o),
(156,1402,o),
(156,1210,cs),
(156,1132,ls)
);
},
{
closed = 1;
nodes = (
(412,1265,o),
(431,1335,o),
(508,1336,cs),
(591,1335,o),
(607,1268,o),
(606,1210,cs),
(606,1132,ls),
(607,1073,o),
(588,1009,o),
(508,1010,cs),
(433,1009,o),
(412,1073,o),
(412,1132,cs),
(412,1210,ls)
);
},
{
pos = (632,0);
ref = fraction;
}
);
width = 1792;
},
{
layerId = m011;
shapes = (
{
closed = 1;
nodes = (
(867,97,o),
(973,-20,o),
(1112,-20,cs),
(1249,-20,o),
(1356,97,o),
(1356,270,cs),
(1356,318,ls),
(1356,491,o),
(1249,608,o),
(1112,608,cs),
(973,608,o),
(867,491,o),
(866,318,cs),
(866,270,ls)
);
},
{
closed = 1;
nodes = (
(913,465,o),
(1000,561,o),
(1112,562,cs),
(1223,561,o),
(1309,465,o),
(1310,318,cs),
(1310,270,ls),
(1309,122,o),
(1223,26,o),
(1112,26,cs),
(1000,26,o),
(913,122,o),
(914,270,cs),
(914,318,ls)
);
},
{
closed = 1;
nodes = (
(99,999,o),
(205,881,o),
(344,882,cs),
(481,881,o),
(588,999,o),
(588,1172,cs),
(588,1218,ls),
(588,1393,o),
(481,1510,o),
(344,1510,cs),
(205,1510,o),
(99,1393,o),
(98,1218,cs),
(98,1172,ls)
);
},
{
closed = 1;
nodes = (
(145,1367,o),
(232,1463,o),
(344,1464,cs),
(455,1463,o),
(541,1367,o),
(542,1218,cs),
(542,1172,ls),
(541,1024,o),
(455,928,o),
(344,928,cs),
(232,928,o),
(145,1024,o),
(146,1172,cs),
(146,1218,ls)
);
},
{
alignment = -1;
pos = (512,0);
ref = fraction;
}
);
width = 1454;
}
);
tags = (
"TODO-opsz"
);
unicode = 37;
userData = {
"interface.width-adjustments" = (
-16
);
};
}
{
glyphname = ampersand;
layers = (
{
layerId = "C698F293-3EC0-4A5A-A3A0-0FDB1F5CF265";
shapes = (
{
closed = 1;
nodes = (
(721,-20,o),
(881,32,o),
(978,140,c),
(989,154,o),
(998,169,o),
(1010,184,c),
(1062,235,o),
(1190,355,o),
(1190,652,c),
(1024,652,l),
(1024,332,o),
(797,130,o),
(574,130,cs),
(396,130,o),
(280,256,o),
(280,396,cs),
(280,436,o),
(317,541,o),
(450,640,cs),
(748,862,ls),
(869,952,o),
(946,1050,o),
(946,1192,cs),
(946,1359,o),
(809,1504,o),
(584,1504,cs),
(367,1504,o),
(224,1367,o),
(224,1166,cs),
(224,992,o),
(349,870,o),
(506,680,cs),
(1070,0,l),
(1278,0,l),
(594,834,ls),
(498,952,o),
(398,1059,o),
(398,1164,cs),
(398,1257,o),
(477,1356,o),
(590,1356,cs),
(698,1356,o),
(770,1268,o),
(770,1192,cs),
(770,1091,o),
(713,1040,o),
(632,980,cs),
(416,820,ls),
(238,688,o),
(104,582,o),
(104,396,cs),
(104,154,o),
(285,-20,o),
(578,-20,c)
);
}
);
width = 1310;
},
{
layerId = "5C20EF92-B63D-42A8-8878-93C2863E0093";
shapes = (
{
closed = 1;
nodes = (
(703,-24,o),
(837,5,o),
(956,82,c),
(997,102,o),
(1035,119,o),
(1076,140,c),
(1270,276,o),
(1346,518,o),
(1346,776,c),
(1028,776,l),
(1028,495,o),
(805,290,o),
(606,290,cs),
(509,290,o),
(446,340,o),
(446,424,cs),
(446,492,o),
(487,531,o),
(534,564,cs),
(842,782,ls),
(970,873,o),
(1040,996,o),
(1040,1134,c),
(1040,1341,o),
(886,1512,o),
(636,1512,cs),
(374,1512,o),
(200,1327,o),
(200,1100,cs),
(200,896,o),
(340,735,o),
(430,640,cs),
(1034,0,l),
(1436,0,l),
(714,794,l),
(607,922,o),
(526,1007,o),
(526,1094,cs),
(526,1156,o),
(568,1196,o),
(636,1196,cs),
(709,1196,o),
(744,1153,o),
(744,1106,cs),
(744,1069,o),
(724,1020,o),
(656,978,cs),
(318,768,l),
(165,663,o),
(62,563,o),
(62,396,cs),
(62,165,o),
(257,-24,o),
(578,-24,cs)
);
}
);
width = 1424;
},
{
layerId = "B1F27B51-9973-4381-9301-4FE46FE1CA59";
shapes = (
{
closed = 1;
nodes = (
(750,-20,o),
(889,77,o),
(965,175,cs),
(969,181,o),
(974,186,o),
(978,192,cs),
(1043,283,o),
(1094,410,o),
(1114,536,c),
(1068,542,l),
(1017,241,o),
(841,26,o),
(550,26,cs),
(340,26,o),
(176,180,o),
(176,372,cs),
(176,492,o),
(237,580,o),
(415,714,cs),
(633,878,ls),
(787,994,o),
(846,1088,o),
(846,1208,cs),
(846,1382,o),
(721,1510,o),
(552,1510,cs),
(376,1510,o),
(236,1371,o),
(236,1196,cs),
(236,1068,o),
(310,997,o),
(446,824,cs),
(1097,0,l),
(1156,0,l),
(483,852,ls),
(347,1024,o),
(282,1086,o),
(282,1196,cs),
(282,1345,o),
(402,1464,o),
(552,1464,cs),
(695,1464,o),
(800,1357,o),
(800,1209,cs),
(800,1102,o),
(744,1019,o),
(606,915,cs),
(386,750,ls),
(196,608,o),
(130,506,o),
(130,372,cs),
(130,154,o),
(314,-20,o),
(550,-20,cs)
);
}
);
width = 1196;
},
{
associatedMasterId = "C698F293-3EC0-4A5A-A3A0-0FDB1F5CF265";
background = {
shapes = (
{
closed = 1;
nodes = (
(233,695,o),
(105,582,o),
(104,396,c),
(105,154,o),
(285,-20,o),
(578,-20,c),
(721,-20,o),
(881,32,o),
(978,140,c),
(1010,184,l),
(1062,235,o),
(1190,355,o),
(1190,652,c),
(1024,652,l),
(1024,332,o),
(797,131,o),
(574,130,cs),
(396,131,o),
(279,256,o),
(280,396,c),
(279,436,o),
(317,541,o),
(450,640,cs),
(748,862,ls),
(870,951,o),
(945,1050,o),
(946,1192,c),
(945,1359,o),
(809,1504,o),
(584,1504,cs),
(367,1504,o),
(224,1367,o),
(224,1166,cs),
(224,992,o),
(349,870,o),
(506,680,cs),
(1070,0,l),
(1278,0,l),
(594,834,ls),
(497,951,o),
(399,1059,o),
(398,1164,cs),
(399,1257,o),
(477,1356,o),
(590,1356,cs),
(698,1356,o),
(771,1268,o),
(770,1192,c),
(771,1091,o),
(716,1036,o),
(632,980,c),
(416,820,l)
);
}
);
};
layerId = "BA8B7BCA-29C4-43D2-BA91-3D8856FB35CE";
name = "Dec 27 18, 14:15";
shapes = (
{
closed = 0;
nodes = (
(1112,654,l),
(1111,395,o),
(983,250,o),
(940,206,c),
(849,108,o),
(706,58,o),
(578,58,c),
(345,58,o),
(196,208,o),
(194,398,c),
(196,512,o),
(279,621,o),
(436,734,c),
(646,888,l),
(765,976,o),
(860,1057,o),
(862,1196,c),
(860,1337,o),
(753,1437,o),
(588,1438,c),
(421,1437,o),
(316,1283,o),
(314,1166,c),
(316,1052,o),
(398,949,o),
(494,832,c),
(512,810,o),
(592,713,o),
(614,686,c),
(1178,2,l)
);
}
);
width = 1310;
},
{
associatedMasterId = "B1F27B51-9973-4381-9301-4FE46FE1CA59";
background = {
shapes = (
{
closed = 1;
nodes = (
(233,695,o),
(105,582,o),
(104,396,c),
(105,154,o),
(285,-20,o),
(578,-20,c),
(721,-20,o),
(881,32,o),
(978,140,c),
(1010,184,l),
(1062,235,o),
(1190,355,o),
(1190,652,c),
(1024,652,l),
(1024,332,o),
(797,131,o),
(574,130,cs),
(396,131,o),
(279,256,o),
(280,396,c),
(279,436,o),
(317,541,o),
(450,640,cs),
(748,862,ls),
(870,951,o),
(945,1050,o),
(946,1192,c),
(945,1359,o),
(809,1504,o),
(584,1504,cs),
(367,1504,o),
(224,1367,o),
(224,1166,cs),
(224,992,o),
(349,870,o),
(506,680,cs),
(1070,0,l),
(1278,0,l),
(594,834,ls),
(497,951,o),
(399,1059,o),
(398,1164,cs),
(399,1257,o),
(477,1356,o),
(590,1356,cs),
(698,1356,o),
(771,1268,o),
(770,1192,c),
(771,1091,o),
(716,1036,o),
(632,980,c),
(416,820,l)
);
}
);
};
layerId = "BC7DB698-6657-4284-AE4C-FB553159B532";
name = "Dec 27 18, 14:19";
shapes = (
{
closed = 0;
nodes = (
(1112,648,l),
(1111,479,o),
(1038,289,o),
(940,184,cs),
(850,86,o),
(712,29,o),
(578,30,cs),
(351,29,o),
(195,196,o),
(194,384,cs),
(195,519,o),
(276,611,o),
(436,730,cs),
(646,890,ls),
(805,1015,o),
(844,1100,o),
(844,1192,cs),
(844,1357,o),
(724,1463,o),
(582,1464,cs),
(415,1463,o),
(297,1319,o),
(296,1182,cs),
(297,1079,o),
(361,1002,o),
(494,834,cs),
(1178,-30,l)
);
}
);
width = 1238;
},
{
associatedMasterId = "B1F27B51-9973-4381-9301-4FE46FE1CA59";
background = {
shapes = (
{
closed = 1;
nodes = (
(233,695,o),
(105,582,o),
(104,396,c),
(105,154,o),
(285,-20,o),
(578,-20,c),
(721,-20,o),
(881,32,o),
(978,140,c),
(1010,184,l),
(1062,235,o),
(1190,355,o),
(1190,652,c),
(1024,652,l),
(1024,332,o),
(797,131,o),
(574,130,cs),
(396,131,o),
(279,256,o),
(280,396,c),
(279,436,o),
(317,541,o),
(450,640,cs),
(748,862,ls),
(870,951,o),
(945,1050,o),
(946,1192,c),
(945,1359,o),
(809,1504,o),
(584,1504,cs),
(367,1504,o),
(224,1367,o),
(224,1166,cs),
(224,992,o),
(349,870,o),
(506,680,cs),
(1070,0,l),
(1278,0,l),
(594,834,ls),
(497,951,o),
(399,1059,o),
(398,1164,cs),
(399,1257,o),
(477,1356,o),
(590,1356,cs),
(698,1356,o),
(771,1268,o),
(770,1192,c),
(771,1091,o),
(716,1036,o),
(632,980,c),
(416,820,l)
);
}
);
};
layerId = "297194E9-A452-4483-B058-5B7B44144A90";
name = "Dec 27 18, 14:20";
shapes = (
{
closed = 0;
nodes = (
(1118,538,l),
(1094,396,o),
(1030,250,o),
(952,162,cs),
(856,64,o),
(714,4,o),
(576,2,cs),
(340,4,o),
(180,177,o),
(180,372,cs),
(180,511,o),
(263,606,o),
(428,730,cs),
(646,894,ls),
(810,1023,o),
(849,1111,o),
(850,1208,cs),
(849,1377,o),
(727,1487,o),
(578,1486,cs),
(407,1487,o),
(284,1337,o),
(286,1196,cs),
(284,1090,o),
(351,1010,o),
(488,838,cs),
(1196,-56,l)
);
}
);
width = 1240;
},
{
layerId = m007;
shapes = (
{
closed = 1;
nodes = (
(689,-20,o),
(849,32,o),
(946,140,c),
(957,154,o),
(966,169,o),
(978,184,c),
(1030,235,o),
(1158,355,o),
(1158,652,c),
(992,652,l),
(992,332,o),
(765,130,o),
(542,130,cs),
(364,130,o),
(248,256,o),
(248,396,cs),
(248,436,o),
(285,541,o),
(418,640,cs),
(716,862,ls),
(837,952,o),
(914,1050,o),
(914,1192,cs),
(914,1359,o),
(777,1504,o),
(552,1504,cs),
(335,1504,o),
(192,1367,o),
(192,1166,cs),
(192,992,o),
(317,870,o),
(474,680,cs),
(1038,0,l),
(1246,0,l),
(562,834,ls),
(466,952,o),
(366,1059,o),
(366,1164,cs),
(366,1257,o),
(445,1356,o),
(558,1356,cs),
(666,1356,o),
(738,1268,o),
(738,1192,cs),
(738,1091,o),
(681,1040,o),
(600,980,cs),
(384,820,ls),
(206,688,o),
(72,582,o),
(72,396,cs),
(72,154,o),
(253,-20,o),
(546,-20,c)
);
}
);
width = 1246;
},
{
associatedMasterId = m007;
background = {
shapes = (
{
closed = 1;
nodes = (
(233,695,o),
(105,582,o),
(104,396,c),
(105,154,o),
(285,-20,o),
(578,-20,c),
(721,-20,o),
(881,32,o),
(978,140,c),
(1010,184,l),
(1062,235,o),
(1190,355,o),
(1190,652,c),
(1024,652,l),
(1024,332,o),
(797,131,o),
(574,130,cs),
(396,131,o),
(279,256,o),
(280,396,c),
(279,436,o),
(317,541,o),
(450,640,cs),
(748,862,ls),
(870,951,o),
(945,1050,o),
(946,1192,c),
(945,1359,o),
(809,1504,o),
(584,1504,cs),
(367,1504,o),
(224,1367,o),
(224,1166,cs),
(224,992,o),
(349,870,o),
(506,680,cs),
(1070,0,l),
(1278,0,l),
(594,834,ls),
(497,951,o),
(399,1059,o),
(398,1164,cs),
(399,1257,o),
(477,1356,o),
(590,1356,cs),
(698,1356,o),
(771,1268,o),
(770,1192,c),
(771,1091,o),
(716,1036,o),
(632,980,c),
(416,820,l)
);
}
);
};
layerId = "1D41DF63-F607-4E03-B3ED-429C4E59B035";
name = "Dec 27 18, 14:15";
shapes = (
{
closed = 0;
nodes = (
(1112,654,l),
(1111,395,o),
(983,250,o),
(940,206,c),
(849,108,o),
(706,58,o),
(578,58,c),
(345,58,o),
(196,208,o),
(194,398,c),
(196,512,o),
(279,621,o),
(436,734,c),
(646,888,l),
(765,976,o),
(860,1057,o),
(862,1196,c),
(860,1337,o),
(753,1437,o),
(588,1438,c),
(421,1437,o),
(316,1283,o),
(314,1166,c),
(316,1052,o),
(398,949,o),
(494,832,c),
(512,810,o),
(592,713,o),
(614,686,c),
(1178,2,l)
);
}
);
width = 1310;
},
{
layerId = m009;
shapes = (
{
closed = 1;
nodes = (
(687,-24,o),
(821,5,o),
(940,82,c),
(981,102,o),
(1019,119,o),
(1060,140,c),
(1254,276,o),
(1330,518,o),
(1330,776,c),
(1012,776,l),
(1012,495,o),
(789,290,o),
(590,290,cs),
(493,290,o),
(430,340,o),
(430,424,cs),
(430,492,o),
(471,531,o),
(518,564,cs),
(826,782,ls),
(954,873,o),
(1024,996,o),
(1024,1134,c),
(1024,1341,o),
(870,1512,o),
(620,1512,cs),
(358,1512,o),
(184,1327,o),
(184,1100,cs),
(184,896,o),
(324,735,o),
(414,640,cs),
(1018,0,l),
(1420,0,l),
(698,794,l),
(591,922,o),
(510,1007,o),
(510,1094,cs),
(510,1156,o),
(552,1196,o),
(620,1196,cs),
(693,1196,o),
(728,1153,o),
(728,1106,cs),
(728,1069,o),
(708,1020,o),
(640,978,cs),
(302,768,l),
(149,663,o),
(46,563,o),
(46,396,cs),
(46,165,o),
(241,-24,o),
(562,-24,cs)
);
}
);
width = 1392;
},
{
layerId = m011;
shapes = (
{
closed = 1;
nodes = (
(686,-20,o),
(825,77,o),
(901,175,cs),
(905,181,o),
(910,186,o),
(914,192,cs),
(979,283,o),
(1030,410,o),
(1050,536,c),
(1004,542,l),
(953,241,o),
(777,26,o),
(486,26,cs),
(276,26,o),
(112,180,o),
(112,372,cs),
(112,492,o),
(173,580,o),
(351,714,cs),
(569,878,ls),
(723,994,o),
(782,1088,o),
(782,1208,cs),
(782,1382,o),
(657,1510,o),
(488,1510,cs),
(312,1510,o),
(172,1371,o),
(172,1196,cs),
(172,1068,o),
(246,997,o),
(382,824,cs),
(1033,0,l),
(1092,0,l),
(419,852,ls),
(283,1024,o),
(218,1086,o),
(218,1196,cs),
(218,1345,o),
(338,1464,o),
(488,1464,cs),
(631,1464,o),
(736,1357,o),
(736,1209,cs),
(736,1102,o),
(680,1019,o),
(542,915,cs),
(322,750,ls),
(132,608,o),
(66,506,o),
(66,372,cs),
(66,154,o),
(250,-20,o),
(486,-20,cs)
);
}
);
width = 1092;
},
{
associatedMasterId = m011;
background = {
shapes = (
{
closed = 1;
nodes = (
(233,695,o),
(105,582,o),
(104,396,c),
(105,154,o),
(285,-20,o),
(578,-20,c),
(721,-20,o),
(881,32,o),
(978,140,c),
(1010,184,l),
(1062,235,o),
(1190,355,o),
(1190,652,c),
(1024,652,l),
(1024,332,o),
(797,131,o),
(574,130,cs),
(396,131,o),
(279,256,o),
(280,396,c),
(279,436,o),
(317,541,o),
(450,640,cs),
(748,862,ls),
(870,951,o),
(945,1050,o),
(946,1192,c),
(945,1359,o),
(809,1504,o),
(584,1504,cs),
(367,1504,o),
(224,1367,o),
(224,1166,cs),
(224,992,o),
(349,870,o),
(506,680,cs),
(1070,0,l),
(1278,0,l),
(594,834,ls),
(497,951,o),
(399,1059,o),
(398,1164,cs),
(399,1257,o),
(477,1356,o),
(590,1356,cs),
(698,1356,o),
(771,1268,o),
(770,1192,c),
(771,1091,o),
(716,1036,o),
(632,980,c),
(416,820,l)
);
}
);
};
layerId = "62C09E28-DDC6-47E0-BA44-00EF0F584314";
name = "Dec 27 18, 14:19";
shapes = (
{
closed = 0;
nodes = (
(1112,648,l),
(1111,479,o),
(1038,289,o),
(940,184,cs),
(850,86,o),
(712,29,o),
(578,30,cs),
(351,29,o),
(195,196,o),
(194,384,cs),
(195,519,o),
(276,611,o),
(436,730,cs),
(646,890,ls),
(805,1015,o),
(844,1100,o),
(844,1192,cs),
(844,1357,o),
(724,1463,o),
(582,1464,cs),
(415,1463,o),
(297,1319,o),
(296,1182,cs),
(297,1079,o),
(361,1002,o),
(494,834,cs),
(1178,-30,l)
);
}
);
width = 1238;
},
{
associatedMasterId = m011;
background = {
shapes = (
{
closed = 1;
nodes = (
(233,695,o),
(105,582,o),
(104,396,c),
(105,154,o),
(285,-20,o),
(578,-20,c),
(721,-20,o),
(881,32,o),
(978,140,c),
(1010,184,l),
(1062,235,o),
(1190,355,o),
(1190,652,c),
(1024,652,l),
(1024,332,o),
(797,131,o),
(574,130,cs),
(396,131,o),
(279,256,o),
(280,396,c),
(279,436,o),
(317,541,o),
(450,640,cs),
(748,862,ls),
(870,951,o),
(945,1050,o),
(946,1192,c),
(945,1359,o),
(809,1504,o),
(584,1504,cs),
(367,1504,o),
(224,1367,o),
(224,1166,cs),
(224,992,o),
(349,870,o),
(506,680,cs),
(1070,0,l),
(1278,0,l),
(594,834,ls),
(497,951,o),
(399,1059,o),
(398,1164,cs),
(399,1257,o),
(477,1356,o),
(590,1356,cs),
(698,1356,o),
(771,1268,o),
(770,1192,c),
(771,1091,o),
(716,1036,o),
(632,980,c),
(416,820,l)
);
}
);
};
layerId = "D01544E0-57ED-4A9A-9010-128F4D5D73BD";
name = "Dec 27 18, 14:20";
shapes = (
{
closed = 0;
nodes = (
(1118,538,l),
(1094,396,o),
(1030,250,o),
(952,162,cs),
(856,64,o),
(714,4,o),
(576,2,cs),
(340,4,o),
(180,177,o),
(180,372,cs),
(180,511,o),
(263,606,o),
(428,730,cs),
(646,894,ls),
(810,1023,o),
(849,1111,o),
(850,1208,cs),
(849,1377,o),
(727,1487,o),
(578,1486,cs),
(407,1487,o),
(284,1337,o),
(286,1196,cs),
(284,1090,o),
(351,1010,o),
(488,838,cs),
(1196,-56,l)
);
}
);
width = 1240;
}
);
metricLeft = d;
unicode = 38;
userData = {
"interface.width-adjustments" = (
-16
);
};
}
{
glyphname = quotesingle;
kernLeft = quotedbl;
kernRight = quotedbl;
layers = (
{
background = {
shapes = (
{
ref = quoteright;
}
);
};
layerId = "C698F293-3EC0-4A5A-A3A0-0FDB1F5CF265";
shapes = (
{
closed = 1;
nodes = (
(375,928,l),
(396,1490,l),
(210,1490,l),
(231,928,l)
);
}
);
width = 606;
},
{
background = {
shapes = (
{
pos = (-3,0);
ref = quoteright;
}
);
};
layerId = "5C20EF92-B63D-42A8-8878-93C2863E0093";
shapes = (
{
closed = 1;
nodes = (
(529,824,l),
(566,1490,l),
(196,1490,l),
(233,824,l)
);
}
);
width = 762;
},
{
background = {
shapes = (
{
pos = (72,0);
ref = quoteright;
}
);
};
layerId = "B1F27B51-9973-4381-9301-4FE46FE1CA59";
shapes = (
{
closed = 1;
nodes = (
(302,1040,l),
(307,1490,l),
(256,1490,l),
(261,1040,l)
);
}
);
width = 563;
},
{
layerId = m007;
shapes = (
{
closed = 1;
nodes = (
(324,984,l),
(344,1490,l),
(176,1490,l),
(196,984,l)
);
}
);
width = 520;
},
{
background = {
shapes = (
{
pos = (-3,0);
ref = quoteright;
}
);
};
layerId = m009;
shapes = (
{
closed = 1;
nodes = (
(435,880,l),
(470,1490,l),
(116,1490,l),
(151,880,l)
);
}
);
width = 586;
},
{
background = {
shapes = (
{
pos = (58,0);
ref = quoteright;
}
);
};
layerId = m011;
shapes = (
{
closed = 1;
nodes = (
(260,1056,l),
(264,1490,l),
(216,1490,l),
(220,1056,l)
);
}
);
width = 480;
},
{
associatedMasterId = "C698F293-3EC0-4A5A-A3A0-0FDB1F5CF265";
layerId = "B9FBAEDC-7021-4A04-93EB-75FBD30B3FED";
name = "Jun 8, 22, 14:54";
shapes = (
{
closed = 1;
nodes = (
(306,978,l),
(306,1490,l),
(146,1490,l),
(146,978,l)
);
}
);
width = 454;
}
);
unicode = 39;
userData = {
"interface.width-adjustments" = (
-16
);
};
}
{
glyphname = asterisk;
kernLeft = asciicircum;
kernRight = asciicircum;
layers = (
{
background = {
shapes = (
{
closed = 1;
nodes = (
(573,960,o),
(623,1009,o),
(622,1070,cs),
(623,1132,o),
(573,1181,o),
(512,1182,cs),
(451,1181,o),
(401,1132,o),
(402,1070,cs),
(401,1009,o),
(451,960,o),
(512,960,cs)
);
}
);
};
guides = (
{
pos = (784,1472);
},
{
angle = -30;
pos = (704,1472);
},
{
angle = 30;
pos = (704,1472);
},
{
orientation = center;
angle = 90;
pos = (980,1408);
}
);
layerId = "C698F293-3EC0-4A5A-A3A0-0FDB1F5CF265";
shapes = (
{
closed = 1;
nodes = (
(585,652,l),
(573,969,l),
(840,798,l),
(912,924,l),
(630,1070,l),
(912,1216,l),
(840,1344,l),
(573,1173,l),
(585,1490,l),
(441,1490,l),
(454,1173,l),
(186,1344,l),
(114,1216,l),
(396,1070,l),
(114,924,l),
(186,798,l),
(454,969,l),
(441,652,l)
);
}
);
width = 1026;
},
{
associatedMasterId = "5C20EF92-B63D-42A8-8878-93C2863E0093";
guides = (
{
pos = (0,1238.875);
},
{
pos = (0,763.125);
},
{
orientation = center;
pos = (832,1472);
showMeasurement = 1;
},
{
orientation = center;
angle = 90;
pos = (876,1472);
},
{
angle = -30;
pos = (832,1472);
},
{
angle = 30;
pos = (832,1472);
}
);
layerId = "97A0723D-7FBB-4E7F-A62E-E3A1A7C6FCDB";
name = _base;
shapes = (
{
closed = 1;
nodes = (
(-52,748,l),
(46,920,l),
(-180,1042,l),
(46,1166,l),
(-52,1342,l),
(-262,1214,l),
(-244,1442,l),
(-480,1442,l),
(-462,1214,l),
(-674,1342,l),
(-770,1166,l),
(-544,1042,l),
(-770,920,l),
(-674,748,l),
(-462,872,l),
(-480,642,l),
(-244,642,l),
(-262,872,l)
);
},
{
closed = 1;
nodes = (
(488,652,l),
(722,652,l),
(722,1490,l),
(488,1490,l)
);
},
{
closed = 1;
nodes = (
(184,962,l),
(300,760,l),
(1026,1178,l),
(910,1382,l)
);
},
{
closed = 1;
nodes = (
(300,1382,l),
(184,1178,l),
(910,760,l),
(1026,962,l)
);
}
);
width = 1210;
},
{
associatedMasterId = "C698F293-3EC0-4A5A-A3A0-0FDB1F5CF265";
guides = (
{
pos = (784,1344);
},
{
angle = -30;
pos = (704,1472);
},
{
angle = 30;
pos = (704,1472);
},
{
orientation = center;
angle = 90;
pos = (980,1408);
}
);
layerId = "243F3215-096B-472B-B93F-12968743793A";
name = _base;
shapes = (
{
closed = 1;
nodes = (
(442,652,l),
(582,652,l),
(582,1490,l),
(442,1490,l)
);
},
{
closed = 1;
nodes = (
(114,922,l),
(184,800,l),
(910,1218,l),
(840,1342,l)
);
},
{
closed = 1;
nodes = (
(184,1342,l),
(114,1218,l),
(840,800,l),
(910,922,l)
);
}
);
width = 1024;
},
{
associatedMasterId = "5C20EF92-B63D-42A8-8878-93C2863E0093";
background = {
shapes = (
{
closed = 1;
nodes = (
(695,908,o),
(768,981,o),
(768,1070,cs),
(768,1160,o),
(695,1233,o),
(606,1234,cs),
(516,1233,o),
(442,1160,o),
(442,1070,cs),
(442,981,o),
(516,908,o),
(606,908,cs)
);
}
);
};
guides = (
{
pos = (0,1238.875);
},
{
pos = (0,763.125);
},
{
orientation = center;
angle = 90;
pos = (876,1752);
},
{
angle = -30;
pos = (832,1472);
},
{
angle = 30;
pos = (832,1472);
},
{
angle = 60;
pos = (832,1472);
},
{
angle = -60;
pos = (832,1472);
}
);
layerId = "6C5AA80E-891B-45F3-A4F8-A8296CFF1D53";
name = "Sep 11 18, 18:19";
shapes = (
{
closed = 1;
nodes = (
(300,760,l),
(524,928,l),
(488,652,l),
(722,652,l),
(686,928,l),
(910,760,l),
(1026,962,l),
(768,1070,l),
(1026,1178,l),
(910,1382,l),
(686,1214,l),
(722,1490,l),
(488,1490,l),
(524,1214,l),
(300,1382,l),
(184,1178,l),
(442,1070,l),
(184,962,l)
);
}
);
width = 1210;
},
{
background = {
shapes = (
{
closed = 1;
nodes = (
(726,884,o),
(809,968,o),
(808,1070,cs),
(809,1173,o),
(726,1257,o),
(622,1256,cs),
(521,1257,o),
(437,1173,o),
(436,1070,cs),
(437,968,o),
(521,884,o),
(622,884,cs)
);
}
);
};
guides = (
{
pos = (24,1240);
},
{
pos = (24,764);
},
{
orientation = center;
angle = 90;
pos = (900,1752);
},
{
angle = -30;
pos = (856,1472);
},
{
angle = 30;
pos = (856,1472);
},
{
angle = 60;
pos = (856,1472);
},
{
angle = -60;
pos = (856,1472);
}
);
layerId = "5C20EF92-B63D-42A8-8878-93C2863E0093";
shapes = (
{
closed = 1;
nodes = (
(738,652,l),
(716,908,l),
(928,760,l),
(1044,962,l),
(812,1070,l),
(1044,1178,l),
(928,1382,l),
(716,1234,l),
(738,1490,l),
(506,1490,l),
(530,1234,l),
(318,1382,l),
(200,1178,l),
(434,1070,l),
(200,962,l),
(318,760,l),
(530,908,l),
(506,652,l)
);
}
);
width = 1246;
},
{
guides = (
{
angle = 30;
pos = (704,1472);
},
{
orientation = center;
pos = (784,1472);
},
{
angle = -30;
pos = (704,1472);
}
);
layerId = "B1F27B51-9973-4381-9301-4FE46FE1CA59";
shapes = (
{
closed = 1;
nodes = (
(536,652,l),
(536,1030,l),
(864,840,l),
(888,882,l),
(558,1070,l),
(888,1260,l),
(864,1300,l),
(536,1112,l),
(536,1490,l),
(488,1490,l),
(488,1112,l),
(160,1300,l),
(136,1260,l),
(466,1070,l),
(136,882,l),
(160,840,l),
(488,1030,l),
(488,652,l)
);
}
);
width = 1024;
},
{
associatedMasterId = "B1F27B51-9973-4381-9301-4FE46FE1CA59";
background = {
shapes = (
{
closed = 1;
nodes = (
(582,652,l),
(570,972,l),
(840,800,l),
(910,922,l),
(626,1070,l),
(910,1218,l),
(840,1342,l),
(570,1170,l),
(582,1490,l),
(442,1490,l),
(454,1170,l),
(184,1342,l),
(114,1218,l),
(398,1070,l),
(114,922,l),
(184,800,l),
(454,972,l),
(442,652,l)
);
}
);
};
guides = (
{
angle = 30;
pos = (704,1472);
},
{
orientation = center;
pos = (784,1472);
},
{
angle = -30;
pos = (704,1472);
}
);
layerId = "F49FED06-13CF-4C84-978D-8F5A7D370851";
name = "Dec 27 18, 16:33";
shapes = (
{
closed = 0;
nodes = (
(512,1490,l),
(512,652,l)
);
},
{
closed = 0;
nodes = (
(876,1280,l),
(148,862,l)
);
},
{
closed = 0;
nodes = (
(876,862,l),
(148,1280,l)
);
}
);
width = 1024;
},
{
background = {
shapes = (
{
closed = 1;
nodes = (
(573,960,o),
(623,1009,o),
(622,1070,cs),
(623,1132,o),
(573,1181,o),
(512,1182,cs),
(451,1181,o),
(401,1132,o),
(402,1070,cs),
(401,1009,o),
(451,960,o),
(512,960,cs)
);
}
);
};
guides = (
{
pos = (492,1472);
},
{
angle = -30;
pos = (412,1472);
},
{
angle = 30;
pos = (412,1472);
},
{
orientation = center;
angle = 90;
pos = (-3770,1408);
}
);
layerId = m007;
shapes = (
{
closed = 1;
nodes = (
(550,652,l),
(538,972,l),
(808,800,l),
(878,922,l),
(594,1070,l),
(878,1218,l),
(808,1342,l),
(538,1170,l),
(550,1490,l),
(410,1490,l),
(422,1170,l),
(152,1342,l),
(82,1218,l),
(366,1070,l),
(82,922,l),
(152,800,l),
(422,972,l),
(410,652,l)
);
}
);
width = 960;
},
{
associatedMasterId = m007;
guides = (
{
pos = (784,1344);
},
{
angle = -30;
pos = (704,1472);
},
{
angle = 30;
pos = (704,1472);
},
{
orientation = center;
angle = 90;
pos = (980,1408);
}
);
layerId = "7509C3A0-A521-45F6-960B-42B5B7D37301";
name = _base;
shapes = (
{
closed = 1;
nodes = (
(442,652,l),
(582,652,l),
(582,1490,l),
(442,1490,l)
);
},
{
closed = 1;
nodes = (
(114,922,l),
(184,800,l),
(910,1218,l),
(840,1342,l)
);
},
{
closed = 1;
nodes = (
(184,1342,l),
(114,1218,l),
(840,800,l),
(910,922,l)
);
}
);
width = 1024;
},
{
associatedMasterId = m009;
guides = (
{
pos = (0,1238.875);
},
{
pos = (0,763.125);
},
{
orientation = center;
pos = (832,1472);
showMeasurement = 1;
},
{
orientation = center;
angle = 90;
pos = (876,1472);
},
{
angle = -30;
pos = (832,1472);
},
{
angle = 30;
pos = (832,1472);
}
);
layerId = "ABCFE788-C62A-4E6B-878B-E97F5DC36C46";
name = _base;
shapes = (
{
closed = 1;
nodes = (
(-52,748,l),
(46,920,l),
(-180,1042,l),
(46,1166,l),
(-52,1342,l),
(-262,1214,l),
(-244,1442,l),
(-480,1442,l),
(-462,1214,l),
(-674,1342,l),
(-770,1166,l),
(-544,1042,l),
(-770,920,l),
(-674,748,l),
(-462,872,l),
(-480,642,l),
(-244,642,l),
(-262,872,l)
);
},
{
closed = 1;
nodes = (
(488,652,l),
(722,652,l),
(722,1490,l),
(488,1490,l)
);
},
{
closed = 1;
nodes = (
(184,962,l),
(300,760,l),
(1026,1178,l),
(910,1382,l)
);
},
{
closed = 1;
nodes = (
(300,1382,l),
(184,1178,l),
(910,760,l),
(1026,962,l)
);
}
);
width = 1210;
},
{
associatedMasterId = m009;
background = {
shapes = (
{
closed = 1;
nodes = (
(695,908,o),
(768,981,o),
(768,1070,cs),
(768,1160,o),
(695,1233,o),
(606,1234,cs),
(516,1233,o),
(442,1160,o),
(442,1070,cs),
(442,981,o),
(516,908,o),
(606,908,cs)
);
}
);
};
guides = (
{
pos = (0,1238.875);
},
{
pos = (0,763.125);
},
{
orientation = center;
angle = 90;
pos = (876,1752);
},
{
angle = -30;
pos = (832,1472);
},
{
angle = 30;
pos = (832,1472);
},
{
angle = 60;
pos = (832,1472);
},
{
angle = -60;
pos = (832,1472);
}
);
layerId = "EC555BC1-B050-41EA-862E-64CD4600D8F4";
name = "Sep 11 18, 18:19";
shapes = (
{
closed = 1;
nodes = (
(300,760,l),
(524,928,l),
(488,652,l),
(722,652,l),
(686,928,l),
(910,760,l),
(1026,962,l),
(768,1070,l),
(1026,1178,l),
(910,1382,l),
(686,1214,l),
(722,1490,l),
(488,1490,l),
(524,1214,l),
(300,1382,l),
(184,1178,l),
(442,1070,l),
(184,962,l)
);
}
);
width = 1210;
},
{
background = {
shapes = (
{
closed = 1;
nodes = (
(726,884,o),
(809,968,o),
(808,1070,cs),
(809,1173,o),
(726,1257,o),
(622,1256,cs),
(521,1257,o),
(437,1173,o),
(436,1070,cs),
(437,968,o),
(521,884,o),
(622,884,cs)
);
}
);
};
guides = (
{
pos = (-72,1240);
},
{
pos = (-72,764);
},
{
orientation = center;
angle = 90;
pos = (-2255,1752);
},
{
angle = -30;
pos = (760,1472);
},
{
angle = 30;
pos = (760,1472);
},
{
angle = 60;
pos = (760,1472);
},
{
angle = -60;
pos = (760,1472);
}
);
layerId = m009;
shapes = (
{
closed = 1;
nodes = (
(722,652,l),
(700,908,l),
(912,760,l),
(1028,962,l),
(796,1070,l),
(1028,1178,l),
(912,1382,l),
(700,1234,l),
(722,1490,l),
(490,1490,l),
(514,1234,l),
(302,1382,l),
(184,1178,l),
(418,1070,l),
(184,962,l),
(302,760,l),
(514,908,l),
(490,652,l)
);
}
);
width = 1214;
},
{
guides = (
{
angle = 30;
pos = (576,1472);
},
{
orientation = center;
pos = (-304,1472);
},
{
angle = -30;
pos = (576,1472);
}
);
layerId = m011;
shapes = (
{
closed = 1;
nodes = (
(472,652,l),
(472,1030,l),
(800,840,l),
(824,882,l),
(494,1070,l),
(824,1260,l),
(800,1300,l),
(472,1112,l),
(472,1490,l),
(424,1490,l),
(424,1112,l),
(96,1300,l),
(72,1260,l),
(402,1070,l),
(72,882,l),
(96,840,l),
(424,1030,l),
(424,652,l)
);
}
);
width = 896;
},
{
associatedMasterId = m011;
background = {
shapes = (
{
closed = 1;
nodes = (
(582,652,l),
(570,972,l),
(840,800,l),
(910,922,l),
(626,1070,l),
(910,1218,l),
(840,1342,l),
(570,1170,l),
(582,1490,l),
(442,1490,l),
(454,1170,l),
(184,1342,l),
(114,1218,l),
(398,1070,l),
(114,922,l),
(184,800,l),
(454,972,l),
(442,652,l)
);
}
);
};
guides = (
{
angle = 30;
pos = (704,1472);
},
{
orientation = center;
pos = (784,1472);
},
{
angle = -30;
pos = (704,1472);
}
);
layerId = "1B08EB83-887B-4D0C-9C67-39732EF7E39D";
name = "Dec 27 18, 16:33";
shapes = (
{
closed = 0;
nodes = (
(512,1490,l),
(512,652,l)
);
},
{
closed = 0;
nodes = (
(876,1280,l),
(148,862,l)
);
},
{
closed = 0;
nodes = (
(876,862,l),
(148,1280,l)
);
}
);
width = 1024;
}
);
note = "hexagonal angle: 30 deg";
unicode = 42;
userData = {
com.typemytype.robofont.guideline.magnetic.x5LXEmmtln = 5;
"interface.width-adjustments" = (
-16
);
};
}
{
glyphname = plus;
kernLeft = hyphen;
kernRight = hyphen;
layers = (
{
background = {
shapes = (
{
pos = (108,0);
ref = e;
}
);
};
guides = (
{
pos = (268,800);
}
);
layerId = "C698F293-3EC0-4A5A-A3A0-0FDB1F5CF265";
shapes = (
{
closed = 1;
nodes = (
(756,102,l),
(756,1062,l),
(594,1062,l),
(594,102,l)
);
},
{
closed = 1;
nodes = (
(1155,500,l),
(1155,664,l),
(195,664,l),
(195,500,l)
);
}
);
width = 1350;
},
{
guides = (
{
orientation = center;
pos = (408,832);
}
);
layerId = "5C20EF92-B63D-42A8-8878-93C2863E0093";
shapes = (
{
closed = 1;
nodes = (
(873,66,l),
(873,1144,l),
(547,1144,l),
(547,66,l)
);
},
{
closed = 1;
nodes = (
(1248,442,l),
(1248,768,l),
(172,768,l),
(172,442,l)
);
}
);
width = 1420;
},
{
guides = (
{
pos = (268,800);
}
);
layerId = "B1F27B51-9973-4381-9301-4FE46FE1CA59";
shapes = (
{
closed = 1;
nodes = (
(675,160,l),
(675,1004,l),
(629,1004,l),
(629,160,l)
);
},
{
closed = 1;
nodes = (
(1074,558,l),
(1074,606,l),
(230,606,l),
(230,558,l)
);
}
);
width = 1304;
},
{
background = {
shapes = (
{
pos = (108,0);
ref = e;
}
);
};
guides = (
{
pos = (-24,800);
}
);
layerId = m007;
shapes = (
{
closed = 1;
nodes = (
(724,102,l),
(724,1062,l),
(562,1062,l),
(562,102,l)
);
},
{
closed = 1;
nodes = (
(1123,500,l),
(1123,664,l),
(163,664,l),
(163,500,l)
);
}
);
width = 1286;
},
{
guides = (
{
orientation = center;
pos = (-3182,832);
}
);
layerId = m009;
shapes = (
{
closed = 1;
nodes = (
(857,66,l),
(857,1144,l),
(531,1144,l),
(531,66,l)
);
},
{
closed = 1;
nodes = (
(1232,442,l),
(1232,768,l),
(156,768,l),
(156,442,l)
);
}
);
width = 1388;
},
{
guides = (
{
pos = (140,800);
}
);
layerId = m011;
shapes = (
{
closed = 1;
nodes = (
(611,160,l),
(611,1004,l),
(565,1004,l),
(565,160,l)
);
},
{
closed = 1;
nodes = (
(1010,558,l),
(1010,606,l),
(166,606,l),
(166,558,l)
);
}
);
width = 1176;
}
);
unicode = 43;
userData = {
com.typemytype.robofont.guideline.magnetic.vWa5hxe2x0 = 5;
"interface.width-adjustments" = (
-16
);
};
}
{
glyphname = comma;
kernLeft = comma;
kernRight = comma;
layers = (
{
background = {
shapes = (
{
ref = period;
}
);
};
layerId = "B1F27B51-9973-4381-9301-4FE46FE1CA59";
shapes = (
{
pos = (-12,-1338);
ref = quoteright;
}
);
width = 554;
},
{
background = {
shapes = (
{
ref = period;
}
);
};
layerId = m007;
shapes = (
{
pos = (-24,-1282);
ref = quoteright;
}
);
width = 450;
},
{
background = {
shapes = (
{
ref = period;
}
);
};
layerId = m009;
shapes = (
{
pos = (-24,-1218);
ref = quoteright;
}
);
width = 544;
},
{
background = {
shapes = (
{
ref = period;
}
);
};
layerId = m011;
shapes = (
{
pos = (12,-1330);
ref = quoteright;
}
);
width = 400;
},
{
associatedMasterId = "C698F293-3EC0-4A5A-A3A0-0FDB1F5CF265";
layerId = "C3FE8B72-1850-4B16-A430-18FA1B892B86";
name = "Jun 9, 22, 07:51";
shapes = (
{
closed = 1;
nodes = (
(226,204,l),
(218,122,ls),
(197,-75,o),
(156,-271,o),
(136,-364,c),
(268,-364,l),
(303,-265,o),
(377,-41,o),
(402,126,cs),
(414,204,l)
);
}
);
width = 574;
},
{
layerId = "C698F293-3EC0-4A5A-A3A0-0FDB1F5CF265";
name = Regular;
shapes = (
{
pos = (-32,-1282);
ref = quoteright;
}
);
width = 590;
},
{
associatedMasterId = "B1F27B51-9973-4381-9301-4FE46FE1CA59";
layerId = "B2550866-E662-4705-BCA9-57CA727EEE3D";
name = "Jun 9, 22, 07:52";
shapes = (
{
closed = 1;
nodes = (
(282,204,l),
(268,122,ls),
(233,-74,o),
(198,-253,o),
(178,-364,c),
(216,-364,l),
(249,-254,o),
(290,-13,o),
(318,128,cs),
(332,204,l)
);
}
);
width = 526;
},
{
associatedMasterId = "5C20EF92-B63D-42A8-8878-93C2863E0093";
guides = (
{
pos = (12,1240);
},
{
pos = (12,764);
}
);
layerId = "10ACA4B8-98C4-49FE-BE29-4767C4BF4B5D";
name = "Jun 9, 22, 07:56";
shapes = (
{
closed = 1;
nodes = (
(190,204,l),
(190,122,ls),
(189,-76,o),
(122,-283,o),
(98,-364,c),
(346,-364,l),
(381,-283,o),
(471,-88,o),
(486,122,cs),
(492,204,l)
);
}
);
width = 652;
},
{
background = {
shapes = (
{
ref = period;
}
);
};
layerId = "5C20EF92-B63D-42A8-8878-93C2863E0093";
name = Black;
shapes = (
{
pos = (-58,-1250);
ref = quoteright;
}
);
width = 764;
}
);
metricWidth = period;
unicode = 44;
userData = {
"interface.width-adjustments" = (
-16
);
};
}
{
glyphname = hyphen;
kernLeft = hyphen;
kernRight = hyphen;
layers = (
{
background = {
shapes = (
{
pos = (-2,0);
ref = x;
}
);
};
layerId = "C698F293-3EC0-4A5A-A3A0-0FDB1F5CF265";
shapes = (
{
closed = 1;
nodes = (
(144,719,l),
(144,553,l),
(798,553,l),
(798,719,l)
);
}
);
width = 942;
},
{
background = {
shapes = (
{
ref = x;
}
);
};
layerId = "5C20EF92-B63D-42A8-8878-93C2863E0093";
shapes = (
{
closed = 1;
nodes = (
(137,744,l),
(137,442,l),
(835,442,l),
(835,744,l)
);
}
);
width = 972;
},
{
background = {
shapes = (
{
pos = (-2,0);
ref = x;
}
);
};
layerId = "B1F27B51-9973-4381-9301-4FE46FE1CA59";
shapes = (
{
closed = 1;
nodes = (
(172,662,l),
(172,616,l),
(728,616,l),
(728,662,l)
);
}
);
width = 898;
},
{
associatedMasterId = "C698F293-3EC0-4A5A-A3A0-0FDB1F5CF265";
background = {
shapes = (
{
ref = x;
}
);
};
guides = (
{
orientation = center;
pos = (1104,816);
}
);
layerId = "63B5BFA6-C9AA-4ED3-8B09-961D912F95E3";
name = low;
shapes = (
{
closed = 1;
nodes = (
(146,674,l),
(146,514,l),
(798,514,l),
(798,674,l)
);
}
);
width = 942;
},
{
associatedMasterId = "B1F27B51-9973-4381-9301-4FE46FE1CA59";
background = {
shapes = (
{
ref = x;
}
);
};
guides = (
{
orientation = center;
pos = (1104,816);
}
);
layerId = "2A4AC893-944D-4CBF-BBBB-D9B421CC4A22";
name = low;
shapes = (
{
closed = 1;
nodes = (
(172,616,l),
(172,570,l),
(728,570,l),
(728,616,l)
);
}
);
width = 898;
},
{
background = {
shapes = (
{
ref = x;
}
);
};
guides = (
{
orientation = center;
pos = (-3279,878);
}
);
layerId = m007;
shapes = (
{
closed = 1;
nodes = (
(113,688,l),
(113,528,l),
(765,528,l),
(765,688,l)
);
}
);
width = 878;
},
{
associatedMasterId = m007;
background = {
shapes = (
{
ref = x;
}
);
};
guides = (
{
orientation = center;
pos = (1104,816);
}
);
layerId = "EFAB05E6-D88C-467A-B6D5-25146763BE74";
name = low;
shapes = (
{
closed = 1;
nodes = (
(146,674,l),
(146,514,l),
(798,514,l),
(798,674,l)
);
}
);
width = 942;
},
{
background = {
shapes = (
{
ref = x;
}
);
};
guides = (
{
orientation = center;
pos = (-1366,816);
}
);
layerId = m009;
shapes = (
{
closed = 1;
nodes = (
(121,720,l),
(121,418,l),
(819,418,l),
(819,720,l)
);
}
);
width = 940;
},
{
background = {
shapes = (
{
pos = (-2,0);
ref = x;
}
);
};
layerId = m011;
shapes = (
{
closed = 1;
nodes = (
(108,630,l),
(108,584,l),
(664,584,l),
(664,630,l)
);
}
);
width = 770;
},
{
associatedMasterId = m011;
background = {
shapes = (
{
ref = x;
}
);
};
guides = (
{
orientation = center;
pos = (1104,816);
}
);
layerId = "0E766218-057B-4B1C-B703-2BFB89415417";
name = low;
shapes = (
{
closed = 1;
nodes = (
(172,616,l),
(172,570,l),
(728,570,l),
(728,616,l)
);
}
);
width = 898;
}
);
unicode = 45;
userData = {
"interface.width-adjustments" = (
-16
);
};
}
{
glyphname = period;
kernLeft = comma;
kernRight = comma;
layers = (
{
anchors = (
{
name = _center;
pos = (291,119);
}
);
layerId = "C698F293-3EC0-4A5A-A3A0-0FDB1F5CF265";
shapes = (
{
closed = 1;
nodes = (
(363,-12,o),
(422,47,o),
(422,119,cs),
(422,191,o),
(363,250,o),
(291,250,cs),
(219,250,o),
(160,191,o),
(160,119,cs),
(160,47,o),
(219,-12,o),
(291,-12,cs)
);
}
);
width = 582;
},
{
anchors = (
{
name = _center;
pos = (382,179);
}
);
guides = (
{
pos = (78,1240);
},
{
pos = (78,764);
}
);
layerId = "5C20EF92-B63D-42A8-8878-93C2863E0093";
shapes = (
{
closed = 1;
nodes = (
(499,-24,o),
(588,63,o),
(588,179,cs),
(588,295,o),
(499,382,o),
(382,382,cs),
(265,382,o),
(176,295,o),
(176,179,cs),
(176,63,o),
(265,-24,o),
(382,-24,cs)
);
}
);
width = 764;
},
{
anchors = (
{
name = _center;
pos = (277,44);
}
);
layerId = "B1F27B51-9973-4381-9301-4FE46FE1CA59";
shapes = (
{
closed = 1;
nodes = (
(306,-9,o),
(330,15,o),
(330,44,cs),
(330,73,o),
(306,97,o),
(277,97,cs),
(248,97,o),
(224,73,o),
(224,44,cs),
(224,15,o),
(248,-9,o),
(277,-9,cs)
);
}
);
width = 554;
},
{
anchors = (
{
name = _center;
pos = (220,104);
}
);
layerId = m007;
shapes = (
{
closed = 1;
nodes = (
(284,-12,o),
(336,40,o),
(336,104,cs),
(336,168,o),
(284,220,o),
(220,220,cs),
(156,220,o),
(104,168,o),
(104,104,cs),
(104,40,o),
(156,-12,o),
(220,-12,cs)
);
}
);
width = 440;
},
{
anchors = (
{
name = _center;
pos = (272,189);
}
);
guides = (
{
pos = (-112,1240);
},
{
pos = (-112,764);
}
);
layerId = m009;
shapes = (
{
closed = 1;
nodes = (
(387,-19,o),
(480,74,o),
(480,189,cs),
(480,304,o),
(387,397,o),
(272,397,cs),
(157,397,o),
(64,304,o),
(64,189,cs),
(64,74,o),
(157,-19,o),
(272,-19,cs)
);
}
);
width = 544;
},
{
anchors = (
{
name = _center;
pos = (200,40);
}
);
layerId = m011;
shapes = (
{
closed = 1;
nodes = (
(227,-8,o),
(248,13,o),
(248,40,cs),
(248,67,o),
(227,88,o),
(200,88,cs),
(173,88,o),
(152,67,o),
(152,40,cs),
(152,13,o),
(173,-8,o),
(200,-8,cs)
);
}
);
width = 400;
}
);
tags = (
"TODO-opsz"
);
unicode = 46;
userData = {
"interface.width-adjustments" = (
-16
);
};
}
{
glyphname = slash;
kernLeft = slash;
kernRight = slash;
layers = (
{
layerId = "C698F293-3EC0-4A5A-A3A0-0FDB1F5CF265";
shapes = (
{
closed = 1;
nodes = (
(526,1560,l),
(46,-224,l),
(212,-224,l),
(692,1560,l)
);
}
);
width = 738;
},
{
guides = (
{
pos = (12,1240);
},
{
pos = (12,764);
}
);
layerId = "5C20EF92-B63D-42A8-8878-93C2863E0093";
shapes = (
{
closed = 1;
nodes = (
(492,1560,l),
(12,-224,l),
(352,-224,l),
(832,1560,l)
);
}
);
width = 844;
},
{
layerId = "B1F27B51-9973-4381-9301-4FE46FE1CA59";
shapes = (
{
closed = 1;
nodes = (
(546,1560,l),
(66,-224,l),
(116,-224,l),
(596,1560,l)
);
}
);
width = 662;
},
{
layerId = m007;
shapes = (
{
closed = 1;
nodes = (
(494,1560,l),
(14,-224,l),
(172,-224,l),
(652,1560,l)
);
}
);
width = 666;
},
{
guides = (
{
pos = (-84,1240);
},
{
pos = (-84,764);
}
);
layerId = m009;
shapes = (
{
closed = 1;
nodes = (
(476,1560,l),
(-4,-224,l),
(336,-224,l),
(816,1560,l)
);
}
);
width = 812;
},
{
layerId = m011;
shapes = (
{
closed = 1;
nodes = (
(482,1560,l),
(2,-224,l),
(52,-224,l),
(532,1560,l)
);
}
);
width = 534;
}
);
unicode = 47;
userData = {
"interface.width-adjustments" = (
-16
);
};
}
{
glyphname = zero;
kernLeft = six;
kernRight = nine;
layers = (
{
anchors = (
{
name = _center;
pos = (605,745);
},
{
name = center;
pos = (605,745);
}
);
guides = (
{
pos = (848,2044);
},
{
pos = (848,4);
}
);
layerId = "B1F27B51-9973-4381-9301-4FE46FE1CA59";
shapes = (
{
closed = 1;
nodes = (
(889,-20,o),
(1062,271,o),
(1062,744,cs),
(1062,1219,o),
(889,1510,o),
(606,1510,cs),
(321,1510,o),
(148,1219,o),
(148,744,cs),
(148,271,o),
(321,-20,o),
(606,-20,cs)
);
},
{
closed = 1;
nodes = (
(351,26,o),
(194,297,o),
(194,744,cs),
(194,1193,o),
(351,1464,o),
(606,1464,cs),
(859,1464,o),
(1016,1193,o),
(1016,744,cs),
(1016,297,o),
(859,26,o),
(606,26,cs)
);
}
);
width = 1210;
},
{
associatedMasterId = "B1F27B51-9973-4381-9301-4FE46FE1CA59";
background = {
shapes = (
{
closed = 1;
nodes = (
(858,-8,o),
(1010,264,o),
(1010,748,cs),
(1009,1225,o),
(854,1510,o),
(576,1510,cs),
(297,1510,o),
(140,1224,o),
(142,748,cs),
(143,263,o),
(293,-9,o),
(576,-8,cs)
);
},
{
closed = 1;
nodes = (
(313,51,o),
(170,314,o),
(168,748,cs),
(169,1182,o),
(315,1454,o),
(576,1454,cs),
(836,1454,o),
(982,1182,o),
(984,748,cs),
(981,314,o),
(839,51,o),
(576,52,cs)
);
}
);
};
guides = (
{
pos = (808,2044);
},
{
pos = (808,4);
}
);
layerId = "7AF2C568-77BF-4FF1-9E55-589BC7C6D392";
name = "Dec 25 18, 17:03";
shapes = (
{
closed = 1;
nodes = (
(845,3,o),
(1009,284,o),
(1010,744,cs),
(1009,1206,o),
(845,1487,o),
(576,1486,cs),
(307,1487,o),
(143,1206,o),
(142,744,cs),
(143,284,o),
(307,3,o),
(576,2,cs)
);
}
);
width = 1152;
},
{
anchors = (
{
name = _center;
pos = (541,745);
},
{
name = center;
pos = (541,745);
}
);
guides = (
{
pos = (720,2044);
},
{
pos = (720,4);
}
);
layerId = m011;
shapes = (
{
closed = 1;
nodes = (
(825,-20,o),
(998,271,o),
(998,744,cs),
(998,1219,o),
(825,1510,o),
(542,1510,cs),
(257,1510,o),
(84,1219,o),
(84,744,cs),
(84,271,o),
(257,-20,o),
(542,-20,cs)
);
},
{
closed = 1;
nodes = (
(287,26,o),
(130,297,o),
(130,744,cs),
(130,1193,o),
(287,1464,o),
(542,1464,cs),
(795,1464,o),
(952,1193,o),
(952,744,cs),
(952,297,o),
(795,26,o),
(542,26,cs)
);
}
);
width = 1082;
},
{
associatedMasterId = m011;
background = {
shapes = (
{
closed = 1;
nodes = (
(858,-8,o),
(1010,264,o),
(1010,748,cs),
(1009,1225,o),
(854,1510,o),
(576,1510,cs),
(297,1510,o),
(140,1224,o),
(142,748,cs),
(143,263,o),
(293,-9,o),
(576,-8,cs)
);
},
{
closed = 1;
nodes = (
(313,51,o),
(170,314,o),
(168,748,cs),
(169,1182,o),
(315,1454,o),
(576,1454,cs),
(836,1454,o),
(982,1182,o),
(984,748,cs),
(981,314,o),
(839,51,o),
(576,52,cs)
);
}
);
};
guides = (
{
pos = (808,2044);
},
{
pos = (808,4);
}
);
layerId = "C95386FA-5CA4-4464-B66C-6E09B1AF9D3A";
name = "Dec 25 18, 17:03";
shapes = (
{
closed = 1;
nodes = (
(845,3,o),
(1009,284,o),
(1010,744,cs),
(1009,1206,o),
(845,1487,o),
(576,1486,cs),
(307,1487,o),
(143,1206,o),
(142,744,cs),
(143,284,o),
(307,3,o),
(576,2,cs)
);
}
);
width = 1152;
},
{
anchors = (
{
name = _center;
pos = (640,745);
},
{
name = center;
pos = (640,745);
}
);
guides = (
{
orientation = center;
angle = 90;
pos = (824,792);
}
);
layerId = "C698F293-3EC0-4A5A-A3A0-0FDB1F5CF265";
shapes = (
{
closed = 1;
nodes = (
(969,-20,o),
(1158,258,o),
(1158,744,cs),
(1158,1228,o),
(966,1510,o),
(640,1510,cs),
(314,1510,o),
(122,1228,o),
(122,744,cs),
(122,258,o),
(311,-20,o),
(640,-20,cs)
);
},
{
closed = 1;
nodes = (
(419,138,o),
(294,361,o),
(294,744,cs),
(294,1128,o),
(419,1352,o),
(640,1352,cs),
(861,1352,o),
(986,1128,o),
(986,744,cs),
(986,361,o),
(861,138,o),
(640,138,cs)
);
}
);
width = 1280;
},
{
anchors = (
{
name = _center;
pos = (628,745);
},
{
name = center;
pos = (628,745);
}
);
guides = (
{
orientation = center;
angle = 90;
pos = (-5078,792);
},
{
angle = 90;
pos = (628,1552);
}
);
layerId = m007;
shapes = (
{
closed = 1;
nodes = (
(958,-24,o),
(1166,275,o),
(1166,744,cs),
(1166,1215,o),
(958,1514,o),
(628,1514,cs),
(298,1514,o),
(90,1215,o),
(90,744,cs),
(90,275,o),
(298,-24,o),
(628,-24,cs)
);
},
{
closed = 1;
nodes = (
(400,136,o),
(260,366,o),
(260,744,cs),
(260,1124,o),
(400,1354,o),
(628,1354,cs),
(856,1354,o),
(996,1124,o),
(996,744,cs),
(996,366,o),
(856,136,o),
(628,136,cs)
);
}
);
width = 1256;
},
{
anchors = (
{
name = _center;
pos = (748,745);
},
{
name = center;
pos = (748,745);
}
);
layerId = "5C20EF92-B63D-42A8-8878-93C2863E0093";
shapes = (
{
closed = 1;
nodes = (
(1163,-20,o),
(1406,263,o),
(1406,744,cs),
(1406,1225,o),
(1162,1510,o),
(748,1510,cs),
(334,1510,o),
(90,1226,o),
(90,744,cs),
(90,263,o),
(334,-20,o),
(748,-20,cs)
);
},
{
closed = 1;
nodes = (
(593,308,o),
(510,461,o),
(510,744,cs),
(510,1027,o),
(595,1184,o),
(748,1184,cs),
(902,1184,o),
(986,1028,o),
(986,744,cs),
(986,461,o),
(902,308,o),
(748,308,cs)
);
}
);
width = 1496;
},
{
associatedMasterId = "5C20EF92-B63D-42A8-8878-93C2863E0093";
guides = (
{
pos = (-16,1240);
},
{
pos = (-16,764);
}
);
layerId = "32BD53DC-98C5-430D-AABA-AC4F13E7ED90";
name = "Nov 23 18, 15:46";
shapes = (
{
closed = 1;
nodes = (
(1115,-41,o),
(1332,221,o),
(1332,738,cs),
(1332,1254,o),
(1115,1510,o),
(710,1510,cs),
(304,1510,o),
(87,1252,o),
(88,736,cs),
(86,220,o),
(304,-40,o),
(710,-40,cs)
);
},
{
closed = 1;
nodes = (
(542,285,o),
(467,430,o),
(468,736,cs),
(468,1042,o),
(543,1187,o),
(710,1186,cs),
(873,1187,o),
(949,1042,o),
(952,736,cs),
(952,430,o),
(877,285,o),
(710,286,cs)
);
}
);
width = 1420;
},
{
anchors = (
{
name = _center;
pos = (698,745);
},
{
name = center;
pos = (698,745);
}
);
layerId = m009;
shapes = (
{
closed = 1;
nodes = (
(1111,-24,o),
(1356,267,o),
(1356,744,cs),
(1356,1222,o),
(1111,1514,o),
(698,1514,cs),
(285,1514,o),
(40,1221,o),
(40,744,cs),
(40,268,o),
(285,-24,o),
(698,-24,cs)
);
},
{
closed = 1;
nodes = (
(533,296,o),
(432,466,o),
(432,744,cs),
(432,1023,o),
(533,1194,o),
(698,1194,cs),
(863,1194,o),
(964,1023,o),
(964,744,cs),
(964,466,o),
(863,296,o),
(698,296,cs)
);
}
);
width = 1396;
},
{
associatedMasterId = m009;
layerId = "60C30D65-A827-4491-9B22-43A063F3D711";
name = "Jun 6, 22, 15:47";
shapes = (
{
closed = 1;
nodes = (
(1161,-24,o),
(1414,267,o),
(1414,744,cs),
(1414,1222,o),
(1161,1514,o),
(748,1514,cs),
(335,1514,o),
(82,1221,o),
(82,744,cs),
(82,268,o),
(335,-24,o),
(748,-24,cs)
);
},
{
closed = 1;
nodes = (
(572,296,o),
(482,448,o),
(482,744,cs),
(482,1042,o),
(572,1194,o),
(748,1194,cs),
(923,1194,o),
(1014,1041,o),
(1014,744,cs),
(1014,449,o),
(923,296,o),
(748,296,cs)
);
}
);
width = 1496;
}
);
metricLeft = O;
metricRight = O;
tags = (
"TODO-opsz"
);
unicode = 48;
}
{
glyphname = one;
kernLeft = one;
kernRight = H;
layers = (
{
anchors = (
{
name = _center;
pos = (474,745);
}
);
layerId = "B1F27B51-9973-4381-9301-4FE46FE1CA59";
shapes = (
{
closed = 1;
nodes = (
(456,1490,l),
(146,1258,l),
(146,1202,l),
(466,1440,l),
(474,1440,l),
(474,0,l),
(520,0,l),
(520,1490,l)
);
}
);
width = 752;
},
{
anchors = (
{
name = _center;
pos = (420,745);
}
);
background = {
shapes = (
{
closed = 1;
nodes = (
(420,1490,l),
(48,1242,l),
(48,1058,l),
(410,1300,l),
(420,1300,l),
(420,0,l),
(594,0,l),
(594,1490,l)
);
}
);
};
layerId = m007;
shapes = (
{
closed = 1;
nodes = (
(420,1490,l),
(48,1242,l),
(48,1058,l),
(419,1304,l),
(420,1304,l),
(420,0,l),
(594,0,l),
(594,1490,l)
);
}
);
width = 742;
},
{
anchors = (
{
name = _center;
pos = (474,745);
}
);
layerId = m009;
shapes = (
{
closed = 1;
nodes = (
(398,1490,l),
(32,1266,l),
(32,922,l),
(364,1125,l),
(366,1125,l),
(366,0,l),
(766,0,l),
(766,1490,l)
);
}
);
width = 846;
},
{
anchors = (
{
name = _center;
pos = (402,745);
}
);
layerId = m011;
shapes = (
{
closed = 1;
nodes = (
(392,1490,l),
(82,1282,l),
(82,1228,l),
(408,1446,l),
(410,1446,l),
(410,0,l),
(456,0,l),
(456,1490,l)
);
}
);
width = 624;
},
{
anchors = (
{
name = _center;
pos = (420,745);
}
);
associatedMasterId = m007;
layerId = "50EA2E96-CD13-4D5C-9F67-B6CD8E828471";
name = "Apr 16, 23, 10:46";
shapes = (
{
closed = 1;
nodes = (
(420,1490,l),
(48,1242,l),
(48,1058,l),
(410,1300,l),
(420,1300,l),
(420,0,l),
(594,0,l),
(594,1490,l)
);
}
);
width = 742;
},
{
anchors = (
{
name = _center;
pos = (468,745);
}
);
associatedMasterId = "C698F293-3EC0-4A5A-A3A0-0FDB1F5CF265";
layerId = "7D9A24B6-65BE-4DD2-83F0-C86F619E842E";
name = "Apr 16, 23, 10:48";
shapes = (
{
closed = 1;
nodes = (
(468,1490,l),
(96,1242,l),
(96,1058,l),
(458,1300,l),
(468,1300,l),
(468,0,l),
(644,0,l),
(644,1490,l)
);
}
);
width = 824;
},
{
anchors = (
{
name = _center;
pos = (519,745);
}
);
associatedMasterId = "5C20EF92-B63D-42A8-8878-93C2863E0093";
layerId = "1EA15A5C-F4A5-4D65-A37C-06A4B3D1E9B7";
name = "Apr 16, 23, 10:51";
shapes = (
{
closed = 1;
nodes = (
(456,1490,l),
(90,1266,l),
(90,922,l),
(400,1118,l),
(424,1118,l),
(424,0,l),
(830,0,l),
(830,1490,l)
);
}
);
width = 926;
},
{
anchors = (
{
name = _center;
pos = (519,745);
}
);
layerId = "5C20EF92-B63D-42A8-8878-93C2863E0093";
name = Black;
shapes = (
{
closed = 1;
nodes = (
(424,1490,l),
(90,1266,l),
(90,922,l),
(416,1142,l),
(426,1142,l),
(426,0,l),
(830,0,l),
(830,1490,l)
);
}
);
width = 926;
},
{
anchors = (
{
name = _center;
pos = (468,745);
}
);
associatedMasterId = "C698F293-3EC0-4A5A-A3A0-0FDB1F5CF265";
layerId = "64AE0C59-2CB2-43CB-9F9A-5036C931322C";
name = "Apr 16, 23, 12:05";
shapes = (
{
closed = 1;
nodes = (
(468,1490,l),
(96,1242,l),
(96,1058,l),
(450,1296,l),
(468,1296,l),
(468,0,l),
(644,0,l),
(644,1490,l)
);
}
);
width = 824;
},
{
anchors = (
{
name = _center;
pos = (468,745);
}
);
layerId = "C698F293-3EC0-4A5A-A3A0-0FDB1F5CF265";
name = Regular;
shapes = (
{
closed = 1;
nodes = (
(420,1490,l),
(96,1250,l),
(96,1053,l),
(458,1322,l),
(468,1322,l),
(468,0,l),
(644,0,l),
(644,1490,l)
);
}
);
width = 824;
},
{
anchors = (
{
name = _center;
pos = (519,745);
}
);
associatedMasterId = "5C20EF92-B63D-42A8-8878-93C2863E0093";
layerId = "8E7256D2-7464-4965-91F4-69615CA159CE";
name = "Apr 16, 23, 12:07";
shapes = (
{
closed = 1;
nodes = (
(456,1490,l),
(90,1266,l),
(90,922,l),
(416,1118,l),
(424,1118,l),
(424,0,l),
(830,0,l),
(830,1490,l)
);
}
);
width = 926;
},
{
anchors = (
{
name = _center;
pos = (474,745);
}
);
associatedMasterId = "B1F27B51-9973-4381-9301-4FE46FE1CA59";
layerId = "CC28D9D7-1031-450A-99BA-3D3BE4A7870F";
name = "Apr 16, 23, 12:14";
shapes = (
{
closed = 1;
nodes = (
(456,1490,l),
(146,1282,l),
(146,1228,l),
(466,1440,l),
(474,1440,l),
(474,0,l),
(520,0,l),
(520,1490,l)
);
}
);
width = 752;
}
);
metricRight = H;
unicode = 49;
}
{
glyphname = two;
kernLeft = two;
kernRight = two;
layers = (
{
anchors = (
{
name = _center;
pos = (620,745);
},
{
name = cross;
pos = (840,768);
}
);
background = {
shapes = (
{
pos = (-24,0);
ref = three;
}
);
};
layerId = "C698F293-3EC0-4A5A-A3A0-0FDB1F5CF265";
shapes = (
{
closed = 1;
nodes = (
(1094,0,l),
(1094,160,l),
(402,160,l),
(402,172,l),
(736,530,ls),
(992,804,o),
(1068,932,o),
(1068,1096,cs),
(1068,1327,o),
(881,1510,o),
(620,1510,cs),
(359,1510,o),
(160,1332,o),
(160,1070,c),
(332,1070,l),
(332,1240,o),
(441,1352,o),
(614,1352,cs),
(775,1352,o),
(898,1254,o),
(898,1096,cs),
(898,959,o),
(817,858,o),
(646,670,cs),
(154,130,l),
(154,0,l)
);
}
);
width = 1240;
},
{
anchors = (
{
name = _center;
pos = (662,745);
},
{
name = cross;
pos = (896,818);
}
);
guides = (
{
pos = (-16,2280);
},
{
pos = (-16,764);
}
);
layerId = "5C20EF92-B63D-42A8-8878-93C2863E0093";
shapes = (
{
closed = 1;
nodes = (
(1242,0,l),
(1242,322,l),
(660,322,l),
(660,332,l),
(800,448,ls),
(1141,730,o),
(1226,878,o),
(1226,1050,cs),
(1226,1328,o),
(999,1510,o),
(642,1510,cs),
(295,1510,o),
(70,1317,o),
(70,1004,c),
(454,1004,l),
(454,1129,o),
(529,1198,o),
(642,1198,cs),
(753,1198,o),
(832,1129,o),
(832,1016,cs),
(832,910,o),
(764,841,o),
(654,750,cs),
(98,290,l),
(98,0,l)
);
}
);
width = 1324;
},
{
anchors = (
{
name = _center;
pos = (636,745);
},
{
name = cross;
pos = (814,744);
}
);
layerId = "B1F27B51-9973-4381-9301-4FE46FE1CA59";
shapes = (
{
closed = 1;
nodes = (
(1088,0,l),
(1088,46,l),
(262,46,l),
(262,52,l),
(702,574,ls),
(930,844,o),
(1000,961,o),
(1000,1126,cs),
(1000,1347,o),
(835,1510,o),
(610,1510,cs),
(378,1510,o),
(216,1333,o),
(216,1118,c),
(262,1118,l),
(262,1307,o),
(404,1464,o),
(610,1464,cs),
(809,1464,o),
(954,1321,o),
(954,1126,cs),
(954,977,o),
(890,867,o),
(666,602,cs),
(190,38,l),
(190,0,l)
);
}
);
width = 1272;
},
{
anchors = (
{
name = cross;
pos = (806,738);
}
);
associatedMasterId = "B1F27B51-9973-4381-9301-4FE46FE1CA59";
background = {
shapes = (
{
closed = 1;
nodes = (
(1094,0,l),
(1094,160,l),
(402,160,l),
(402,172,l),
(736,530,ls),
(992,804,o),
(1068,932,o),
(1068,1096,cs),
(1068,1327,o),
(881,1510,o),
(620,1510,cs),
(359,1510,o),
(160,1332,o),
(160,1070,c),
(332,1070,l),
(332,1240,o),
(441,1353,o),
(614,1352,cs),
(775,1353,o),
(899,1254,o),
(898,1096,cs),
(899,959,o),
(818,857,o),
(646,670,cs),
(154,130,l),
(154,0,l)
);
}
);
};
layerId = "B7995463-B533-426C-8A81-27353796E349";
name = "Dec 25 18, 17:25";
shapes = (
{
closed = 0;
nodes = (
(244,1096,l),
(245,1329,o),
(399,1486,o),
(616,1486,c),
(828,1486,o),
(983,1333,o),
(984,1126,c),
(983,960,o),
(904,836,o),
(690,588,c),
(212,24,l),
(1094,24,l)
);
}
);
width = 1170;
},
{
anchors = (
{
name = _center;
pos = (581,745);
},
{
name = cross;
pos = (870,768);
}
);
background = {
shapes = (
{
pos = (-24,0);
ref = three;
}
);
};
layerId = m007;
shapes = (
{
closed = 1;
nodes = (
(1059,0,l),
(1059,160,l),
(340,160,l),
(340,162,l),
(745,528,ls),
(990,749,o),
(1066,866,o),
(1066,1048,cs),
(1066,1333,o),
(890,1514,o),
(588,1514,cs),
(294,1514,o),
(102,1312,o),
(102,1008,c),
(274,1008,l),
(274,1220,o),
(392,1354,o),
(588,1354,cs),
(787,1354,o),
(896,1242,o),
(896,1054,cs),
(896,920,o),
(831,823,o),
(626,635,cs),
(96,151,l),
(96,0,l)
);
}
);
width = 1162;
},
{
anchors = (
{
name = _center;
pos = (646,745);
},
{
name = cross;
pos = (910,818);
}
);
guides = (
{
pos = (-115,2280);
}
);
layerId = m009;
shapes = (
{
closed = 1;
nodes = (
(1223,0,l),
(1223,322,l),
(649,322,l),
(649,332,l),
(892,520,ls),
(1126,701,o),
(1219,846,o),
(1219,1028,cs),
(1219,1311,o),
(995,1514,o),
(645,1514,cs),
(281,1514,o),
(64,1298,o),
(64,952,c),
(445,952,l),
(445,1099,o),
(523,1194,o),
(643,1194,cs),
(758,1194,o),
(833,1123,o),
(833,1012,cs),
(833,900,o),
(726,812,o),
(639,742,cs),
(79,290,l),
(79,0,l)
);
}
);
width = 1293;
},
{
anchors = (
{
name = _center;
pos = (572,745);
},
{
name = cross;
pos = (750,744);
}
);
layerId = m011;
shapes = (
{
closed = 1;
nodes = (
(1024,0,l),
(1024,46,l),
(198,46,l),
(198,52,l),
(638,574,ls),
(866,844,o),
(936,961,o),
(936,1126,cs),
(936,1347,o),
(771,1510,o),
(546,1510,cs),
(314,1510,o),
(152,1333,o),
(152,1118,c),
(198,1118,l),
(198,1307,o),
(340,1464,o),
(546,1464,cs),
(745,1464,o),
(890,1321,o),
(890,1126,cs),
(890,977,o),
(826,867,o),
(602,602,cs),
(126,38,l),
(126,0,l)
);
}
);
width = 1144;
},
{
anchors = (
{
name = cross;
pos = (806,738);
}
);
associatedMasterId = m011;
background = {
shapes = (
{
closed = 1;
nodes = (
(1094,0,l),
(1094,160,l),
(402,160,l),
(402,172,l),
(736,530,ls),
(992,804,o),
(1068,932,o),
(1068,1096,cs),
(1068,1327,o),
(881,1510,o),
(620,1510,cs),
(359,1510,o),
(160,1332,o),
(160,1070,c),
(332,1070,l),
(332,1240,o),
(441,1353,o),
(614,1352,cs),
(775,1353,o),
(899,1254,o),
(898,1096,cs),
(899,959,o),
(818,857,o),
(646,670,cs),
(154,130,l),
(154,0,l)
);
}
);
};
layerId = "B1438F49-A912-457A-A371-8D0946BE0514";
name = "Dec 25 18, 17:25";
shapes = (
{
closed = 0;
nodes = (
(244,1096,l),
(245,1329,o),
(399,1486,o),
(616,1486,c),
(828,1486,o),
(983,1333,o),
(984,1126,c),
(983,960,o),
(904,836,o),
(690,588,c),
(212,24,l),
(1094,24,l)
);
}
);
width = 1170;
},
{
anchors = (
{
name = cross;
pos = (782,768);
}
);
associatedMasterId = m007;
background = {
shapes = (
{
pos = (-14,0);
ref = three;
}
);
};
layerId = "F3D8BD0C-B0DD-44F6-98BA-FC29D6A37732";
name = "Jun 6, 22, 16:25";
shapes = (
{
closed = 1;
nodes = (
(1036,0,l),
(1036,160,l),
(343,160,l),
(343,162,l),
(679,530,ls),
(931,807,o),
(1010,932,o),
(1010,1096,cs),
(1010,1333,o),
(815,1510,o),
(556,1510,cs),
(297,1510,o),
(102,1315,o),
(102,1056,c),
(274,1056,l),
(274,1235,o),
(385,1350,o),
(556,1350,cs),
(728,1350,o),
(840,1250,o),
(840,1096,cs),
(840,959,o),
(759,858,o),
(588,670,cs),
(96,130,l),
(96,0,l)
);
}
);
width = 1132;
}
);
tags = (
"TODO-opsz"
);
unicode = 50;
}
{
glyphname = three;
kernLeft = three;
kernRight = eight;
layers = (
{
anchors = (
{
name = _center;
pos = (652,745);
}
);
background = {
shapes = (
{
pos = (32,0);
ref = eight;
}
);
};
layerId = "C698F293-3EC0-4A5A-A3A0-0FDB1F5CF265";
shapes = (
{
closed = 1;
nodes = (
(946,-20,o),
(1160,161,o),
(1160,404,cs),
(1160,593,o),
(1049,731,o),
(862,762,c),
(862,774,l),
(1012,820,o),
(1106,943,o),
(1106,1112,cs),
(1106,1322,o),
(939,1510,o),
(664,1510,cs),
(406,1510,o),
(192,1351,o),
(184,1118,c),
(358,1118,l),
(364,1265,o),
(505,1352,o),
(660,1352,cs),
(825,1352,o),
(930,1253,o),
(930,1102,cs),
(930,945,o),
(808,844,o),
(632,844,cs),
(512,844,l),
(512,684,l),
(632,684,ls),
(857,684,o),
(984,569,o),
(984,404,cs),
(984,247,o),
(846,140,o),
(654,140,cs),
(482,140,o),
(345,228,o),
(334,372,c),
(152,372,l),
(162,138,o),
(369,-20,o),
(658,-20,cs)
);
}
);
width = 1304;
},
{
anchors = (
{
name = _center;
pos = (691,745);
}
);
layerId = "5C20EF92-B63D-42A8-8878-93C2863E0093";
shapes = (
{
closed = 1;
nodes = (
(1045,-20,o),
(1300,165,o),
(1300,428,cs),
(1300,610,o),
(1180,739,o),
(940,766,c),
(940,776,l),
(1117,796,o),
(1246,910,o),
(1246,1076,cs),
(1246,1327,o),
(1014,1510,o),
(684,1510,cs),
(346,1510,o),
(104,1317,o),
(104,1044,c),
(492,1044,l),
(492,1135,o),
(572,1198,o),
(684,1198,cs),
(785,1198,o),
(856,1137,o),
(856,1050,cs),
(856,960,o),
(772,896,o),
(652,896,cs),
(500,896,l),
(500,616,l),
(652,616,ls),
(783,616,o),
(872,553,o),
(872,462,cs),
(872,370,o),
(796,306,o),
(684,306,cs),
(567,306,o),
(482,367,o),
(482,454,c),
(76,454,l),
(76,176,o),
(328,-20,o),
(680,-20,cs)
);
}
);
width = 1382;
},
{
associatedMasterId = "C698F293-3EC0-4A5A-A3A0-0FDB1F5CF265";
layerId = "AF98C4F5-295E-4E97-8B96-A27C316CE04C";
name = "Sep 23 18, 16:20";
shapes = (
{
closed = 1;
nodes = (
(884,-20,o),
(1085,152,o),
(1086,396,cs),
(1085,567,o),
(966,698,o),
(800,754,c),
(800,766,l),
(951,811,o),
(1053,942,o),
(1054,1106,cs),
(1053,1343,o),
(870,1510,o),
(606,1510,cs),
(348,1510,o),
(166,1351,o),
(166,1118,c),
(340,1118,l),
(340,1265,o),
(447,1353,o),
(602,1352,cs),
(764,1353,o),
(879,1257,o),
(878,1102,cs),
(879,945,o),
(761,838,o),
(584,838,cs),
(500,838,l),
(500,672,l),
(584,672,ls),
(767,672,o),
(908,560,o),
(908,396,cs),
(908,238,o),
(775,140,o),
(606,140,cs),
(446,140,o),
(337,226,o),
(338,372,c),
(152,372,l),
(151,134,o),
(330,-20,o),
(600,-20,cs)
);
}
);
width = 1228;
},
{
anchors = (
{
name = _center;
pos = (628,745);
}
);
layerId = "B1F27B51-9973-4381-9301-4FE46FE1CA59";
shapes = (
{
closed = 1;
nodes = (
(895,-20,o),
(1076,158,o),
(1076,386,cs),
(1076,576,o),
(951,719,o),
(756,768,c),
(756,774,l),
(925,822,o),
(1033,954,o),
(1032,1128,cs),
(1033,1347,o),
(865,1510,o),
(632,1510,cs),
(397,1510,o),
(227,1347,o),
(226,1118,c),
(274,1118,l),
(273,1321,o),
(423,1463,o),
(632,1464,cs),
(841,1463,o),
(986,1320,o),
(986,1128,cs),
(986,922,o),
(814,791,o),
(590,792,cs),
(568,792,l),
(568,744,l),
(590,744,ls),
(845,745,o),
(1030,601,o),
(1030,386,cs),
(1030,188,o),
(871,26,o),
(634,26,cs),
(411,26,o),
(239,172,o),
(238,372,c),
(192,372,l),
(192,145,o),
(383,-20,o),
(634,-20,cs)
);
}
);
width = 1256;
},
{
associatedMasterId = "B1F27B51-9973-4381-9301-4FE46FE1CA59";
background = {
shapes = (
{
closed = 1;
nodes = (
(946,-20,o),
(1161,161,o),
(1160,404,cs),
(1161,593,o),
(1049,731,o),
(862,762,c),
(862,774,l),
(1012,820,o),
(1105,943,o),
(1106,1112,cs),
(1105,1322,o),
(939,1510,o),
(664,1510,cs),
(406,1510,o),
(192,1351,o),
(184,1118,c),
(358,1118,l),
(364,1265,o),
(505,1353,o),
(660,1352,cs),
(825,1353,o),
(931,1253,o),
(930,1102,cs),
(931,945,o),
(808,844,o),
(632,844,cs),
(512,844,l),
(512,684,l),
(632,684,ls),
(857,684,o),
(983,569,o),
(984,404,cs),
(983,247,o),
(846,140,o),
(654,140,cs),
(482,140,o),
(345,228,o),
(334,372,c),
(152,372,l),
(162,138,o),
(369,-20,o),
(658,-20,cs)
);
}
);
};
layerId = "28ACB353-9A8E-4DD7-BCA4-EE6AE891814C";
name = "Dec 25 18, 17:44";
shapes = (
{
closed = 0;
nodes = (
(206,372,l),
(207,156,o),
(383,3,o),
(626,2,cs),
(873,3,o),
(1044,172,o),
(1044,386,cs),
(1044,620,o),
(841,768,o),
(558,768,c),
(817,768,o),
(1001,910,o),
(1000,1128,cs),
(1001,1331,o),
(846,1487,o),
(622,1486,cs),
(401,1487,o),
(241,1334,o),
(242,1118,cs)
);
}
);
width = 1256;
},
{
anchors = (
{
name = _center;
pos = (616,745);
}
);
background = {
shapes = (
{
closed = 1;
nodes = (
(916,-24,o),
(1136,159,o),
(1136,404,cs),
(1136,588,o),
(1012,730,o),
(822,762,c),
(822,774,l),
(988,825,o),
(1090,953,o),
(1090,1112,cs),
(1090,1339,o),
(883,1514,o),
(609,1514,cs),
(327,1514,o),
(128,1326,o),
(128,1056,c),
(302,1056,l),
(302,1244,o),
(418,1356,o),
(608,1356,cs),
(793,1356,o),
(914,1254,o),
(914,1102,cs),
(914,948,o),
(784,844,o),
(592,844,cs),
(472,844,l),
(472,684,l),
(592,684,ls),
(811,684,o),
(960,571,o),
(960,404,cs),
(960,245,o),
(820,134,o),
(616,134,cs),
(403,134,o),
(278,257,o),
(278,468,c),
(96,468,l),
(96,177,o),
(312,-24,o),
(620,-24,cs)
);
}
);
};
layerId = m007;
shapes = (
{
closed = 1;
nodes = (
(916,-24,o),
(1136,159,o),
(1136,404,cs),
(1136,588,o),
(1012,735,o),
(822,767,c),
(822,770,l),
(988,821,o),
(1090,953,o),
(1090,1112,cs),
(1090,1339,o),
(883,1514,o),
(609,1514,cs),
(327,1514,o),
(128,1326,o),
(128,1056,c),
(302,1056,l),
(302,1244,o),
(418,1356,o),
(608,1356,cs),
(793,1356,o),
(914,1254,o),
(914,1102,cs),
(914,948,o),
(784,844,o),
(592,844,cs),
(472,844,l),
(472,684,l),
(592,684,ls),
(811,684,o),
(960,571,o),
(960,404,cs),
(960,245,o),
(820,134,o),
(616,134,cs),
(403,134,o),
(278,257,o),
(278,468,c),
(96,468,l),
(96,177,o),
(312,-24,o),
(620,-24,cs)
);
}
);
width = 1232;
},
{
associatedMasterId = m007;
layerId = "5850950D-78B2-4966-97E7-FF833D9040CE";
name = "Sep 23 18, 16:20";
shapes = (
{
closed = 1;
nodes = (
(884,-20,o),
(1085,152,o),
(1086,396,cs),
(1085,567,o),
(966,698,o),
(800,754,c),
(800,766,l),
(951,811,o),
(1053,942,o),
(1054,1106,cs),
(1053,1343,o),
(870,1510,o),
(606,1510,cs),
(348,1510,o),
(166,1351,o),
(166,1118,c),
(340,1118,l),
(340,1265,o),
(447,1353,o),
(602,1352,cs),
(764,1353,o),
(879,1257,o),
(878,1102,cs),
(879,945,o),
(761,838,o),
(584,838,cs),
(500,838,l),
(500,672,l),
(584,672,ls),
(767,672,o),
(908,560,o),
(908,396,cs),
(908,238,o),
(775,140,o),
(606,140,cs),
(446,140,o),
(337,226,o),
(338,372,c),
(152,372,l),
(151,134,o),
(330,-20,o),
(600,-20,cs)
);
}
);
width = 1228;
},
{
anchors = (
{
name = _center;
pos = (672,745);
}
);
layerId = m009;
shapes = (
{
closed = 1;
nodes = (
(1033,-24,o),
(1280,165,o),
(1280,420,cs),
(1280,598,o),
(1160,756,o),
(936,779,c),
(936,782,l),
(1105,802,o),
(1234,918,o),
(1234,1100,cs),
(1234,1343,o),
(1002,1514,o),
(672,1514,cs),
(308,1514,o),
(92,1305,o),
(92,1032,c),
(480,1032,l),
(480,1139,o),
(562,1214,o),
(672,1214,cs),
(777,1214,o),
(853,1145,o),
(853,1050,cs),
(853,953,o),
(774,896,o),
(640,896,cs),
(496,896,l),
(496,616,l),
(640,616,ls),
(779,616,o),
(868,551,o),
(868,451,cs),
(868,354,o),
(785,286,o),
(666,286,cs),
(534,286,o),
(454,371,o),
(454,512,c),
(64,512,l),
(64,234,o),
(242,-24,o),
(668,-24,cs)
);
}
);
width = 1344;
},
{
anchors = (
{
name = _center;
pos = (564,745);
}
);
layerId = m011;
shapes = (
{
closed = 1;
nodes = (
(831,-20,o),
(1012,158,o),
(1012,386,cs),
(1012,576,o),
(887,719,o),
(692,768,c),
(692,774,l),
(861,822,o),
(969,954,o),
(968,1128,cs),
(969,1347,o),
(801,1510,o),
(568,1510,cs),
(333,1510,o),
(163,1347,o),
(162,1118,c),
(210,1118,l),
(209,1321,o),
(359,1463,o),
(568,1464,cs),
(777,1463,o),
(922,1320,o),
(922,1128,cs),
(922,922,o),
(750,791,o),
(526,792,cs),
(504,792,l),
(504,744,l),
(526,744,ls),
(781,745,o),
(966,601,o),
(966,386,cs),
(966,188,o),
(807,26,o),
(570,26,cs),
(347,26,o),
(175,172,o),
(174,372,c),
(128,372,l),
(128,145,o),
(319,-20,o),
(570,-20,cs)
);
}
);
width = 1128;
},
{
associatedMasterId = m011;
background = {
shapes = (
{
closed = 1;
nodes = (
(946,-20,o),
(1161,161,o),
(1160,404,cs),
(1161,593,o),
(1049,731,o),
(862,762,c),
(862,774,l),
(1012,820,o),
(1105,943,o),
(1106,1112,cs),
(1105,1322,o),
(939,1510,o),
(664,1510,cs),
(406,1510,o),
(192,1351,o),
(184,1118,c),
(358,1118,l),
(364,1265,o),
(505,1353,o),
(660,1352,cs),
(825,1353,o),
(931,1253,o),
(930,1102,cs),
(931,945,o),
(808,844,o),
(632,844,cs),
(512,844,l),
(512,684,l),
(632,684,ls),
(857,684,o),
(983,569,o),
(984,404,cs),
(983,247,o),
(846,140,o),
(654,140,cs),
(482,140,o),
(345,228,o),
(334,372,c),
(152,372,l),
(162,138,o),
(369,-20,o),
(658,-20,cs)
);
}
);
};
layerId = "8303C3E9-DE4E-4CBD-85EF-4C02AD9A66CC";
name = "Dec 25 18, 17:44";
shapes = (
{
closed = 0;
nodes = (
(206,372,l),
(207,156,o),
(383,3,o),
(626,2,cs),
(873,3,o),
(1044,172,o),
(1044,386,cs),
(1044,620,o),
(841,768,o),
(558,768,c),
(817,768,o),
(1001,910,o),
(1000,1128,cs),
(1001,1331,o),
(846,1487,o),
(622,1486,cs),
(401,1487,o),
(241,1334,o),
(242,1118,cs)
);
}
);
width = 1256;
}
);
tags = (
"TODO-opsz"
);
unicode = 51;
}
{
glyphname = four;
kernLeft = four;
kernRight = four;
layers = (
{
anchors = (
{
name = _center;
pos = (689,745);
}
);
layerId = "C698F293-3EC0-4A5A-A3A0-0FDB1F5CF265";
shapes = (
{
closed = 1;
nodes = (
(1196,306,l),
(1196,466,l),
(314,466,l),
(314,478,l),
(808,1260,l),
(882,1260,l),
(882,1490,l),
(774,1490,l),
(120,454,l),
(120,306,l)
);
},
{
closed = 1;
nodes = (
(992,0,l),
(992,1490,l),
(820,1490,l),
(820,420,l),
(820,350,l),
(820,0,l)
);
}
);
width = 1314;
},
{
anchors = (
{
name = _center;
pos = (751,745);
}
);
background = {
shapes = (
{
pos = (-28,0);
ref = A;
}
);
};
guides = (
{
pos = (104,320);
}
);
layerId = "5C20EF92-B63D-42A8-8878-93C2863E0093";
shapes = (
{
closed = 1;
nodes = (
(1368,232,l),
(1368,546,l),
(482,546,l),
(482,558,l),
(806,1070,l),
(968,1070,l),
(968,1490,l),
(684,1490,l),
(84,546,l),
(84,232,l)
);
},
{
closed = 1;
nodes = (
(1196,0,l),
(1196,1490,l),
(818,1490,l),
(818,466,l),
(808,328,l),
(808,0,l)
);
}
);
width = 1438;
},
{
anchors = (
{
name = _center;
pos = (657,745);
}
);
layerId = "B1F27B51-9973-4381-9301-4FE46FE1CA59";
shapes = (
{
closed = 1;
nodes = (
(1068,350,l),
(1068,396,l),
(218,396,l),
(218,402,l),
(830,1394,l),
(864,1394,l),
(864,1490,l),
(834,1490,l),
(152,384,l),
(152,350,l)
);
},
{
closed = 1;
nodes = (
(882,0,l),
(882,1490,l),
(834,1490,l),
(834,378,l),
(834,364,l),
(834,0,l)
);
}
);
width = 1218;
},
{
anchors = (
{
name = _center;
pos = (664,745);
}
);
layerId = m007;
shapes = (
{
closed = 1;
nodes = (
(1213,360,l),
(1213,520,l),
(256,520,l),
(256,522,l),
(811,1288,l),
(875,1288,l),
(875,1490,l),
(765,1490,l),
(52,508,l),
(52,360,l)
);
},
{
closed = 1;
nodes = (
(985,0,l),
(985,1490,l),
(813,1490,l),
(813,474,l),
(813,404,l),
(813,0,l)
);
}
);
width = 1265;
},
{
anchors = (
{
name = _center;
pos = (739,745);
}
);
layerId = m009;
shapes = (
{
closed = 1;
nodes = (
(1350,288,l),
(1350,594,l),
(439,594,l),
(439,596,l),
(791,1118,l),
(934,1118,l),
(934,1490,l),
(671,1490,l),
(64,602,l),
(64,288,l)
);
},
{
closed = 1;
nodes = (
(1184,0,l),
(1184,1490,l),
(792,1490,l),
(792,522,l),
(792,384,l),
(792,0,l)
);
}
);
width = 1414;
},
{
anchors = (
{
name = _center;
pos = (585,745);
}
);
layerId = m011;
shapes = (
{
closed = 1;
nodes = (
(1004,350,l),
(1004,396,l),
(154,396,l),
(154,402,l),
(766,1394,l),
(800,1394,l),
(800,1490,l),
(770,1490,l),
(88,384,l),
(88,350,l)
);
},
{
closed = 1;
nodes = (
(818,0,l),
(818,1490,l),
(770,1490,l),
(770,378,l),
(770,364,l),
(770,0,l)
);
}
);
width = 1090;
}
);
tags = (
"TODO-opsz"
);
unicode = 52;
}
{
glyphname = five;
layers = (
{
guides = (
{
angle = 90;
pos = (1344,1656);
}
);
layerId = "B1F27B51-9973-4381-9301-4FE46FE1CA59";
shapes = (
{
closed = 1;
nodes = (
(822,-20,o),
(1006,186,o),
(1006,462,cs),
(1006,751,o),
(801,940,o),
(562,940,cs),
(442,940,o),
(342,895,o),
(268,826,c),
(262,826,l),
(338,1442,l),
(958,1442,l),
(958,1490,l),
(296,1490,l),
(210,786,l),
(280,774,l),
(348,844,o),
(444,894,o),
(562,894,cs),
(775,894,o),
(960,727,o),
(960,462,cs),
(960,215,o),
(799,26,o),
(564,26,cs),
(356,26,o),
(218,169,o),
(218,372,c),
(172,372,l),
(172,143,o),
(333,-20,o),
(564,-20,cs)
);
}
);
width = 1154;
},
{
associatedMasterId = "B1F27B51-9973-4381-9301-4FE46FE1CA59";
background = {
shapes = (
{
ref = three;
}
);
};
layerId = "09E68E1A-3F35-4777-BBE6-FD6C89765C56";
name = "Dec 27 18, 11:55";
shapes = (
{
closed = 0;
nodes = (
(206,318,l),
(220,136,o),
(378,4,o),
(582,2,c),
(816,4,o),
(987,179,o),
(986,416,c),
(987,659,o),
(817,837,o),
(584,838,c),
(489,838,o),
(388,804,o),
(326,756,c),
(238,768,l),
(308,1466,l),
(1006,1466,l)
);
}
);
width = 1170;
},
{
associatedMasterId = "B1F27B51-9973-4381-9301-4FE46FE1CA59";
background = {
shapes = (
{
ref = three;
}
);
};
layerId = "838CDDB9-573F-41EC-B215-16E0F2F00A69";
name = "Dec 27 18, 11:59";
shapes = (
{
closed = 1;
nodes = (
(296,1490,l),
(210,748,l),
(322,734,l),
(328,780,l),
(262,788,l),
(338,1442,l),
(1006,1442,l),
(1006,1490,l)
);
},
{
closed = 0;
nodes = (
(216,372,l),
(215,186,o),
(367,3,o),
(584,2,cs),
(812,3,o),
(1004,200,o),
(1004,446,cs),
(1004,689,o),
(816,887,o),
(582,888,cs),
(465,887,o),
(360,839,o),
(282,760,c)
);
}
);
width = 1170;
},
{
associatedMasterId = "B1F27B51-9973-4381-9301-4FE46FE1CA59";
background = {
shapes = (
{
ref = three;
}
);
};
guides = (
{
angle = 90;
pos = (1344,1656);
}
);
layerId = "5BB78558-3F9F-4EEB-9ED3-3B587D72683E";
name = "Dec 27 18, 12:06";
shapes = (
{
closed = 1;
nodes = (
(314,1490,l),
(226,786,l),
(300,774,l),
(290,820,l),
(280,826,l),
(354,1442,l),
(978,1442,l),
(978,1490,l)
);
},
{
closed = 1;
nodes = (
(369,844,o),
(466,893,o),
(582,894,cs),
(796,893,o),
(980,727,o),
(980,462,cs),
(980,214,o),
(820,26,o),
(584,26,cs),
(379,26,o),
(239,169,o),
(238,372,c),
(192,372,l),
(192,143,o),
(353,-20,o),
(584,-20,cs),
(842,-20,o),
(1027,187,o),
(1026,462,cs),
(1027,749,o),
(822,940,o),
(582,940,cs),
(452,940,o),
(341,884,o),
(264,806,c),
(300,774,l)
);
}
);
width = 1170;
},
{
layerId = m011;
shapes = (
{
closed = 1;
nodes = (
(758,-20,o),
(942,186,o),
(942,462,cs),
(942,740,o),
(763,940,o),
(514,940,cs),
(374,940,o),
(263,893,o),
(191,804,c),
(189,804,l),
(239,1444,l),
(918,1444,l),
(918,1490,l),
(197,1490,l),
(134,688,l),
(176,688,l),
(216,816,o),
(344,894,o),
(514,894,cs),
(738,894,o),
(896,715,o),
(896,462,cs),
(896,215,o),
(735,26,o),
(500,26,cs),
(292,26,o),
(154,169,o),
(154,372,c),
(108,372,l),
(108,143,o),
(269,-20,o),
(500,-20,cs)
);
}
);
width = 1026;
},
{
associatedMasterId = m011;
background = {
shapes = (
{
ref = three;
}
);
};
layerId = "3EE6335A-6BD8-4B9A-9F74-40A6D6F504A9";
name = "Dec 27 18, 11:55";
shapes = (
{
closed = 0;
nodes = (
(206,318,l),
(220,136,o),
(378,4,o),
(582,2,c),
(816,4,o),
(987,179,o),
(986,416,c),
(987,659,o),
(817,837,o),
(584,838,c),
(489,838,o),
(388,804,o),
(326,756,c),
(238,768,l),
(308,1466,l),
(1006,1466,l)
);
}
);
width = 1170;
},
{
associatedMasterId = m011;
background = {
shapes = (
{
ref = three;
}
);
};
layerId = "4FEEB8DA-3031-43C2-95D2-1696C24B9D43";
name = "Dec 27 18, 11:59";
shapes = (
{
closed = 1;
nodes = (
(296,1490,l),
(210,748,l),
(322,734,l),
(328,780,l),
(262,788,l),
(338,1442,l),
(1006,1442,l),
(1006,1490,l)
);
},
{
closed = 0;
nodes = (
(216,372,l),
(215,186,o),
(367,3,o),
(584,2,cs),
(812,3,o),
(1004,200,o),
(1004,446,cs),
(1004,689,o),
(816,887,o),
(582,888,cs),
(465,887,o),
(360,839,o),
(282,760,c)
);
}
);
width = 1170;
},
{
associatedMasterId = m011;
background = {
shapes = (
{
ref = three;
}
);
};
guides = (
{
angle = 90;
pos = (1344,1656);
}
);
layerId = "94A638BC-D1D8-45B3-A7B4-DAB5BAB5153F";
name = "Dec 27 18, 12:06";
shapes = (
{
closed = 1;
nodes = (
(314,1490,l),
(226,786,l),
(300,774,l),
(290,820,l),
(280,826,l),
(354,1442,l),
(978,1442,l),
(978,1490,l)
);
},
{
closed = 1;
nodes = (
(369,844,o),
(466,893,o),
(582,894,cs),
(796,893,o),
(980,727,o),
(980,462,cs),
(980,214,o),
(820,26,o),
(584,26,cs),
(379,26,o),
(239,169,o),
(238,372,c),
(192,372,l),
(192,143,o),
(353,-20,o),
(584,-20,cs),
(842,-20,o),
(1027,187,o),
(1026,462,cs),
(1027,749,o),
(822,940,o),
(582,940,cs),
(452,940,o),
(341,884,o),
(264,806,c),
(300,774,l)
);
}
);
width = 1170;
},
{
background = {
shapes = (
{
ref = three;
}
);
};
guides = (
{
angle = 90;
pos = (1436,1656);
}
);
layerId = "C698F293-3EC0-4A5A-A3A0-0FDB1F5CF265";
shapes = (
{
closed = 1;
nodes = (
(913,-20,o),
(1123,190,o),
(1123,476,cs),
(1123,764,o),
(922,975,o),
(649,975,cs),
(546,975,o),
(447,939,o),
(386,888,c),
(378,888,l),
(429,1323,l),
(1053,1323,l),
(1053,1490,l),
(269,1490,l),
(181,752,l),
(359,730,l),
(418,775,o),
(522,808,o),
(614,808,cs),
(801,808,o),
(937,665,o),
(937,473,cs),
(937,284,o),
(806,147,o),
(626,147,cs),
(476,147,o),
(354,243,o),
(342,376,c),
(158,376,l),
(168,148,o),
(364,-20,o),
(626,-20,cs)
);
}
);
width = 1245;
},
{
background = {
shapes = (
{
pos = (-20,0);
ref = six;
}
);
};
layerId = m007;
shapes = (
{
closed = 1;
nodes = (
(891,-20,o),
(1091,190,o),
(1091,490,cs),
(1091,785,o),
(902,996,o),
(628,996,cs),
(488,996,o),
(372,948,o),
(278,847,c),
(276,847,l),
(312,1330,l),
(1009,1330,l),
(1009,1490,l),
(149,1490,l),
(99,640,l),
(272,640,l),
(318,767,o),
(442,834,o),
(606,834,cs),
(791,834,o),
(917,689,o),
(917,488,cs),
(917,286,o),
(786,140,o),
(593,140,cs),
(411,140,o),
(276,263,o),
(260,432,c),
(80,432,l),
(91,174,o),
(306,-20,o),
(593,-20,cs)
);
}
);
width = 1181;
},
{
associatedMasterId = m007;
background = {
shapes = (
{
ref = six;
}
);
};
layerId = "D9785A56-1BC0-4F0E-B604-1F63AE52FD82";
name = "Jun 6, 22, 16:14";
shapes = (
{
closed = 1;
nodes = (
(919,-20,o),
(1127,190,o),
(1127,490,cs),
(1127,785,o),
(930,996,o),
(656,996,cs),
(516,996,o),
(392,948,o),
(298,847,c),
(296,847,l),
(332,1330,l),
(1037,1330,l),
(1037,1490,l),
(169,1490,l),
(119,640,l),
(292,640,l),
(338,767,o),
(470,834,o),
(634,834,cs),
(819,834,o),
(953,689,o),
(953,488,cs),
(953,286,o),
(814,140,o),
(621,140,cs),
(439,140,o),
(296,263,o),
(280,432,c),
(100,432,l),
(111,174,o),
(334,-20,o),
(621,-20,cs)
);
}
);
width = 1217;
},
{
associatedMasterId = m007;
guides = (
{
angle = 90;
pos = (1144,1656);
}
);
layerId = "E89F2BC9-65FC-45C4-8100-B671C8B1D31A";
name = "Jun 6, 22, 15:55";
shapes = (
{
closed = 1;
nodes = (
(876,-20,o),
(1080,185,o),
(1080,474,cs),
(1080,762,o),
(879,974,o),
(606,974,cs),
(495,974,o),
(401,939,o),
(340,890,c),
(338,890,l),
(390,1330,l),
(1012,1330,l),
(1012,1490,l),
(238,1490,l),
(145,736,l),
(318,736,l),
(379,780,o),
(487,812,o),
(576,812,cs),
(766,812,o),
(904,669,o),
(904,472,cs),
(904,279,o),
(771,140,o),
(588,140,cs),
(434,140,o),
(313,237,o),
(300,372,c),
(126,372,l),
(136,145,o),
(331,-20,o),
(588,-20,cs)
);
}
);
width = 1182;
},
{
background = {
shapes = (
{
pos = (28,0);
ref = three;
}
);
};
guides = (
{
pos = (-52,2280);
},
{
pos = (-52,2396);
}
);
layerId = "5C20EF92-B63D-42A8-8878-93C2863E0093";
shapes = (
{
closed = 1;
nodes = (
(1058,-20,o),
(1294,200,o),
(1294,512,cs),
(1294,795,o),
(1097,994,o),
(832,994,cs),
(681,994,o),
(559,928,o),
(512,838,c),
(504,838,l),
(532,1166,l),
(1202,1166,l),
(1202,1490,l),
(200,1490,l),
(142,670,l),
(498,600,l),
(532,672,o),
(609,716,o),
(696,716,cs),
(819,716,o),
(904,631,o),
(904,500,cs),
(904,370,o),
(819,286,o),
(696,286,cs),
(588,286,o),
(498,351,o),
(498,454,c),
(104,454,l),
(107,176,o),
(352,-20,o),
(696,-20,cs)
);
}
);
width = 1384;
},
{
guides = (
{
pos = (-201,2280);
},
{
pos = (-201,2396);
},
{
angle = 90;
pos = (115,0);
}
);
layerId = m009;
shapes = (
{
closed = 1;
nodes = (
(989,-24,o),
(1225,200,o),
(1225,512,cs),
(1225,795,o),
(975,1017,o),
(710,1017,cs),
(600,1017,o),
(507,985,o),
(446,925,c),
(444,925,l),
(463,1166,l),
(1133,1166,l),
(1133,1490,l),
(99,1490,l),
(57,600,l),
(429,600,l),
(452,674,o),
(527,724,o),
(630,724,cs),
(750,724,o),
(835,631,o),
(835,500,cs),
(835,370,o),
(752,282,o),
(630,282,cs),
(510,282,o),
(420,366,o),
(420,480,c),
(35,480,l),
(55,166,o),
(283,-24,o),
(627,-24,cs)
);
}
);
width = 1265;
},
{
associatedMasterId = m009;
guides = (
{
pos = (-148,2280);
},
{
pos = (-148,2396);
},
{
angle = 90;
pos = (168,0);
}
);
layerId = "CFB47429-ABF1-4DBD-A441-26BAF2E777A2";
name = "Jun 6, 22, 15:17";
shapes = (
{
closed = 1;
nodes = (
(1042,-24,o),
(1278,200,o),
(1278,512,cs),
(1278,795,o),
(1081,994,o),
(816,994,cs),
(665,994,o),
(537,930,o),
(490,838,c),
(488,838,l),
(516,1166,l),
(1186,1166,l),
(1186,1490,l),
(184,1490,l),
(126,670,l),
(482,600,l),
(516,672,o),
(593,716,o),
(680,716,cs),
(803,716,o),
(888,631,o),
(888,500,cs),
(888,370,o),
(803,282,o),
(680,282,cs),
(572,282,o),
(482,351,o),
(482,454,c),
(88,454,l),
(91,176,o),
(336,-24,o),
(680,-24,cs)
);
}
);
width = 1338;
}
);
metricRight = zero;
unicode = 53;
}
{
glyphname = six;
kernLeft = six;
layers = (
{
anchors = (
{
name = _center;
pos = (578,745);
}
);
layerId = "B1F27B51-9973-4381-9301-4FE46FE1CA59";
shapes = (
{
closed = 1;
nodes = (
(840,-20,o),
(1009,198,o),
(1008,446,cs),
(1009,710,o),
(815,911,o),
(582,910,cs),
(409,911,o),
(247,803,o),
(200,654,c),
(194,654,l),
(194,1177,o),
(333,1463,o),
(604,1464,cs),
(800,1463,o),
(922,1321,o),
(936,1118,c),
(982,1118,l),
(968,1350,o),
(826,1510,o),
(604,1510,cs),
(246,1510,o),
(148,1076,o),
(148,674,cs),
(148,207,o),
(337,-20,o),
(590,-20,cs)
);
},
{
closed = 1;
nodes = (
(406,26,o),
(267,163,o),
(218,424,cs),
(174,658,o),
(351,864,o),
(578,864,cs),
(794,864,o),
(962,681,o),
(962,446,cs),
(962,215,o),
(805,26,o),
(590,26,cs)
);
}
);
width = 1156;
},
{
associatedMasterId = "B1F27B51-9973-4381-9301-4FE46FE1CA59";
background = {
shapes = (
{
closed = 1;
nodes = (
(823,745,o),
(1007,911,o),
(1006,1118,cs),
(1007,1323,o),
(823,1489,o),
(596,1490,cs),
(370,1489,o),
(186,1323,o),
(186,1118,cs),
(186,911,o),
(370,745,o),
(596,744,cs)
);
},
{
closed = 1;
nodes = (
(821,3,o),
(1004,201,o),
(1004,446,cs),
(1004,689,o),
(821,887,o),
(596,888,cs),
(372,887,o),
(189,689,o),
(190,446,cs),
(189,201,o),
(372,3,o),
(596,2,cs)
);
}
);
};
layerId = "9E406D40-9CB5-4845-B6DF-1B5201BAD6B0";
name = "Dec 27 18, 12:24";
shapes = (
{
closed = 0;
nodes = (
(190,446,l),
(189,690,o),
(372,887,o),
(596,888,cs),
(820,887,o),
(1004,689,o),
(1004,446,cs),
(1004,201,o),
(822,3,o),
(608,2,cs),
(391,3,o),
(189,182,o),
(190,674,cs),
(189,1326,o),
(402,1489,o),
(628,1490,cs),
(855,1489,o),
(1007,1324,o),
(1006,1118,c)
);
}
);
width = 1202;
},
{
associatedMasterId = "B1F27B51-9973-4381-9301-4FE46FE1CA59";
layerId = "0A5B7C9A-23F7-43E2-98D1-18F90204FF01";
name = "Dec 27 18, 12:33";
shapes = (
{
closed = 1;
nodes = (
(987,1349,o),
(844,1513,o),
(622,1512,cs),
(260,1513,o),
(166,1076,o),
(166,674,cs),
(166,206,o),
(354,-20,o),
(608,-20,cs),
(857,-20,o),
(1027,197,o),
(1026,446,cs),
(1027,708,o),
(836,911,o),
(596,910,cs),
(343,911,o),
(155,684,o),
(190,416,c),
(236,416,l),
(201,658,o),
(369,864,o),
(596,864,cs),
(812,864,o),
(980,681,o),
(980,446,cs),
(980,215,o),
(823,26,o),
(608,26,cs),
(368,26,o),
(212,255,o),
(212,674,cs),
(212,1025,o),
(284,1466,o),
(622,1466,cs),
(817,1466,o),
(940,1321,o),
(954,1118,c),
(1000,1118,l)
);
},
{
closed = 1;
nodes = (
(200,620,l),
(230,620,l),
(230,652,l),
(200,652,l)
);
}
);
width = 1202;
},
{
anchors = (
{
name = _center;
pos = (514,745);
}
);
layerId = m011;
shapes = (
{
closed = 1;
nodes = (
(776,-20,o),
(945,198,o),
(944,446,cs),
(945,710,o),
(751,911,o),
(518,910,cs),
(345,911,o),
(183,803,o),
(136,654,c),
(130,654,l),
(130,1177,o),
(269,1463,o),
(540,1464,cs),
(736,1463,o),
(858,1321,o),
(872,1118,c),
(918,1118,l),
(904,1350,o),
(762,1510,o),
(540,1510,cs),
(182,1510,o),
(84,1076,o),
(84,674,cs),
(84,207,o),
(273,-20,o),
(526,-20,cs)
);
},
{
closed = 1;
nodes = (
(342,26,o),
(203,163,o),
(154,424,cs),
(110,658,o),
(287,864,o),
(514,864,cs),
(730,864,o),
(898,681,o),
(898,446,cs),
(898,215,o),
(741,26,o),
(526,26,cs)
);
}
);
width = 1028;
},
{
associatedMasterId = m011;
background = {
shapes = (
{
closed = 1;
nodes = (
(823,745,o),
(1007,911,o),
(1006,1118,cs),
(1007,1323,o),
(823,1489,o),
(596,1490,cs),
(370,1489,o),
(186,1323,o),
(186,1118,cs),
(186,911,o),
(370,745,o),
(596,744,cs)
);
},
{
closed = 1;
nodes = (
(821,3,o),
(1004,201,o),
(1004,446,cs),
(1004,689,o),
(821,887,o),
(596,888,cs),
(372,887,o),
(189,689,o),
(190,446,cs),
(189,201,o),
(372,3,o),
(596,2,cs)
);
}
);
};
layerId = "08DF6446-939B-40C8-8D74-85CE23B0C464";
name = "Dec 27 18, 12:24";
shapes = (
{
closed = 0;
nodes = (
(190,446,l),
(189,690,o),
(372,887,o),
(596,888,cs),
(820,887,o),
(1004,689,o),
(1004,446,cs),
(1004,201,o),
(822,3,o),
(608,2,cs),
(391,3,o),
(189,182,o),
(190,674,cs),
(189,1326,o),
(402,1489,o),
(628,1490,cs),
(855,1489,o),
(1007,1324,o),
(1006,1118,c)
);
}
);
width = 1202;
},
{
associatedMasterId = m011;
layerId = "71F80546-750D-40FD-977B-593D0B152CA4";
name = "Dec 27 18, 12:33";
shapes = (
{
closed = 1;
nodes = (
(987,1349,o),
(844,1513,o),
(622,1512,cs),
(260,1513,o),
(166,1076,o),
(166,674,cs),
(166,206,o),
(354,-20,o),
(608,-20,cs),
(857,-20,o),
(1027,197,o),
(1026,446,cs),
(1027,708,o),
(836,911,o),
(596,910,cs),
(343,911,o),
(155,684,o),
(190,416,c),
(236,416,l),
(201,658,o),
(369,864,o),
(596,864,cs),
(812,864,o),
(980,681,o),
(980,446,cs),
(980,215,o),
(823,26,o),
(608,26,cs),
(368,26,o),
(212,255,o),
(212,674,cs),
(212,1025,o),
(284,1466,o),
(622,1466,cs),
(817,1466,o),
(940,1321,o),
(954,1118,c),
(1000,1118,l)
);
},
{
closed = 1;
nodes = (
(200,620,l),
(230,620,l),
(230,652,l),
(200,652,l)
);
}
);
width = 1202;
},
{
anchors = (
{
name = _center;
pos = (630,745);
}
);
layerId = "C698F293-3EC0-4A5A-A3A0-0FDB1F5CF265";
shapes = (
{
closed = 1;
nodes = (
(942,-20,o),
(1138,203,o),
(1138,480,cs),
(1138,768,o),
(925,974,o),
(670,974,cs),
(516,974,o),
(385,900,o),
(304,776,c),
(292,776,l),
(292,1140,o),
(433,1350,o),
(664,1350,cs),
(821,1350,o),
(916,1251,o),
(950,1118,c),
(1126,1118,l),
(1090,1348,o),
(914,1510,o),
(664,1510,cs),
(329,1510,o),
(122,1213,o),
(122,686,cs),
(122,136,o),
(396,-20,o),
(640,-20,cs)
);
},
{
closed = 1;
nodes = (
(454,140,o),
(318,299,o),
(318,478,cs),
(318,655,o),
(462,814,o),
(646,814,cs),
(829,814,o),
(964,665,o),
(964,480,cs),
(964,291,o),
(823,140,o),
(640,140,cs)
);
}
);
width = 1260;
},
{
anchors = (
{
name = _center;
pos = (598,745);
}
);
layerId = m007;
shapes = (
{
closed = 1;
nodes = (
(901,-24,o),
(1106,182,o),
(1106,476,cs),
(1106,759,o),
(907,970,o),
(638,970,cs),
(478,970,o),
(332,895,o),
(264,780,c),
(262,780,l),
(262,1113,o),
(385,1354,o),
(643,1354,cs),
(794,1354,o),
(890,1262,o),
(918,1118,c),
(1094,1118,l),
(1066,1355,o),
(891,1514,o),
(632,1514,cs),
(258,1514,o),
(90,1183,o),
(90,682,cs),
(90,232,o),
(278,-24,o),
(608,-24,cs)
);
},
{
closed = 1;
nodes = (
(430,136,o),
(286,287,o),
(286,474,cs),
(286,660,o),
(433,810,o),
(614,810,cs),
(793,810,o),
(932,664,o),
(932,476,cs),
(932,287,o),
(788,136,o),
(608,136,cs)
);
}
);
width = 1196;
},
{
anchors = (
{
name = _center;
pos = (711,745);
}
);
background = {
shapes = (
{
pos = (58,0);
ref = five;
}
);
};
layerId = "5C20EF92-B63D-42A8-8878-93C2863E0093";
shapes = (
{
closed = 1;
nodes = (
(1087,-20,o),
(1332,191,o),
(1332,512,cs),
(1332,785,o),
(1151,984,o),
(880,984,cs),
(711,984,o),
(557,902,o),
(500,766,c),
(492,766,l),
(492,1006,o),
(568,1166,o),
(738,1166,cs),
(823,1166,o),
(898,1129,o),
(916,1044,c),
(1314,1044,l),
(1289,1299,o),
(1067,1510,o),
(738,1510,cs),
(348,1510,o),
(90,1210,o),
(90,728,cs),
(90,186,o),
(388,-20,o),
(736,-20,cs)
);
},
{
closed = 1;
nodes = (
(615,286,o),
(526,375,o),
(526,498,cs),
(526,620,o),
(615,710,o),
(732,710,cs),
(853,710,o),
(940,620,o),
(940,498,cs),
(940,375,o),
(853,286,o),
(732,286,cs)
);
}
);
width = 1422;
},
{
anchors = (
{
name = _center;
pos = (661,745);
}
);
layerId = m009;
shapes = (
{
closed = 1;
nodes = (
(1034,-24,o),
(1282,186,o),
(1282,498,cs),
(1282,789,o),
(1062,1000,o),
(758,1000,cs),
(609,1000,o),
(498,950,o),
(420,838,c),
(418,838,l),
(418,1069,o),
(498,1210,o),
(673,1210,cs),
(786,1210,o),
(863,1150,o),
(880,1056,c),
(1262,1056,l),
(1237,1311,o),
(1017,1514,o),
(688,1514,cs),
(282,1514,o),
(40,1210,o),
(40,728,cs),
(40,254,o),
(279,-24,o),
(686,-24,cs)
);
},
{
closed = 1;
nodes = (
(563,278,o),
(476,370,o),
(476,498,cs),
(476,626,o),
(563,718,o),
(682,718,cs),
(803,718,o),
(890,626,o),
(890,498,cs),
(890,370,o),
(803,278,o),
(682,278,cs)
);
}
);
width = 1322;
},
{
associatedMasterId = m009;
layerId = "1FC71CD3-82C3-48C2-875C-ABE048D183C9";
name = "Jun 6, 22, 15:08";
shapes = (
{
closed = 1;
nodes = (
(1054,-24,o),
(1302,186,o),
(1302,498,cs),
(1302,789,o),
(1082,1000,o),
(778,1000,cs),
(629,1000,o),
(518,950,o),
(440,838,c),
(438,838,l),
(438,1064,o),
(527,1202,o),
(684,1202,cs),
(788,1202,o),
(865,1142,o),
(886,1044,c),
(1284,1044,l),
(1259,1299,o),
(1037,1514,o),
(708,1514,cs),
(302,1514,o),
(60,1210,o),
(60,728,cs),
(60,254,o),
(299,-24,o),
(706,-24,cs)
);
},
{
closed = 1;
nodes = (
(583,278,o),
(496,370,o),
(496,498,cs),
(496,626,o),
(583,718,o),
(702,718,cs),
(823,718,o),
(910,626,o),
(910,498,cs),
(910,370,o),
(823,278,o),
(702,278,cs)
);
}
);
width = 1370;
},
{
associatedMasterId = m009;
layerId = "85E0F1C1-8143-495F-B065-27BFC8242DB8";
name = "Jun 6, 22, 15:01";
shapes = (
{
closed = 1;
nodes = (
(1057,-24,o),
(1302,191,o),
(1302,512,cs),
(1302,785,o),
(1121,984,o),
(850,984,cs),
(681,984,o),
(522,902,o),
(465,766,c),
(462,766,l),
(462,1006,o),
(538,1170,o),
(708,1170,cs),
(793,1170,o),
(868,1129,o),
(886,1044,c),
(1284,1044,l),
(1259,1299,o),
(1037,1514,o),
(708,1514,cs),
(318,1514,o),
(60,1210,o),
(60,728,cs),
(60,186,o),
(358,-24,o),
(706,-24,cs)
);
},
{
closed = 1;
nodes = (
(583,286,o),
(496,376,o),
(496,498,cs),
(496,620,o),
(583,710,o),
(702,710,cs),
(822,710,o),
(910,621,o),
(910,498,cs),
(910,376,o),
(821,286,o),
(702,286,cs)
);
}
);
width = 1370;
}
);
metricLeft = zero;
metricRight = zero;
tags = (
"TODO-opsz"
);
unicode = 54;
}
{
glyphname = seven;
kernLeft = seven;
kernRight = seven;
layers = (
{
layerId = "C698F293-3EC0-4A5A-A3A0-0FDB1F5CF265";
shapes = (
{
closed = 1;
nodes = (
(390,0,l),
(1054,1320,l),
(1054,1490,l),
(98,1490,l),
(98,1330,l),
(866,1330,l),
(866,1318,l),
(200,0,l)
);
}
);
width = 1152;
},
{
background = {
shapes = (
{
closed = 1;
nodes = (
(358,0,l),
(1022,1320,l),
(1022,1490,l),
(66,1490,l),
(66,1330,l),
(834,1330,l),
(834,1318,l),
(168,0,l)
);
}
);
};
layerId = "5C20EF92-B63D-42A8-8878-93C2863E0093";
shapes = (
{
closed = 1;
nodes = (
(582,0,l),
(1170,1166,l),
(1170,1490,l),
(64,1490,l),
(64,1166,l),
(750,1166,l),
(750,1158,l),
(166,0,l)
);
}
);
width = 1226;
},
{
layerId = "B1F27B51-9973-4381-9301-4FE46FE1CA59";
shapes = (
{
closed = 1;
nodes = (
(276,0,l),
(984,1442,l),
(984,1490,l),
(120,1490,l),
(120,1444,l),
(931,1444,l),
(931,1438,l),
(227,0,l)
);
}
);
width = 1112;
},
{
background = {
shapes = (
{
closed = 1;
nodes = (
(324,0,l),
(988,1320,l),
(988,1490,l),
(32,1490,l),
(32,1330,l),
(800,1330,l),
(800,1318,l),
(134,0,l)
);
}
);
};
layerId = m007;
shapes = (
{
closed = 1;
nodes = (
(324,0,l),
(988,1320,l),
(988,1490,l),
(32,1490,l),
(32,1330,l),
(807,1330,l),
(807,1329,l),
(135,0,l)
);
}
);
width = 1038;
},
{
layerId = m009;
shapes = (
{
closed = 1;
nodes = (
(566,0,l),
(1154,1166,l),
(1154,1490,l),
(48,1490,l),
(48,1152,l),
(734,1152,l),
(734,1150,l),
(150,0,l)
);
}
);
width = 1194;
},
{
layerId = m011;
shapes = (
{
closed = 1;
nodes = (
(212,0,l),
(920,1442,l),
(920,1490,l),
(56,1490,l),
(56,1444,l),
(868,1444,l),
(868,1440,l),
(161,0,l)
);
}
);
width = 980;
}
);
metricRight = "=|T";
unicode = 55;
}
{
glyphname = eight;
kernLeft = eight;
kernRight = eight;
layers = (
{
anchors = (
{
name = _center;
pos = (628,745);
}
);
layerId = "C698F293-3EC0-4A5A-A3A0-0FDB1F5CF265";
shapes = (
{
closed = 1;
nodes = (
(925,-20,o),
(1134,153,o),
(1134,396,cs),
(1134,584,o),
(1006,744,o),
(846,774,c),
(846,782,l),
(985,819,o),
(1078,956,o),
(1078,1114,cs),
(1078,1341,o),
(886,1510,o),
(628,1510,cs),
(365,1510,o),
(176,1341,o),
(176,1114,cs),
(176,956,o),
(267,819,o),
(410,782,c),
(410,774,l),
(245,744,o),
(122,584,o),
(122,396,cs),
(122,153,o),
(327,-20,o),
(628,-20,cs)
);
},
{
closed = 1;
nodes = (
(423,140,o),
(298,244,o),
(298,404,cs),
(298,572,o),
(436,692,o),
(628,692,cs),
(816,692,o),
(956,572,o),
(956,404,cs),
(956,244,o),
(829,140,o),
(628,140,cs)
);
},
{
closed = 1;
nodes = (
(464,846,o),
(350,948,o),
(350,1102,cs),
(350,1254,o),
(460,1352,o),
(628,1352,cs),
(792,1352,o),
(904,1254,o),
(904,1102,cs),
(904,948,o),
(787,846,o),
(628,846,cs)
);
}
);
width = 1256;
},
{
anchors = (
{
name = _center;
pos = (715,745);
}
);
guides = (
{
pos = (-16,1480);
},
{
pos = (-16,2076);
}
);
layerId = "5C20EF92-B63D-42A8-8878-93C2863E0093";
shapes = (
{
closed = 1;
nodes = (
(1076,-20,o),
(1340,163,o),
(1340,404,cs),
(1340,588,o),
(1185,736,o),
(994,766,c),
(994,776,l),
(1161,806,o),
(1286,939,o),
(1286,1106,cs),
(1286,1338,o),
(1044,1510,o),
(714,1510,cs),
(386,1510,o),
(144,1339,o),
(144,1106,cs),
(144,940,o),
(266,806,o),
(436,776,c),
(436,766,l),
(241,736,o),
(90,588,o),
(90,404,cs),
(90,163,o),
(354,-20,o),
(714,-20,cs)
);
},
{
closed = 1;
nodes = (
(601,258,o),
(518,336,o),
(518,440,cs),
(518,543,o),
(601,616,o),
(714,616,cs),
(829,616,o),
(912,542,o),
(912,440,cs),
(912,335,o),
(829,258,o),
(714,258,cs)
);
},
{
closed = 1;
nodes = (
(614,896,o),
(540,966,o),
(540,1058,cs),
(540,1152,o),
(614,1218,o),
(714,1218,cs),
(816,1218,o),
(890,1151,o),
(890,1058,cs),
(890,965,o),
(816,896,o),
(714,896,cs)
);
}
);
width = 1430;
},
{
associatedMasterId = "5C20EF92-B63D-42A8-8878-93C2863E0093";
background = {
shapes = (
{
closed = 1;
nodes = (
(73,166,o),
(329,-20,o),
(692,-20,cs),
(698,-20,l),
(704,-20,ls),
(1068,-20,o),
(1324,166,o),
(1324,428,cs),
(1324,611,o),
(1201,739,o),
(962,766,c),
(962,776,l),
(1129,794,o),
(1251,896,o),
(1266,1044,c),
(1268,1044,l),
(1268,1062,l),
(1268,1076,ls),
(1268,1327,o),
(1036,1510,o),
(706,1510,cs),
(698,1510,l),
(690,1510,ls),
(361,1510,o),
(128,1327,o),
(128,1076,cs),
(128,1062,l),
(128,1044,l),
(130,1044,l),
(145,896,o),
(268,794,o),
(434,776,c),
(434,766,l),
(195,739,o),
(73,611,o),
(72,428,cs)
);
},
{
closed = 1;
nodes = (
(500,547,o),
(582,608,o),
(698,616,c),
(815,608,o),
(896,547,o),
(896,462,cs),
(896,454,l),
(890,454,l),
(890,369,o),
(812,308,o),
(698,306,c),
(585,308,o),
(506,369,o),
(506,454,c),
(500,454,l),
(500,462,ls)
);
},
{
closed = 1;
nodes = (
(518,1071,o),
(521,1088,o),
(530,1106,cs),
(556,1161,o),
(617,1196,o),
(698,1198,c),
(780,1196,o),
(841,1161,o),
(866,1106,cs),
(876,1088,o),
(879,1071,o),
(878,1050,cs),
(879,966,o),
(806,905,o),
(698,896,c),
(591,905,o),
(518,966,o),
(518,1050,cs)
);
}
);
};
guides = (
{
pos = (-36,1480);
},
{
pos = (-36,1060);
},
{
pos = (196,588);
},
{
pos = (-36,2076);
},
{
orientation = center;
angle = 90;
pos = (996,508);
}
);
layerId = "0529D95E-C2D1-421A-B897-35690538E92C";
name = "Sep 20 18, 18:25";
shapes = (
{
closed = 1;
nodes = (
(1059,-20,o),
(1324,157,o),
(1324,398,cs),
(1324,646,o),
(1116,800,o),
(698,800,cs),
(280,800,o),
(73,646,o),
(72,398,cs),
(73,157,o),
(337,-20,o),
(698,-20,cs)
);
},
{
closed = 1;
nodes = (
(584,259,o),
(500,335,o),
(500,440,cs),
(500,542,o),
(584,617,o),
(698,616,cs),
(812,617,o),
(896,542,o),
(896,440,cs),
(896,335,o),
(812,259,o),
(698,258,cs)
);
},
{
closed = 1;
nodes = (
(597,896,o),
(524,965,o),
(524,1058,cs),
(524,1151,o),
(597,1219,o),
(698,1218,cs),
(799,1219,o),
(873,1151,o),
(872,1058,cs),
(873,965,o),
(799,896,o),
(698,896,cs)
);
},
{
closed = 1;
nodes = (
(1100,736,o),
(1268,880,o),
(1268,1076,cs),
(1268,1324,o),
(1041,1510,o),
(698,1510,cs),
(355,1510,o),
(128,1324,o),
(128,1076,cs),
(128,880,o),
(297,736,o),
(698,736,cs)
);
}
);
width = 1396;
},
{
associatedMasterId = "C698F293-3EC0-4A5A-A3A0-0FDB1F5CF265";
guides = (
{
orientation = center;
angle = 90;
pos = (912,568);
}
);
layerId = "55E72F0F-9EC8-457B-96D9-84C2391F29D1";
name = "Sep 20 18, 18:59";
shapes = (
{
closed = 1;
nodes = (
(915,-20,o),
(1129,156,o),
(1128,396,cs),
(1129,637,o),
(915,815,o),
(622,814,cs),
(330,815,o),
(116,637,o),
(116,396,cs),
(116,156,o),
(330,-20,o),
(622,-20,cs)
);
},
{
closed = 1;
nodes = (
(431,140,o),
(294,248,o),
(294,402,cs),
(294,572,o),
(433,692,o),
(622,692,cs),
(812,692,o),
(951,572,o),
(952,402,cs),
(951,248,o),
(815,140,o),
(622,140,cs)
);
},
{
closed = 1;
nodes = (
(883,739,o),
(1073,879,o),
(1074,1108,cs),
(1073,1340,o),
(883,1510,o),
(622,1510,cs),
(362,1510,o),
(172,1340,o),
(172,1108,cs),
(172,879,o),
(362,739,o),
(622,738,cs)
);
},
{
closed = 1;
nodes = (
(463,858,o),
(346,963,o),
(346,1106,cs),
(346,1248,o),
(463,1353,o),
(622,1352,cs),
(782,1353,o),
(899,1248,o),
(898,1106,cs),
(899,963,o),
(782,858,o),
(622,858,cs)
);
}
);
width = 1246;
},
{
anchors = (
{
name = _center;
pos = (611,745);
}
);
layerId = "B1F27B51-9973-4381-9301-4FE46FE1CA59";
shapes = (
{
closed = 1;
nodes = (
(867,-20,o),
(1073,160,o),
(1074,384,cs),
(1073,561,o),
(942,728,o),
(760,768,c),
(760,774,l),
(916,826,o),
(1024,969,o),
(1024,1132,cs),
(1024,1345,o),
(836,1510,o),
(610,1510,cs),
(382,1510,o),
(198,1343,o),
(198,1132,cs),
(198,968,o),
(308,827,o),
(462,774,c),
(462,768,l),
(279,726,o),
(148,561,o),
(148,384,cs),
(148,160,o),
(355,-20,o),
(610,-20,cs)
);
},
{
closed = 1;
nodes = (
(379,26,o),
(195,189,o),
(194,386,cs),
(195,585,o),
(378,748,o),
(610,748,cs),
(843,748,o),
(1027,585,o),
(1026,386,cs),
(1027,189,o),
(843,26,o),
(610,26,cs)
);
},
{
closed = 1;
nodes = (
(409,788,o),
(244,946,o),
(244,1132,cs),
(244,1318,o),
(409,1463,o),
(610,1464,cs),
(812,1463,o),
(977,1318,o),
(978,1132,cs),
(977,946,o),
(812,788,o),
(610,788,cs)
);
}
);
width = 1222;
},
{
associatedMasterId = "B1F27B51-9973-4381-9301-4FE46FE1CA59";
background = {
shapes = (
{
closed = 1;
nodes = (
(891,-20,o),
(1097,153,o),
(1100,396,cs),
(1101,583,o),
(972,743,o),
(812,774,c),
(812,782,l),
(951,818,o),
(1043,955,o),
(1044,1114,cs),
(1047,1340,o),
(852,1509,o),
(594,1510,cs),
(332,1511,o),
(142,1340,o),
(142,1114,cs),
(143,955,o),
(233,818,o),
(376,782,c),
(376,774,l),
(212,743,o),
(86,583,o),
(88,396,cs),
(89,153,o),
(293,-21,o),
(594,-20,cs)
);
},
{
closed = 1;
nodes = (
(389,140,o),
(263,244,o),
(264,404,cs),
(266,572,o),
(402,692,o),
(594,692,cs),
(782,693,o),
(921,572,o),
(922,404,cs),
(924,244,o),
(795,139,o),
(594,140,cs)
);
},
{
closed = 1;
nodes = (
(431,847,o),
(316,948,o),
(318,1102,cs),
(319,1253,o),
(426,1352,o),
(594,1352,cs),
(758,1353,o),
(868,1253,o),
(870,1102,cs),
(871,948,o),
(753,846,o),
(594,846,cs)
);
},
{
closed = 1;
nodes = (
(809,769,o),
(983,928,o),
(984,1128,cs),
(983,1325,o),
(809,1486,o),
(594,1486,cs),
(378,1487,o),
(204,1325,o),
(204,1128,cs),
(204,928,o),
(378,767,o),
(594,768,cs)
);
},
{
closed = 1;
nodes = (
(836,4,o),
(1033,174,o),
(1032,386,cs),
(1033,596,o),
(836,767,o),
(594,768,cs),
(351,768,o),
(154,596,o),
(154,386,cs),
(154,174,o),
(351,3,o),
(594,2,cs)
);
}
);
};
layerId = "0731E66A-26BA-4BAF-9F98-AF7EB4311F62";
name = "Dec 27 18, 13:07";
shapes = (
{
closed = 1;
nodes = (
(809,772,o),
(983,931,o),
(984,1132,cs),
(983,1326,o),
(809,1486,o),
(594,1486,cs),
(378,1487,o),
(204,1326,o),
(204,1132,cs),
(204,931,o),
(378,771,o),
(594,770,cs)
);
},
{
closed = 1;
nodes = (
(836,4,o),
(1033,173,o),
(1032,384,cs),
(1033,593,o),
(836,764,o),
(594,766,cs),
(351,765,o),
(154,593,o),
(154,384,cs),
(154,173,o),
(351,3,o),
(594,2,cs)
);
}
);
width = 1186;
},
{
associatedMasterId = "B1F27B51-9973-4381-9301-4FE46FE1CA59";
background = {
shapes = (
{
closed = 1;
nodes = (
(891,-20,o),
(1097,153,o),
(1100,396,cs),
(1101,583,o),
(972,743,o),
(812,774,c),
(812,782,l),
(951,818,o),
(1043,955,o),
(1044,1114,cs),
(1047,1340,o),
(852,1509,o),
(594,1510,cs),
(332,1511,o),
(142,1340,o),
(142,1114,cs),
(143,955,o),
(233,818,o),
(376,782,c),
(376,774,l),
(212,743,o),
(86,583,o),
(88,396,cs),
(89,153,o),
(293,-21,o),
(594,-20,cs)
);
},
{
closed = 1;
nodes = (
(389,140,o),
(263,244,o),
(264,404,cs),
(266,572,o),
(402,692,o),
(594,692,cs),
(782,693,o),
(921,572,o),
(922,404,cs),
(924,244,o),
(795,139,o),
(594,140,cs)
);
},
{
closed = 1;
nodes = (
(431,847,o),
(316,948,o),
(318,1102,cs),
(319,1253,o),
(426,1352,o),
(594,1352,cs),
(758,1353,o),
(868,1253,o),
(870,1102,cs),
(871,948,o),
(753,846,o),
(594,846,cs)
);
},
{
closed = 1;
nodes = (
(809,769,o),
(983,928,o),
(984,1128,cs),
(983,1325,o),
(809,1486,o),
(594,1486,cs),
(378,1487,o),
(204,1325,o),
(204,1128,cs),
(204,928,o),
(378,767,o),
(594,768,cs)
);
},
{
closed = 1;
nodes = (
(836,4,o),
(1033,174,o),
(1032,386,cs),
(1033,596,o),
(836,767,o),
(594,768,cs),
(351,768,o),
(154,596,o),
(154,386,cs),
(154,174,o),
(351,3,o),
(594,2,cs)
);
}
);
};
layerId = "099996E5-6893-4918-AB65-52D8E36273B3";
name = "Dec 27 18, 13:09";
shapes = (
{
closed = 1;
nodes = (
(823,749,o),
(1007,919,o),
(1006,1132,cs),
(1007,1340,o),
(821,1509,o),
(594,1510,cs),
(367,1511,o),
(180,1340,o),
(180,1132,cs),
(180,919,o),
(364,748,o),
(594,748,cs)
);
},
{
closed = 1;
nodes = (
(399,788,o),
(227,940,o),
(226,1128,cs),
(227,1313,o),
(392,1464,o),
(594,1464,cs),
(796,1463,o),
(960,1312,o),
(960,1128,cs),
(960,941,o),
(789,788,o),
(594,788,cs)
);
},
{
closed = 1;
nodes = (
(850,-19,o),
(1056,161,o),
(1056,384,cs),
(1056,607,o),
(849,787,o),
(594,788,cs),
(339,790,o),
(131,607,o),
(130,384,cs),
(131,160,o),
(337,-20,o),
(594,-20,cs)
);
},
{
closed = 1;
nodes = (
(363,26,o),
(177,188,o),
(178,386,cs),
(177,585,o),
(361,749,o),
(594,748,cs),
(826,746,o),
(1009,585,o),
(1010,386,cs),
(1009,188,o),
(825,28,o),
(594,26,cs)
);
},
{
closed = 1;
nodes = (
(446,762,l),
(738,762,l),
(738,776,l),
(446,776,l)
);
}
);
width = 1186;
},
{
anchors = (
{
name = _center;
pos = (596,745);
}
);
guides = (
{
orientation = center;
angle = 90;
pos = (-5500,568);
}
);
layerId = m007;
shapes = (
{
closed = 1;
nodes = (
(891,-24,o),
(1102,151,o),
(1102,396,cs),
(1102,582,o),
(978,746,o),
(814,777,c),
(814,779,l),
(950,815,o),
(1046,953,o),
(1046,1114,cs),
(1046,1344,o),
(854,1514,o),
(596,1514,cs),
(336,1514,o),
(144,1344,o),
(144,1114,cs),
(144,952,o),
(239,815,o),
(378,779,c),
(378,777,l),
(213,747,o),
(90,584,o),
(90,396,cs),
(90,151,o),
(300,-24,o),
(596,-24,cs)
);
},
{
closed = 1;
nodes = (
(396,136,o),
(266,242,o),
(266,404,cs),
(266,571,o),
(404,692,o),
(596,692,cs),
(787,692,o),
(924,571,o),
(924,404,cs),
(924,241,o),
(795,136,o),
(596,136,cs)
);
},
{
closed = 1;
nodes = (
(431,846,o),
(318,950,o),
(318,1102,cs),
(318,1254,o),
(430,1356,o),
(596,1356,cs),
(761,1356,o),
(872,1254,o),
(872,1102,cs),
(872,949,o),
(760,846,o),
(596,846,cs)
);
}
);
width = 1192;
},
{
associatedMasterId = m007;
guides = (
{
orientation = center;
angle = 90;
pos = (912,568);
}
);
layerId = "D36EF6A0-D795-4734-8DDD-01443E4004B1";
name = "Sep 20 18, 18:59";
shapes = (
{
closed = 1;
nodes = (
(915,-20,o),
(1129,156,o),
(1128,396,cs),
(1129,637,o),
(915,815,o),
(622,814,cs),
(330,815,o),
(116,637,o),
(116,396,cs),
(116,156,o),
(330,-20,o),
(622,-20,cs)
);
},
{
closed = 1;
nodes = (
(431,140,o),
(294,248,o),
(294,402,cs),
(294,572,o),
(433,692,o),
(622,692,cs),
(812,692,o),
(951,572,o),
(952,402,cs),
(951,248,o),
(815,140,o),
(622,140,cs)
);
},
{
closed = 1;
nodes = (
(883,739,o),
(1073,879,o),
(1074,1108,cs),
(1073,1340,o),
(883,1510,o),
(622,1510,cs),
(362,1510,o),
(172,1340,o),
(172,1108,cs),
(172,879,o),
(362,739,o),
(622,738,cs)
);
},
{
closed = 1;
nodes = (
(463,858,o),
(346,963,o),
(346,1106,cs),
(346,1248,o),
(463,1353,o),
(622,1352,cs),
(782,1353,o),
(899,1248,o),
(898,1106,cs),
(899,963,o),
(782,858,o),
(622,858,cs)
);
}
);
width = 1246;
},
{
anchors = (
{
name = _center;
pos = (657,745);
}
);
guides = (
{
pos = (-154,2076);
},
{
orientation = center;
angle = 90;
pos = (-3292,508);
}
);
layerId = m009;
shapes = (
{
closed = 1;
nodes = (
(1029,-24,o),
(1274,146,o),
(1274,404,cs),
(1274,593,o),
(1140,738,o),
(936,770,c),
(936,772,l),
(1114,804,o),
(1228,935,o),
(1228,1106,cs),
(1228,1355,o),
(1005,1514,o),
(656,1514,cs),
(315,1514,o),
(86,1350,o),
(86,1106,cs),
(86,935,o),
(201,803,o),
(378,772,c),
(378,770,l),
(174,738,o),
(40,593,o),
(40,404,cs),
(40,146,o),
(284,-24,o),
(656,-24,cs)
);
},
{
closed = 1;
nodes = (
(542,254,o),
(460,330,o),
(460,436,cs),
(460,541,o),
(542,616,o),
(656,616,cs),
(771,616,o),
(854,541,o),
(854,436,cs),
(854,331,o),
(770,254,o),
(656,254,cs)
);
},
{
closed = 1;
nodes = (
(550,907,o),
(482,969,o),
(482,1066,cs),
(482,1163,o),
(550,1225,o),
(656,1225,cs),
(763,1225,o),
(832,1163,o),
(832,1066,cs),
(832,969,o),
(763,907,o),
(656,907,cs)
);
}
);
width = 1314;
},
{
associatedMasterId = m009;
background = {
shapes = (
{
closed = 1;
nodes = (
(73,166,o),
(329,-20,o),
(692,-20,cs),
(698,-20,l),
(704,-20,ls),
(1068,-20,o),
(1324,166,o),
(1324,428,cs),
(1324,611,o),
(1201,739,o),
(962,766,c),
(962,776,l),
(1129,794,o),
(1251,896,o),
(1266,1044,c),
(1268,1044,l),
(1268,1062,l),
(1268,1076,ls),
(1268,1327,o),
(1036,1510,o),
(706,1510,cs),
(698,1510,l),
(690,1510,ls),
(361,1510,o),
(128,1327,o),
(128,1076,cs),
(128,1062,l),
(128,1044,l),
(130,1044,l),
(145,896,o),
(268,794,o),
(434,776,c),
(434,766,l),
(195,739,o),
(73,611,o),
(72,428,cs)
);
},
{
closed = 1;
nodes = (
(500,547,o),
(582,608,o),
(698,616,c),
(815,608,o),
(896,547,o),
(896,462,cs),
(896,454,l),
(890,454,l),
(890,369,o),
(812,308,o),
(698,306,c),
(585,308,o),
(506,369,o),
(506,454,c),
(500,454,l),
(500,462,ls)
);
},
{
closed = 1;
nodes = (
(518,1071,o),
(521,1088,o),
(530,1106,cs),
(556,1161,o),
(617,1196,o),
(698,1198,c),
(780,1196,o),
(841,1161,o),
(866,1106,cs),
(876,1088,o),
(879,1071,o),
(878,1050,cs),
(879,966,o),
(806,905,o),
(698,896,c),
(591,905,o),
(518,966,o),
(518,1050,cs)
);
}
);
};
guides = (
{
pos = (-36,1480);
},
{
pos = (-36,1060);
},
{
pos = (196,588);
},
{
pos = (-36,2076);
},
{
orientation = center;
angle = 90;
pos = (996,508);
}
);
layerId = "F98D48AE-119F-4E37-8AC0-CE32244077F8";
name = "Sep 20 18, 18:25";
shapes = (
{
closed = 1;
nodes = (
(1059,-20,o),
(1324,157,o),
(1324,398,cs),
(1324,646,o),
(1116,800,o),
(698,800,cs),
(280,800,o),
(73,646,o),
(72,398,cs),
(73,157,o),
(337,-20,o),
(698,-20,cs)
);
},
{
closed = 1;
nodes = (
(584,259,o),
(500,335,o),
(500,440,cs),
(500,542,o),
(584,617,o),
(698,616,cs),
(812,617,o),
(896,542,o),
(896,440,cs),
(896,335,o),
(812,259,o),
(698,258,cs)
);
},
{
closed = 1;
nodes = (
(597,896,o),
(524,965,o),
(524,1058,cs),
(524,1151,o),
(597,1219,o),
(698,1218,cs),
(799,1219,o),
(873,1151,o),
(872,1058,cs),
(873,965,o),
(799,896,o),
(698,896,cs)
);
},
{
closed = 1;
nodes = (
(1100,736,o),
(1268,880,o),
(1268,1076,cs),
(1268,1324,o),
(1041,1510,o),
(698,1510,cs),
(355,1510,o),
(128,1324,o),
(128,1076,cs),
(128,880,o),
(297,736,o),
(698,736,cs)
);
}
);
width = 1396;
},
{
anchors = (
{
name = _center;
pos = (547,745);
}
);
layerId = m011;
shapes = (
{
closed = 1;
nodes = (
(803,-20,o),
(1009,160,o),
(1010,384,cs),
(1009,561,o),
(878,728,o),
(696,768,c),
(696,774,l),
(852,826,o),
(960,969,o),
(960,1132,cs),
(960,1345,o),
(772,1510,o),
(546,1510,cs),
(318,1510,o),
(134,1343,o),
(134,1132,cs),
(134,968,o),
(244,827,o),
(398,774,c),
(398,768,l),
(215,726,o),
(84,561,o),
(84,384,cs),
(84,160,o),
(291,-20,o),
(546,-20,cs)
);
},
{
closed = 1;
nodes = (
(315,26,o),
(131,189,o),
(130,386,cs),
(131,585,o),
(314,748,o),
(546,748,cs),
(779,748,o),
(963,585,o),
(962,386,cs),
(963,189,o),
(779,26,o),
(546,26,cs)
);
},
{
closed = 1;
nodes = (
(345,788,o),
(180,946,o),
(180,1132,cs),
(180,1318,o),
(345,1463,o),
(546,1464,cs),
(748,1463,o),
(913,1318,o),
(914,1132,cs),
(913,946,o),
(748,788,o),
(546,788,cs)
);
}
);
width = 1094;
},
{
associatedMasterId = m011;
background = {
shapes = (
{
closed = 1;
nodes = (
(891,-20,o),
(1097,153,o),
(1100,396,cs),
(1101,583,o),
(972,743,o),
(812,774,c),
(812,782,l),
(951,818,o),
(1043,955,o),
(1044,1114,cs),
(1047,1340,o),
(852,1509,o),
(594,1510,cs),
(332,1511,o),
(142,1340,o),
(142,1114,cs),
(143,955,o),
(233,818,o),
(376,782,c),
(376,774,l),
(212,743,o),
(86,583,o),
(88,396,cs),
(89,153,o),
(293,-21,o),
(594,-20,cs)
);
},
{
closed = 1;
nodes = (
(389,140,o),
(263,244,o),
(264,404,cs),
(266,572,o),
(402,692,o),
(594,692,cs),
(782,693,o),
(921,572,o),
(922,404,cs),
(924,244,o),
(795,139,o),
(594,140,cs)
);
},
{
closed = 1;
nodes = (
(431,847,o),
(316,948,o),
(318,1102,cs),
(319,1253,o),
(426,1352,o),
(594,1352,cs),
(758,1353,o),
(868,1253,o),
(870,1102,cs),
(871,948,o),
(753,846,o),
(594,846,cs)
);
},
{
closed = 1;
nodes = (
(809,769,o),
(983,928,o),
(984,1128,cs),
(983,1325,o),
(809,1486,o),
(594,1486,cs),
(378,1487,o),
(204,1325,o),
(204,1128,cs),
(204,928,o),
(378,767,o),
(594,768,cs)
);
},
{
closed = 1;
nodes = (
(836,4,o),
(1033,174,o),
(1032,386,cs),
(1033,596,o),
(836,767,o),
(594,768,cs),
(351,768,o),
(154,596,o),
(154,386,cs),
(154,174,o),
(351,3,o),
(594,2,cs)
);
}
);
};
layerId = "FA1403B7-C9C0-4383-B0DE-BF80E63F7B5F";
name = "Dec 27 18, 13:07";
shapes = (
{
closed = 1;
nodes = (
(809,772,o),
(983,931,o),
(984,1132,cs),
(983,1326,o),
(809,1486,o),
(594,1486,cs),
(378,1487,o),
(204,1326,o),
(204,1132,cs),
(204,931,o),
(378,771,o),
(594,770,cs)
);
},
{
closed = 1;
nodes = (
(836,4,o),
(1033,173,o),
(1032,384,cs),
(1033,593,o),
(836,764,o),
(594,766,cs),
(351,765,o),
(154,593,o),
(154,384,cs),
(154,173,o),
(351,3,o),
(594,2,cs)
);
}
);
width = 1186;
},
{
associatedMasterId = m011;
background = {
shapes = (
{
closed = 1;
nodes = (
(891,-20,o),
(1097,153,o),
(1100,396,cs),
(1101,583,o),
(972,743,o),
(812,774,c),
(812,782,l),
(951,818,o),
(1043,955,o),
(1044,1114,cs),
(1047,1340,o),
(852,1509,o),
(594,1510,cs),
(332,1511,o),
(142,1340,o),
(142,1114,cs),
(143,955,o),
(233,818,o),
(376,782,c),
(376,774,l),
(212,743,o),
(86,583,o),
(88,396,cs),
(89,153,o),
(293,-21,o),
(594,-20,cs)
);
},
{
closed = 1;
nodes = (
(389,140,o),
(263,244,o),
(264,404,cs),
(266,572,o),
(402,692,o),
(594,692,cs),
(782,693,o),
(921,572,o),
(922,404,cs),
(924,244,o),
(795,139,o),
(594,140,cs)
);
},
{
closed = 1;
nodes = (
(431,847,o),
(316,948,o),
(318,1102,cs),
(319,1253,o),
(426,1352,o),
(594,1352,cs),
(758,1353,o),
(868,1253,o),
(870,1102,cs),
(871,948,o),
(753,846,o),
(594,846,cs)
);
},
{
closed = 1;
nodes = (
(809,769,o),
(983,928,o),
(984,1128,cs),
(983,1325,o),
(809,1486,o),
(594,1486,cs),
(378,1487,o),
(204,1325,o),
(204,1128,cs),
(204,928,o),
(378,767,o),
(594,768,cs)
);
},
{
closed = 1;
nodes = (
(836,4,o),
(1033,174,o),
(1032,386,cs),
(1033,596,o),
(836,767,o),
(594,768,cs),
(351,768,o),
(154,596,o),
(154,386,cs),
(154,174,o),
(351,3,o),
(594,2,cs)
);
}
);
};
layerId = "FDD84B17-0545-4DF7-8382-10EDC86B61DC";
name = "Dec 27 18, 13:09";
shapes = (
{
closed = 1;
nodes = (
(823,749,o),
(1007,919,o),
(1006,1132,cs),
(1007,1340,o),
(821,1509,o),
(594,1510,cs),
(367,1511,o),
(180,1340,o),
(180,1132,cs),
(180,919,o),
(364,748,o),
(594,748,cs)
);
},
{
closed = 1;
nodes = (
(399,788,o),
(227,940,o),
(226,1128,cs),
(227,1313,o),
(392,1464,o),
(594,1464,cs),
(796,1463,o),
(960,1312,o),
(960,1128,cs),
(960,941,o),
(789,788,o),
(594,788,cs)
);
},
{
closed = 1;
nodes = (
(850,-19,o),
(1056,161,o),
(1056,384,cs),
(1056,607,o),
(849,787,o),
(594,788,cs),
(339,790,o),
(131,607,o),
(130,384,cs),
(131,160,o),
(337,-20,o),
(594,-20,cs)
);
},
{
closed = 1;
nodes = (
(363,26,o),
(177,188,o),
(178,386,cs),
(177,585,o),
(361,749,o),
(594,748,cs),
(826,746,o),
(1009,585,o),
(1010,386,cs),
(1009,188,o),
(825,28,o),
(594,26,cs)
);
},
{
closed = 1;
nodes = (
(446,762,l),
(738,762,l),
(738,776,l),
(446,776,l)
);
}
);
width = 1186;
}
);
metricLeft = zero;
metricRight = zero;
note = "essentially two conjoined \"three\" glyphs";
tags = (
"TODO-opsz"
);
unicode = 56;
}
{
glyphname = nine;
kernRight = nine;
layers = (
{
anchors = (
{
name = _center;
pos = (630,745);
}
);
layerId = "C698F293-3EC0-4A5A-A3A0-0FDB1F5CF265";
shapes = (
{
closed = 1;
nodes = (
(318,1513,o),
(123,1286,o),
(122,1012,cs),
(123,724,o),
(335,518,o),
(592,518,cs),
(745,518,o),
(876,593,o),
(958,716,c),
(970,716,l),
(969,349,o),
(827,140,o),
(598,140,cs),
(440,140,o),
(344,239,o),
(312,376,c),
(134,376,l),
(169,140,o),
(347,-20,o),
(598,-20,cs),
(932,-20,o),
(1138,276,o),
(1138,806,cs),
(1138,1353,o),
(865,1507,o),
(620,1510,cs)
);
},
{
closed = 1;
nodes = (
(807,1350,o),
(943,1190,o),
(944,1016,cs),
(943,838,o),
(798,678,o),
(614,678,cs),
(431,678,o),
(297,826,o),
(298,1012,cs),
(297,1199,o),
(437,1350,o),
(620,1350,cs)
);
}
);
width = 1260;
},
{
anchors = (
{
name = _center;
pos = (711,745);
}
);
guides = (
{
pos = (18,764);
},
{
pos = (18,1240);
}
);
layerId = "5C20EF92-B63D-42A8-8878-93C2863E0093";
shapes = (
{
closed = 1;
nodes = (
(335,1514,o),
(90,1299,o),
(90,978,cs),
(90,705,o),
(271,506,o),
(542,506,cs),
(711,506,o),
(865,588,o),
(922,724,c),
(930,724,l),
(930,484,o),
(854,320,o),
(684,320,cs),
(599,320,o),
(524,361,o),
(506,446,c),
(108,446,l),
(133,191,o),
(355,-24,o),
(684,-24,cs),
(1074,-24,o),
(1332,280,o),
(1332,762,cs),
(1332,1304,o),
(1034,1514,o),
(686,1514,cs)
);
},
{
closed = 1;
nodes = (
(809,1204,o),
(896,1114,o),
(896,992,cs),
(896,870,o),
(809,780,o),
(690,780,cs),
(570,780,o),
(482,869,o),
(482,992,cs),
(482,1114,o),
(571,1204,o),
(690,1204,cs)
);
}
);
width = 1422;
},
{
anchors = (
{
name = _center;
pos = (578,745);
}
);
layerId = "B1F27B51-9973-4381-9301-4FE46FE1CA59";
shapes = (
{
closed = 1;
nodes = (
(317,1510,o),
(148,1295,o),
(148,1048,cs),
(148,783,o),
(340,582,o),
(576,582,cs),
(747,582,o),
(910,689,o),
(956,838,c),
(962,838,l),
(962,314,o),
(823,26,o),
(552,26,cs),
(357,26,o),
(235,172,o),
(220,376,c),
(174,376,l),
(189,143,o),
(331,-20,o),
(552,-20,cs),
(913,-20,o),
(1009,416,o),
(1008,818,cs),
(1009,1286,o),
(820,1510,o),
(566,1510,cs)
);
},
{
closed = 1;
nodes = (
(750,1463,o),
(890,1329,o),
(940,1068,cs),
(983,835,o),
(805,628,o),
(578,628,cs),
(363,628,o),
(194,812,o),
(194,1048,cs),
(194,1277,o),
(351,1463,o),
(566,1464,cs)
);
}
);
width = 1156;
},
{
anchors = (
{
name = _center;
pos = (598,745);
}
);
background = {
shapes = (
{
closed = 1;
nodes = (
(295,1514,o),
(90,1308,o),
(90,1014,cs),
(90,731,o),
(289,520,o),
(558,520,cs),
(718,520,o),
(864,595,o),
(932,710,c),
(934,710,l),
(934,377,o),
(814,136,o),
(556,136,cs),
(405,136,o),
(306,228,o),
(278,372,c),
(102,372,l),
(130,135,o),
(305,-24,o),
(564,-24,cs),
(938,-24,o),
(1106,307,o),
(1106,808,cs),
(1106,1258,o),
(918,1514,o),
(588,1514,cs)
);
},
{
closed = 1;
nodes = (
(766,1354,o),
(910,1203,o),
(910,1016,cs),
(910,830,o),
(763,680,o),
(582,680,cs),
(403,680,o),
(264,826,o),
(264,1014,cs),
(264,1203,o),
(408,1354,o),
(588,1354,cs)
);
}
);
};
layerId = m007;
shapes = (
{
closed = 1;
nodes = (
(295,1514,o),
(90,1312,o),
(90,1018,cs),
(90,735,o),
(289,528,o),
(558,528,cs),
(718,528,o),
(860,595,o),
(928,710,c),
(930,710,l),
(930,377,o),
(806,136,o),
(548,136,cs),
(397,136,o),
(298,228,o),
(270,372,c),
(94,372,l),
(122,135,o),
(301,-24,o),
(560,-24,cs),
(934,-24,o),
(1106,307,o),
(1106,808,cs),
(1106,1258,o),
(918,1514,o),
(588,1514,cs)
);
},
{
closed = 1;
nodes = (
(766,1354,o),
(910,1207,o),
(910,1020,cs),
(910,834,o),
(763,688,o),
(582,688,cs),
(403,688,o),
(264,830,o),
(264,1018,cs),
(264,1207,o),
(408,1354,o),
(588,1354,cs)
);
}
);
width = 1196;
},
{
anchors = (
{
name = _center;
pos = (661,745);
}
);
layerId = m009;
shapes = (
{
closed = 1;
nodes = (
(288,1514,o),
(40,1308,o),
(40,996,cs),
(40,705,o),
(260,498,o),
(564,498,cs),
(713,498,o),
(816,540,o),
(894,652,c),
(896,652,l),
(896,421,o),
(816,280,o),
(641,280,cs),
(528,280,o),
(451,340,o),
(434,434,c),
(52,434,l),
(72,209,o),
(257,-24,o),
(634,-24,cs),
(1040,-24,o),
(1282,280,o),
(1282,762,cs),
(1282,1236,o),
(1043,1514,o),
(636,1514,cs)
);
},
{
closed = 1;
nodes = (
(759,1212,o),
(846,1124,o),
(846,996,cs),
(846,868,o),
(759,780,o),
(640,780,cs),
(519,780,o),
(432,868,o),
(432,996,cs),
(432,1124,o),
(519,1212,o),
(640,1212,cs)
);
}
);
width = 1322;
},
{
anchors = (
{
name = _center;
pos = (514,745);
}
);
layerId = m011;
shapes = (
{
closed = 1;
nodes = (
(253,1510,o),
(84,1295,o),
(84,1048,cs),
(84,783,o),
(276,582,o),
(512,582,cs),
(683,582,o),
(846,689,o),
(892,838,c),
(898,838,l),
(898,314,o),
(759,26,o),
(488,26,cs),
(293,26,o),
(171,172,o),
(156,376,c),
(110,376,l),
(125,143,o),
(267,-20,o),
(488,-20,cs),
(849,-20,o),
(945,416,o),
(944,818,cs),
(945,1286,o),
(756,1510,o),
(502,1510,cs)
);
},
{
closed = 1;
nodes = (
(686,1463,o),
(826,1329,o),
(876,1068,cs),
(919,835,o),
(741,628,o),
(514,628,cs),
(299,628,o),
(130,812,o),
(130,1048,cs),
(130,1277,o),
(287,1463,o),
(502,1464,cs)
);
}
);
width = 1028;
}
);
metricLeft = zero;
metricRight = zero;
note = "six mirrored";
tags = (
"TODO-opsz"
);
unicode = 57;
}
{
glyphname = less;
layers = (
{
guides = (
{
pos = (1296,1616);
},
{
pos = (268,800);
}
);
layerId = "C698F293-3EC0-4A5A-A3A0-0FDB1F5CF265";
shapes = (
{
closed = 1;
nodes = (
(1118,44,l),
(1118,238,l),
(400,579,l),
(406,569,l),
(406,597,l),
(400,585,l),
(1118,926,l),
(1118,1122,l),
(174,646,l),
(174,520,l)
);
}
);
width = 1355;
},
{
associatedMasterId = "C698F293-3EC0-4A5A-A3A0-0FDB1F5CF265";
background = {
shapes = (
{
closed = 1;
nodes = (
(646,116,l),
(806,116,l),
(806,1094,l),
(646,1094,l)
);
}
);
};
guides = (
{
pos = (1060,176);
},
{
pos = (1296,1616);
},
{
pos = (256,832);
}
);
layerId = "2DACB510-E67E-4127-A295-62EC37F1A42C";
name = "recipe 1";
shapes = (
{
closed = 1;
nodes = (
(168,664,l),
(242,538,l),
(1106,954,l),
(1106,1140,l)
);
},
{
closed = 1;
nodes = (
(168,546,l),
(286,546,l),
(286,664,l),
(168,664,l)
);
},
{
closed = 1;
nodes = (
(1106,256,l),
(242,672,l),
(168,546,l),
(1106,70,l)
);
},
{
closed = 1;
nodes = (
(300,596,l),
(392,596,l),
(392,614,l),
(300,614,l)
);
}
);
width = 1330;
},
{
associatedMasterId = "C698F293-3EC0-4A5A-A3A0-0FDB1F5CF265";
guides = (
{
angle = 41.9872;
pos = (256,896);
},
{
angle = 318.0498;
pos = (256,896);
},
{
pos = (1060,176);
},
{
pos = (1296,1616);
},
{
pos = (256,896);
}
);
layerId = "BEE623A7-E3DC-4EB0-A534-F8B717154E56";
name = "Nov 24 18, 10:38";
shapes = (
{
closed = 1;
nodes = (
(332,648,l),
(332,654,l),
(792,1064,l),
(678,1176,l),
(96,652,l),
(678,128,l),
(792,238,l)
);
}
);
width = 942;
},
{
background = {
guides = (
{
orientation = center;
pos = (408,832);
}
);
shapes = (
{
closed = 1;
nodes = (
(646,24,l),
(972,24,l),
(972,1094,l),
(646,1094,l)
);
}
);
};
guides = (
{
orientation = center;
pos = (408,832);
}
);
layerId = "5C20EF92-B63D-42A8-8878-93C2863E0093";
shapes = (
{
closed = 1;
nodes = (
(1242,-2,l),
(1242,364,l),
(554,602,l),
(566,584,l),
(566,626,l),
(554,608,l),
(1242,846,l),
(1242,1214,l),
(160,780,l),
(160,430,l)
);
}
);
width = 1420;
},
{
associatedMasterId = "5C20EF92-B63D-42A8-8878-93C2863E0093";
guides = (
{
pos = (12,1240);
},
{
pos = (268,896);
},
{
angle = 90;
pos = (1048,1620);
}
);
layerId = "C60C402B-F6E4-41D5-9289-ACC0313E7250";
name = "Nov 24 18, 10:58";
shapes = (
{
closed = 1;
nodes = (
(538,648,l),
(538,654,l),
(922,974,l),
(696,1178,l),
(82,652,l),
(696,126,l),
(922,328,l)
);
}
);
width = 1022;
},
{
associatedMasterId = "5C20EF92-B63D-42A8-8878-93C2863E0093";
background = {
guides = (
{
orientation = center;
pos = (408,832);
}
);
shapes = (
{
closed = 1;
nodes = (
(646,24,l),
(972,24,l),
(972,1094,l),
(646,1094,l)
);
}
);
};
guides = (
{
orientation = center;
pos = (408,832);
}
);
layerId = "323ECA97-198F-4297-957F-EC3DABE1457E";
name = "recipe 1";
shapes = (
{
closed = 1;
nodes = (
(148,780,l),
(264,524,l),
(1230,818,l),
(1230,1214,l)
);
},
{
closed = 1;
nodes = (
(148,430,l),
(364,430,l),
(364,780,l),
(148,780,l)
);
},
{
closed = 1;
nodes = (
(500,594,l),
(552,594,l),
(552,616,l),
(500,616,l)
);
},
{
closed = 1;
nodes = (
(1230,392,l),
(264,686,l),
(148,430,l),
(1230,-2,l)
);
}
);
width = 1420;
},
{
guides = (
{
orientation = center;
pos = (268,800);
}
);
layerId = "B1F27B51-9973-4381-9301-4FE46FE1CA59";
shapes = (
{
closed = 1;
nodes = (
(1010,40,l),
(1010,96,l),
(256,584,l),
(266,570,l),
(266,594,l),
(256,578,l),
(1010,1068,l),
(1010,1122,l),
(214,606,l),
(214,558,l)
);
}
);
width = 1304;
},
{
associatedMasterId = "B1F27B51-9973-4381-9301-4FE46FE1CA59";
guides = (
{
orientation = center;
pos = (268,800);
}
);
layerId = "F4F49379-65DA-4D24-8FD9-467723384620";
name = "Dec 27 18, 15:52";
shapes = (
{
closed = 0;
nodes = (
(1164,1140,l),
(300,582,l),
(1164,24,l)
);
}
);
width = 1304;
},
{
guides = (
{
pos = (1004,1616);
},
{
pos = (-24,800);
}
);
layerId = m007;
shapes = (
{
closed = 1;
nodes = (
(1088,46,l),
(1088,232,l),
(368,578,l),
(374,568,l),
(374,596,l),
(368,584,l),
(1088,930,l),
(1088,1118,l),
(150,640,l),
(150,524,l)
);
}
);
width = 1286;
},
{
associatedMasterId = m007;
background = {
shapes = (
{
closed = 1;
nodes = (
(646,116,l),
(806,116,l),
(806,1094,l),
(646,1094,l)
);
}
);
};
guides = (
{
pos = (1060,176);
},
{
pos = (1296,1616);
},
{
pos = (256,832);
}
);
layerId = "BF2B6244-63FD-433F-9F00-C3D14DDA053A";
name = "recipe 1";
shapes = (
{
closed = 1;
nodes = (
(168,664,l),
(242,538,l),
(1106,954,l),
(1106,1140,l)
);
},
{
closed = 1;
nodes = (
(168,546,l),
(286,546,l),
(286,664,l),
(168,664,l)
);
},
{
closed = 1;
nodes = (
(1106,256,l),
(242,672,l),
(168,546,l),
(1106,70,l)
);
},
{
closed = 1;
nodes = (
(300,596,l),
(392,596,l),
(392,614,l),
(300,614,l)
);
}
);
width = 1330;
},
{
associatedMasterId = m007;
guides = (
{
angle = 41.9872;
pos = (256,896);
},
{
angle = 318.0498;
pos = (256,896);
},
{
pos = (1060,176);
},
{
pos = (1296,1616);
},
{
pos = (256,896);
}
);
layerId = "B498F5C8-D64B-444E-8487-278965853D2E";
name = "Nov 24 18, 10:38";
shapes = (
{
closed = 1;
nodes = (
(332,648,l),
(332,654,l),
(792,1064,l),
(678,1176,l),
(96,652,l),
(678,128,l),
(792,238,l)
);
}
);
width = 942;
},
{
background = {
guides = (
{
orientation = center;
pos = (408,832);
}
);
shapes = (
{
closed = 1;
nodes = (
(646,24,l),
(972,24,l),
(972,1094,l),
(646,1094,l)
);
}
);
};
guides = (
{
orientation = center;
pos = (-3182,832);
}
);
layerId = m009;
shapes = (
{
closed = 1;
nodes = (
(1226,-2,l),
(1226,364,l),
(538,602,l),
(550,584,l),
(550,626,l),
(538,608,l),
(1226,846,l),
(1226,1214,l),
(144,780,l),
(144,430,l)
);
}
);
width = 1388;
},
{
associatedMasterId = m009;
guides = (
{
pos = (12,1240);
},
{
pos = (268,896);
},
{
angle = 90;
pos = (1048,1620);
}
);
layerId = "68BA51DA-A8AC-40B8-82F6-4822CDD18E17";
name = "Nov 24 18, 10:58";
shapes = (
{
closed = 1;
nodes = (
(538,648,l),
(538,654,l),
(922,974,l),
(696,1178,l),
(82,652,l),
(696,126,l),
(922,328,l)
);
}
);
width = 1022;
},
{
associatedMasterId = m009;
background = {
guides = (
{
orientation = center;
pos = (408,832);
}
);
shapes = (
{
closed = 1;
nodes = (
(646,24,l),
(972,24,l),
(972,1094,l),
(646,1094,l)
);
}
);
};
guides = (
{
orientation = center;
pos = (408,832);
}
);
layerId = "901C54DE-4445-4C57-B5CC-CDA237702979";
name = "recipe 1";
shapes = (
{
closed = 1;
nodes = (
(148,780,l),
(264,524,l),
(1230,818,l),
(1230,1214,l)
);
},
{
closed = 1;
nodes = (
(148,430,l),
(364,430,l),
(364,780,l),
(148,780,l)
);
},
{
closed = 1;
nodes = (
(500,594,l),
(552,594,l),
(552,616,l),
(500,616,l)
);
},
{
closed = 1;
nodes = (
(1230,392,l),
(264,686,l),
(148,430,l),
(1230,-2,l)
);
}
);
width = 1420;
},
{
guides = (
{
orientation = center;
pos = (-1100,800);
}
);
layerId = m011;
shapes = (
{
closed = 1;
nodes = (
(954,40,l),
(954,96,l),
(200,584,l),
(210,570,l),
(210,594,l),
(200,578,l),
(954,1068,l),
(954,1122,l),
(158,606,l),
(158,558,l)
);
}
);
width = 1176;
},
{
associatedMasterId = m011;
guides = (
{
orientation = center;
pos = (268,800);
}
);
layerId = "0C5DCF6D-3CA2-4D9A-AD89-5378780F15F4";
name = "Dec 27 18, 15:52";
shapes = (
{
closed = 0;
nodes = (
(1164,1140,l),
(300,582,l),
(1164,24,l)
);
}
);
width = 1304;
}
);
metricWidth = plus;
note = "Recipe: Make rect and rotate 63deg (regular) or 69deg (black)";
unicode = 60;
userData = {
com.typemytype.robofont.guideline.magnetic.UCqMAsbNEX = 5;
com.typemytype.robofont.guideline.magnetic.abdyNxiJ0X = 5;
com.typemytype.robofont.guideline.magnetic.hl7wBCA74H = 5;
com.typemytype.robofont.guideline.magnetic.o3FB2ulJxh = 5;
com.typemytype.robofont.guideline.magnetic.oUvmdsbOwf = 5;
"interface.width-adjustments" = (
-16
);
};
}
{
glyphname = equal;
kernLeft = approxequal;
kernRight = approxequal;
layers = (
{
anchors = (
{
name = _center;
pos = (675,582);
}
);
background = {
shapes = (
{
ref = plus;
}
);
};
guides = (
{
pos = (268,800);
}
);
layerId = "C698F293-3EC0-4A5A-A3A0-0FDB1F5CF265";
shapes = (
{
closed = 1;
nodes = (
(1122,718,l),
(1122,876,l),
(226,876,l),
(226,718,l)
);
},
{
closed = 1;
nodes = (
(1122,288,l),
(1122,446,l),
(226,446,l),
(226,288,l)
);
}
);
width = 1350;
},
{
anchors = (
{
name = _center;
pos = (710,605);
}
);
guides = (
{
orientation = center;
pos = (408,832);
}
);
layerId = "5C20EF92-B63D-42A8-8878-93C2863E0093";
shapes = (
{
closed = 1;
nodes = (
(1248,702,l),
(1248,1026,l),
(172,1026,l),
(172,702,l)
);
},
{
closed = 1;
nodes = (
(1248,184,l),
(1248,510,l),
(172,510,l),
(172,184,l)
);
}
);
width = 1420;
},
{
anchors = (
{
name = _center;
pos = (652,582);
}
);
guides = (
{
pos = (268,800);
}
);
layerId = "B1F27B51-9973-4381-9301-4FE46FE1CA59";
shapes = (
{
closed = 1;
nodes = (
(998,754,l),
(998,800,l),
(306,800,l),
(306,754,l)
);
},
{
closed = 1;
nodes = (
(998,364,l),
(998,410,l),
(306,410,l),
(306,364,l)
);
}
);
width = 1304;
},
{
anchors = (
{
name = _center;
pos = (643,582);
}
);
background = {
shapes = (
{
ref = plus;
}
);
};
guides = (
{
pos = (-24,800);
}
);
layerId = m007;
shapes = (
{
closed = 1;
nodes = (
(1090,718,l),
(1090,876,l),
(194,876,l),
(194,718,l)
);
},
{
closed = 1;
nodes = (
(1090,288,l),
(1090,446,l),
(194,446,l),
(194,288,l)
);
}
);
width = 1286;
},
{
anchors = (
{
name = _center;
pos = (694,605);
}
);
guides = (
{
orientation = center;
pos = (-3182,832);
}
);
layerId = m009;
shapes = (
{
closed = 1;
nodes = (
(1232,702,l),
(1232,1026,l),
(156,1026,l),
(156,702,l)
);
},
{
closed = 1;
nodes = (
(1232,184,l),
(1232,510,l),
(156,510,l),
(156,184,l)
);
}
);
width = 1388;
},
{
anchors = (
{
name = _center;
pos = (588,582);
}
);
guides = (
{
pos = (140,800);
}
);
layerId = m011;
shapes = (
{
closed = 1;
nodes = (
(934,754,l),
(934,800,l),
(242,800,l),
(242,754,l)
);
},
{
closed = 1;
nodes = (
(934,364,l),
(934,410,l),
(242,410,l),
(242,364,l)
);
}
);
width = 1176;
}
);
metricWidth = plus;
tags = (
"TODO-opsz"
);
unicode = 61;
userData = {
com.typemytype.robofont.guideline.magnetic.7d4CjnlrzW = 5;
interface.gridadjust.original = "{'width': 1664, 'leftMargin': 256, 'rightMargin': 256}";
"interface.width-adjustments" = (
-16
);
};
}
{
glyphname = greater;
layers = (
{
anchors = (
{
name = _center;
pos = (675,582);
}
);
guides = (
{
pos = (300,800);
}
);
layerId = "C698F293-3EC0-4A5A-A3A0-0FDB1F5CF265";
shapes = (
{
closed = 1;
nodes = (
(1176,640,l),
(238,1118,l),
(238,930,l),
(958,584,l),
(952,596,l),
(952,568,l),
(958,578,l),
(238,232,l),
(238,46,l),
(1176,524,l)
);
}
);
width = 1350;
},
{
anchors = (
{
name = _center;
pos = (710,606);
}
);
guides = (
{
orientation = center;
pos = (-292,832);
}
);
layerId = "5C20EF92-B63D-42A8-8878-93C2863E0093";
shapes = (
{
closed = 1;
nodes = (
(1260,780,l),
(178,1214,l),
(178,846,l),
(868,608,l),
(856,626,l),
(856,584,l),
(868,602,l),
(178,364,l),
(178,-2,l),
(1260,430,l)
);
}
);
width = 1420;
},
{
anchors = (
{
name = _center;
pos = (652,581);
}
);
guides = (
{
pos = (308,800);
}
);
layerId = "B1F27B51-9973-4381-9301-4FE46FE1CA59";
shapes = (
{
closed = 1;
nodes = (
(1090,606,l),
(294,1122,l),
(294,1068,l),
(1046,578,l),
(1038,594,l),
(1038,570,l),
(1046,584,l),
(294,96,l),
(294,40,l),
(1090,558,l)
);
}
);
width = 1304;
},
{
anchors = (
{
name = _center;
pos = (643,582);
}
);
guides = (
{
pos = (0,800);
}
);
layerId = m007;
shapes = (
{
closed = 1;
nodes = (
(1136,640,l),
(198,1118,l),
(198,930,l),
(918,584,l),
(912,596,l),
(912,568,l),
(918,578,l),
(198,232,l),
(198,46,l),
(1136,524,l)
);
}
);
width = 1286;
},
{
anchors = (
{
name = _center;
pos = (694,606);
}
);
guides = (
{
orientation = center;
pos = (-3866,832);
}
);
layerId = m009;
shapes = (
{
closed = 1;
nodes = (
(1244,780,l),
(162,1214,l),
(162,846,l),
(852,608,l),
(840,626,l),
(840,584,l),
(852,602,l),
(162,364,l),
(162,-2,l),
(1244,430,l)
);
}
);
width = 1388;
},
{
anchors = (
{
name = _center;
pos = (588,581);
}
);
guides = (
{
pos = (172,800);
}
);
layerId = m011;
shapes = (
{
closed = 1;
nodes = (
(1018,606,l),
(222,1122,l),
(222,1068,l),
(974,578,l),
(966,594,l),
(966,570,l),
(974,584,l),
(222,96,l),
(222,40,l),
(1018,558,l)
);
}
);
width = 1176;
}
);
metricLeft = "=|less";
metricRight = "=|less";
tags = (
"TODO-opsz"
);
unicode = 62;
userData = {
"interface.width-adjustments" = (
-16
);
};
}
{
glyphname = question;
layers = (
{
anchors = (
{
name = _center;
pos = (519,745);
}
);
guides = (
{
angle = 90;
pos = (469,416);
}
);
layerId = "C698F293-3EC0-4A5A-A3A0-0FDB1F5CF265";
shapes = (
{
closed = 1;
nodes = (
(556,448,l),
(556,458,ls),
(556,638,o),
(605,687,o),
(734,766,cs),
(861,844,o),
(936,956,o),
(936,1118,cs),
(936,1344,o),
(771,1510,o),
(514,1510,cs),
(279,1510,o),
(92,1364,o),
(82,1118,c),
(264,1118,l),
(276,1289,o),
(396,1358,o),
(514,1358,cs),
(652,1358,o),
(762,1268,o),
(762,1126,cs),
(762,1010,o),
(696,927,o),
(610,876,cs),
(468,789,o),
(382,735,o),
(382,458,cs),
(382,448,l)
);
},
{
closed = 1;
nodes = (
(543,-12,o),
(602,47,o),
(602,119,cs),
(602,191,o),
(543,250,o),
(471,250,cs),
(399,250,o),
(340,191,o),
(340,119,cs),
(340,47,o),
(399,-12,o),
(471,-12,cs)
);
}
);
width = 1038;
},
{
anchors = (
{
name = _center;
pos = (615,745);
}
);
guides = (
{
pos = (-28,2352);
},
{
angle = 90;
pos = (567,426);
}
);
layerId = "5C20EF92-B63D-42A8-8878-93C2863E0093";
shapes = (
{
closed = 1;
nodes = (
(738,466,l),
(738,500,ls),
(738,616,o),
(793,674,o),
(898,736,cs),
(1041,819,o),
(1138,923,o),
(1138,1100,cs),
(1138,1373,o),
(907,1510,o),
(596,1510,cs),
(313,1510,o),
(76,1376,o),
(76,1056,c),
(448,1056,l),
(448,1140,o),
(515,1198,o),
(594,1198,cs),
(666,1198,o),
(724,1149,o),
(724,1076,cs),
(724,995,o),
(654,945,o),
(562,884,cs),
(453,814,o),
(396,740,o),
(396,500,cs),
(396,466,l)
);
},
{
closed = 1;
nodes = (
(697,-24,o),
(781,52,o),
(781,175,cs),
(781,298,o),
(697,374,o),
(567,374,cs),
(437,374,o),
(353,298,o),
(353,175,cs),
(353,52,o),
(437,-24,o),
(567,-24,cs)
);
}
);
width = 1230;
},
{
anchors = (
{
name = _center;
pos = (490,745);
}
);
guides = (
{
angle = 90;
pos = (448,391);
}
);
layerId = "B1F27B51-9973-4381-9301-4FE46FE1CA59";
shapes = (
{
closed = 1;
nodes = (
(472,442,l),
(472,544,ls),
(472,662,o),
(510,723,o),
(648,824,cs),
(807,937,o),
(864,1023,o),
(864,1146,cs),
(864,1356,o),
(699,1510,o),
(486,1510,cs),
(263,1510,o),
(96,1341,o),
(96,1118,c),
(142,1118,l),
(142,1315,o),
(288,1464,o),
(486,1464,cs),
(673,1464,o),
(818,1331,o),
(818,1146,cs),
(818,1041,o),
(770,965,o),
(622,862,cs),
(473,756,o),
(424,678,o),
(424,544,cs),
(424,442,l)
);
},
{
closed = 1;
nodes = (
(477,-9,o),
(501,15,o),
(501,44,cs),
(501,73,o),
(477,97,o),
(448,97,cs),
(419,97,o),
(395,73,o),
(395,44,cs),
(395,15,o),
(419,-9,o),
(448,-9,cs)
);
}
);
width = 980;
},
{
associatedMasterId = "B1F27B51-9973-4381-9301-4FE46FE1CA59";
layerId = "75D4D36F-F0AC-4556-9658-7C6E75F1070E";
name = "Nov 30 18, 00:07";
shapes = (
{
closed = 0;
nodes = (
(418,396,l),
(419,657,o),
(468,730,o),
(596,818,cs),
(710,895,o),
(797,981,o),
(798,1140,cs),
(797,1343,o),
(658,1487,o),
(462,1486,cs),
(260,1487,o),
(116,1334,o),
(116,1118,c)
);
},
{
pos = (154,0);
ref = period;
}
);
width = 926;
},
{
associatedMasterId = "B1F27B51-9973-4381-9301-4FE46FE1CA59";
guides = (
{
angle = 90;
pos = (576,516);
}
);
layerId = "ED769F43-BCBA-464F-BC0C-E3675F1B7BB8";
name = "Nov 30 18, 00:10";
shapes = (
{
closed = 1;
nodes = (
(140,1118,l),
(140,1321,o),
(273,1463,o),
(462,1464,cs),
(646,1463,o),
(774,1329,o),
(774,1140,cs),
(774,1015,o),
(721,931,o),
(584,838,cs),
(436,736,o),
(396,643,o),
(396,396,c),
(442,396,l),
(442,628,o),
(474,707,o),
(610,800,cs),
(759,899,o),
(820,998,o),
(820,1140,cs),
(820,1356,o),
(672,1510,o),
(462,1510,cs),
(247,1510,o),
(93,1347,o),
(94,1118,c)
);
},
{
pos = (160,0);
ref = period;
}
);
width = 926;
},
{
associatedMasterId = "B1F27B51-9973-4381-9301-4FE46FE1CA59";
background = {
shapes = (
{
closed = 1;
nodes = (
(454,232,l),
(454,585,o),
(486,666,o),
(622,770,cs),
(762,881,o),
(832,995,o),
(832,1140,cs),
(832,1356,o),
(684,1510,o),
(474,1510,cs),
(259,1510,o),
(105,1347,o),
(104,1118,c),
(152,1118,l),
(151,1321,o),
(285,1463,o),
(474,1464,cs),
(657,1463,o),
(785,1329,o),
(786,1140,cs),
(785,1012,o),
(730,913,o),
(596,808,cs),
(448,695,o),
(407,593,o),
(408,232,c)
);
},
{
closed = 0;
nodes = (
(448,466,l),
(445,650,o),
(488,722,o),
(652,838,cs),
(767,919,o),
(832,1007,o),
(832,1154,cs),
(832,1350,o),
(681,1485,o),
(474,1486,cs),
(266,1488,o),
(79,1365,o),
(78,1102,c)
);
}
);
};
guides = (
{
angle = 90;
pos = (592,516);
}
);
layerId = "A64C3A59-7B69-4518-AB3E-BEEAC2E00FFE";
name = "Jan 22 19, 06:51";
shapes = (
{
closed = 0;
nodes = (
(430,232,l),
(428,659,o),
(497,735,o),
(652,838,cs),
(784,927,o),
(832,1034,o),
(832,1146,cs),
(832,1340,o),
(687,1487,o),
(474,1486,cs),
(257,1487,o),
(79,1332,o),
(78,1118,c)
);
},
{
pos = (172,0);
ref = period;
}
);
width = 962;
},
{
associatedMasterId = "B1F27B51-9973-4381-9301-4FE46FE1CA59";
guides = (
{
angle = 90;
pos = (656,516);
}
);
layerId = "97860723-3877-46AB-80B9-B6DA2B6A584E";
name = "Jan 22 19, 06:56";
shapes = (
{
closed = 1;
nodes = (
(149,1314,o),
(310,1463,o),
(520,1464,cs),
(719,1463,o),
(855,1331,o),
(856,1146,cs),
(855,1027,o),
(799,934,o),
(686,858,cs),
(529,752,o),
(451,668,o),
(454,232,c),
(500,232,l),
(497,641,o),
(561,721,o),
(710,818,cs),
(836,900,o),
(902,1012,o),
(902,1146,cs),
(902,1356,o),
(744,1510,o),
(520,1510,cs),
(284,1510,o),
(103,1340,o),
(102,1118,c),
(148,1118,l)
);
},
{
pos = (218,0);
ref = period;
}
);
width = 1010;
},
{
associatedMasterId = "B1F27B51-9973-4381-9301-4FE46FE1CA59";
background = {
shapes = (
{
closed = 0;
nodes = (
(152,1152,l),
(168,1348,o),
(317,1485,o),
(514,1486,cs),
(716,1488,o),
(870,1345,o),
(870,1158,cs),
(870,1036,o),
(812,948,o),
(664,840,cs),
(519,737,o),
(477,668,o),
(478,544,cs),
(478,446,l)
);
}
);
};
guides = (
{
angle = 90;
pos = (656,516);
}
);
layerId = "257671DD-319E-494D-ABB6-8D5D07521099";
name = "Jan 22 19, 09:25";
shapes = (
{
closed = 0;
nodes = (
(148,1106,l),
(148,1338,o),
(310,1487,o),
(514,1486,cs),
(716,1487,o),
(870,1345,o),
(870,1146,cs),
(870,1025,o),
(812,948,o),
(664,840,cs),
(519,737,o),
(477,668,o),
(478,544,cs),
(478,442,l)
);
},
{
pos = (218,0);
ref = period;
}
);
width = 1010;
},
{
associatedMasterId = "B1F27B51-9973-4381-9301-4FE46FE1CA59";
background = {
shapes = (
{
closed = 0;
nodes = (
(122,1152,l),
(139,1348,o),
(288,1485,o),
(486,1486,cs),
(687,1488,o),
(841,1345,o),
(840,1158,cs),
(841,1036,o),
(783,948,o),
(634,840,cs),
(489,737,o),
(448,668,o),
(448,544,cs),
(448,446,l)
);
}
);
};
guides = (
{
angle = 90;
pos = (616,516);
}
);
layerId = "D2256727-13BA-427B-A422-447CE61ECAB7";
name = "Jan 22 19, 09:29";
shapes = (
{
closed = 0;
nodes = (
(120,1118,l),
(119,1338,o),
(288,1487,o),
(486,1486,cs),
(678,1487,o),
(841,1347,o),
(840,1146,cs),
(841,1025,o),
(783,948,o),
(634,840,cs),
(489,737,o),
(448,668,o),
(448,544,cs),
(448,442,l)
);
},
{
pos = (190,0);
ref = period;
}
);
width = 980;
},
{
anchors = (
{
name = _center;
pos = (536,745);
}
);
guides = (
{
angle = 90;
pos = (508,400);
}
);
layerId = m007;
shapes = (
{
closed = 1;
nodes = (
(595,432,l),
(595,496,ls),
(595,629,o),
(635,667,o),
(769,760,cs),
(908,856,o),
(983,982,o),
(983,1126,cs),
(983,1354,o),
(799,1514,o),
(536,1514,cs),
(253,1514,o),
(64,1329,o),
(64,1050,c),
(243,1050,l),
(243,1243,o),
(351,1356,o),
(536,1356,cs),
(705,1356,o),
(809,1268,o),
(809,1126,cs),
(809,1038,o),
(770,951,o),
(657,869,cs),
(521,770,o),
(421,733,o),
(421,512,cs),
(421,432,l)
);
},
{
closed = 1;
nodes = (
(574,-12,o),
(626,40,o),
(626,104,cs),
(626,168,o),
(574,220,o),
(510,220,cs),
(446,220,o),
(394,168,o),
(394,104,cs),
(394,40,o),
(446,-12,o),
(510,-12,cs)
);
}
);
width = 1073;
},
{
anchors = (
{
name = _center;
pos = (619,745);
}
);
guides = (
{
pos = (-104,2352);
},
{
angle = 90;
pos = (587,448);
}
);
layerId = m009;
shapes = (
{
closed = 1;
nodes = (
(758,496,l),
(758,508,ls),
(758,609,o),
(852,669,o),
(969,744,cs),
(1097,826,o),
(1158,945,o),
(1158,1100,cs),
(1158,1340,o),
(937,1510,o),
(620,1510,cs),
(286,1510,o),
(64,1302,o),
(64,1018,c),
(436,1018,l),
(436,1126,o),
(507,1198,o),
(614,1198,cs),
(710,1198,o),
(776,1138,o),
(776,1052,cs),
(776,982,o),
(733,920,o),
(641,875,cs),
(468,790,o),
(416,710,o),
(416,530,cs),
(416,496,l)
);
},
{
closed = 1;
nodes = (
(712,-19,o),
(801,70,o),
(801,189,cs),
(801,308,o),
(712,397,o),
(593,397,cs),
(474,397,o),
(385,308,o),
(385,189,cs),
(385,70,o),
(474,-19,o),
(593,-19,cs)
);
}
);
width = 1238;
},
{
anchors = (
{
name = _center;
pos = (460,745);
}
);
guides = (
{
angle = 90;
pos = (416,391);
}
);
layerId = m011;
shapes = (
{
closed = 1;
nodes = (
(440,442,l),
(440,544,ls),
(440,662,o),
(478,723,o),
(616,824,cs),
(775,937,o),
(832,1023,o),
(832,1146,cs),
(832,1356,o),
(667,1510,o),
(454,1510,cs),
(231,1510,o),
(64,1341,o),
(64,1118,c),
(110,1118,l),
(110,1315,o),
(256,1464,o),
(454,1464,cs),
(641,1464,o),
(786,1331,o),
(786,1146,cs),
(786,1041,o),
(738,965,o),
(590,862,cs),
(441,756,o),
(392,678,o),
(392,544,cs),
(392,442,l)
);
},
{
closed = 1;
nodes = (
(443,-8,o),
(464,13,o),
(464,40,cs),
(464,67,o),
(443,88,o),
(416,88,cs),
(389,88,o),
(368,67,o),
(368,40,cs),
(368,13,o),
(389,-8,o),
(416,-8,cs)
);
}
);
width = 920;
},
{
associatedMasterId = m007;
layerId = "762D5E91-ACCB-47BA-9395-33DF64F9B945";
name = "Jun 9, 22, 10:40";
shapes = (
{
closed = 1;
nodes = (
(577,418,l),
(577,428,ls),
(577,608,o),
(626,687,o),
(755,766,cs),
(882,844,o),
(957,956,o),
(957,1118,cs),
(957,1344,o),
(792,1510,o),
(535,1510,cs),
(300,1510,o),
(113,1364,o),
(103,1118,c),
(285,1118,l),
(297,1289,o),
(417,1358,o),
(535,1358,cs),
(673,1358,o),
(783,1268,o),
(783,1126,cs),
(783,1010,o),
(717,927,o),
(631,876,cs),
(489,789,o),
(403,705,o),
(403,428,cs),
(403,418,l)
);
},
{
pos = (271,0);
ref = period;
}
);
width = 1071;
},
{
associatedMasterId = "C698F293-3EC0-4A5A-A3A0-0FDB1F5CF265";
guides = (
{
angle = 90;
pos = (508,400);
}
);
layerId = "00DE21B9-C62D-4EC6-B6D8-9AD15EC28CF8";
name = "Jun 9, 22, 10:52";
shapes = (
{
closed = 1;
nodes = (
(556,418,l),
(556,428,ls),
(556,608,o),
(605,687,o),
(734,766,cs),
(861,844,o),
(936,956,o),
(936,1118,cs),
(936,1344,o),
(771,1510,o),
(514,1510,cs),
(279,1510,o),
(92,1364,o),
(82,1118,c),
(264,1118,l),
(276,1289,o),
(396,1358,o),
(514,1358,cs),
(652,1358,o),
(762,1268,o),
(762,1126,cs),
(762,1010,o),
(696,927,o),
(610,876,cs),
(468,789,o),
(382,705,o),
(382,428,cs),
(382,418,l)
);
},
{
pos = (192,0);
ref = period;
}
);
width = 1038;
},
{
associatedMasterId = m009;
guides = (
{
pos = (-124,2352);
},
{
angle = 90;
pos = (567,448);
}
);
layerId = "15603CB0-6D8D-488B-A9DC-D46660FA98CC";
name = "Jun 9, 22, 10:56";
shapes = (
{
closed = 1;
nodes = (
(738,496,l),
(738,530,ls),
(738,646,o),
(793,674,o),
(898,736,cs),
(1041,819,o),
(1138,923,o),
(1138,1100,cs),
(1138,1373,o),
(907,1510,o),
(596,1510,cs),
(313,1510,o),
(76,1376,o),
(76,1056,c),
(448,1056,l),
(448,1140,o),
(515,1198,o),
(594,1198,cs),
(666,1198,o),
(724,1149,o),
(724,1076,cs),
(724,995,o),
(654,945,o),
(562,884,cs),
(453,814,o),
(396,770,o),
(396,530,cs),
(396,496,l)
);
},
{
closed = 1;
nodes = (
(686,-19,o),
(775,70,o),
(775,189,cs),
(775,308,o),
(686,397,o),
(567,397,cs),
(448,397,o),
(359,308,o),
(359,189,cs),
(359,70,o),
(448,-19,o),
(567,-19,cs)
);
}
);
width = 1196;
}
);
tags = (
"TODO-opsz"
);
unicode = 63;
userData = {
"interface.width-adjustments" = (
-16
);
};
}
{
glyphname = at;
layers = (
{
layerId = "C698F293-3EC0-4A5A-A3A0-0FDB1F5CF265";
shapes = (
{
closed = 1;
nodes = (
(1164,-392,o),
(1353,-349,o),
(1442,-312,c),
(1402,-178,l),
(1350,-195,o),
(1181,-254,o),
(1022,-254,cs),
(524,-254,o),
(258,26,o),
(258,520,cs),
(258,1007,o),
(529,1298,o),
(986,1298,cs),
(1449,1298,o),
(1666,972,o),
(1666,646,cs),
(1666,314,o),
(1632,166,o),
(1484,166,cs),
(1396,166,o),
(1350,239,o),
(1350,320,cs),
(1350,978,l),
(1196,978,l),
(1196,896,l),
(1186,896,l),
(1152,942,o),
(1067,1002,o),
(936,1002,cs),
(698,1002,o),
(524,802,o),
(524,536,cs),
(524,254,o),
(660,38,o),
(925,38,cs),
(1079,38,o),
(1162,116,o),
(1196,198,c),
(1204,198,l),
(1222,73,o),
(1379,30,o),
(1480,30,cs),
(1789,30,o),
(1818,361,o),
(1818,642,cs),
(1818,1041,o),
(1539,1434,o),
(994,1434,cs),
(433,1434,o),
(98,1094,o),
(98,526,cs),
(98,-61,o),
(422,-392,o),
(1016,-392,cs)
);
},
{
closed = 1;
nodes = (
(742,186,o),
(674,358,o),
(674,544,cs),
(674,713,o),
(771,858,o),
(936,858,cs),
(1111,858,o),
(1204,788,o),
(1204,544,cs),
(1204,303,o),
(1126,186,o),
(930,186,cs)
);
}
);
width = 1918;
},
{
layerId = "5C20EF92-B63D-42A8-8878-93C2863E0093";
shapes = (
{
closed = 1;
nodes = (
(1367,-454,o),
(1579,-401,o),
(1670,-340,c),
(1578,-78,l),
(1483,-119,o),
(1317,-152,o),
(1144,-152,cs),
(686,-152,o),
(432,81,o),
(432,518,cs),
(432,887,o),
(648,1216,o),
(1150,1216,cs),
(1425,1216,o),
(1820,1155,o),
(1820,610,cs),
(1820,358,o),
(1757,242,o),
(1688,242,cs),
(1663,242,o),
(1642,256,o),
(1642,314,cs),
(1642,1058,l),
(1366,1058,l),
(1366,978,l),
(1354,978,l),
(1331,1030,o),
(1206,1082,o),
(1064,1082,cs),
(795,1082,o),
(550,888,o),
(550,510,cs),
(550,165,o),
(753,-45,o),
(1043,-45,cs),
(1197,-45,o),
(1361,13,o),
(1392,96,c),
(1400,96,l),
(1414,21,o),
(1421,-55,o),
(1576,-55,cs),
(1943,-55,o),
(2134,185,o),
(2134,584,cs),
(2134,1181,o),
(1751,1516,o),
(1150,1516,cs),
(482,1516,o),
(106,1097,o),
(106,500,cs),
(106,-99,o),
(485,-454,o),
(1120,-454,cs)
);
},
{
closed = 1;
nodes = (
(930,256,o),
(868,384,o),
(868,518,cs),
(868,681,o),
(957,766,o),
(1116,766,cs),
(1306,766,o),
(1336,649,o),
(1336,520,cs),
(1336,352,o),
(1288,256,o),
(1120,256,cs)
);
}
);
width = 2240;
},
{
layerId = "B1F27B51-9973-4381-9301-4FE46FE1CA59";
shapes = (
{
closed = 1;
nodes = (
(1129,-396,o),
(1292,-343,o),
(1432,-244,c),
(1402,-206,l),
(1271,-300,o),
(1120,-350,o),
(960,-350,cs),
(512,-350,o),
(148,38,o),
(148,518,cs),
(148,998,o),
(512,1386,o),
(960,1386,cs),
(1405,1386,o),
(1770,998,o),
(1770,518,cs),
(1770,279,o),
(1638,102,o),
(1460,102,cs),
(1373,102,o),
(1350,137,o),
(1350,280,cs),
(1350,986,l),
(1304,986,l),
(1304,754,l),
(1298,754,l),
(1228,902,o),
(1094,1000,o),
(940,1000,cs),
(710,1000,o),
(527,785,o),
(527,518,cs),
(527,250,o),
(710,34,o),
(940,34,cs),
(1094,34,o),
(1228,134,o),
(1298,280,c),
(1304,280,l),
(1303,113,o),
(1344,56,o),
(1460,56,cs),
(1667,56,o),
(1816,253,o),
(1816,518,cs),
(1816,1024,o),
(1431,1432,o),
(960,1432,cs),
(486,1432,o),
(102,1024,o),
(102,518,cs),
(102,15,o),
(486,-396,o),
(960,-396,cs)
);
},
{
closed = 1;
nodes = (
(739,80,o),
(573,276,o),
(573,518,cs),
(573,759,o),
(739,954,o),
(940,954,cs),
(1140,954,o),
(1304,759,o),
(1304,518,cs),
(1304,275,o),
(1141,80,o),
(940,80,cs)
);
}
);
width = 1918;
},
{
associatedMasterId = "B1F27B51-9973-4381-9301-4FE46FE1CA59";
background = {
shapes = (
{
closed = 1;
nodes = (
(1111,858,o),
(1204,788,o),
(1204,544,cs),
(1204,303,o),
(1126,186,o),
(930,186,cs),
(742,186,o),
(675,358,o),
(674,544,cs),
(675,713,o),
(771,858,o),
(936,858,cs)
);
},
{
closed = 1;
nodes = (
(433,1434,o),
(99,1094,o),
(98,526,cs),
(99,-61,o),
(422,-393,o),
(1016,-392,cs),
(1164,-393,o),
(1353,-349,o),
(1442,-312,c),
(1402,-178,l),
(1350,-195,o),
(1181,-253,o),
(1022,-254,cs),
(524,-253,o),
(259,26,o),
(258,520,cs),
(259,1007,o),
(529,1297,o),
(986,1298,cs),
(1449,1297,o),
(1667,972,o),
(1666,646,cs),
(1667,314,o),
(1632,166,o),
(1484,166,cs),
(1396,166,o),
(1350,239,o),
(1350,320,cs),
(1350,978,l),
(1196,978,l),
(1196,896,l),
(1186,896,l),
(1167,960,o),
(1053,1015,o),
(908,1000,cs),
(689,977,o),
(524,797,o),
(524,536,cs),
(524,259,o),
(655,47,o),
(908,38,cs),
(1073,32,o),
(1161,113,o),
(1196,198,c),
(1204,198,l),
(1222,73,o),
(1379,29,o),
(1480,30,cs),
(1789,29,o),
(1818,361,o),
(1818,642,cs),
(1818,1041,o),
(1539,1434,o),
(994,1434,cs)
);
}
);
};
guides = (
{
pos = (1384,1940);
},
{
pos = (1272,80);
},
{
pos = (1292,1344);
},
{
pos = (1416,-512);
},
{
angle = 90;
pos = (172,728);
},
{
angle = 90;
pos = (756,736);
},
{
angle = 90;
pos = (1824,736);
},
{
angle = 90;
pos = (2464,876);
},
{
orientation = center;
pos = (2440,712);
}
);
layerId = "F02EBEA3-A9A1-4BF5-A5DE-99015680B117";
name = "Dec 27 18, 17:10";
shapes = (
{
closed = 1;
nodes = (
(1419,-372,o),
(1792,26,o),
(1792,518,cs),
(1792,1009,o),
(1419,1408,o),
(958,1408,cs),
(498,1408,o),
(125,1009,o),
(126,518,cs),
(125,26,o),
(498,-372,o),
(958,-372,cs)
);
},
{
closed = 1;
nodes = (
(1153,58,o),
(1327,264,o),
(1326,518,cs),
(1327,772,o),
(1153,977,o),
(938,978,cs),
(724,977,o),
(550,772,o),
(550,518,cs),
(550,264,o),
(724,58,o),
(938,58,cs)
);
}
);
width = 1918;
},
{
associatedMasterId = "B1F27B51-9973-4381-9301-4FE46FE1CA59";
background = {
shapes = (
{
closed = 1;
nodes = (
(1111,858,o),
(1204,788,o),
(1204,544,cs),
(1204,303,o),
(1126,186,o),
(930,186,cs),
(742,186,o),
(675,358,o),
(674,544,cs),
(675,713,o),
(771,858,o),
(936,858,cs)
);
},
{
closed = 1;
nodes = (
(433,1434,o),
(99,1094,o),
(98,526,cs),
(99,-61,o),
(422,-393,o),
(1016,-392,cs),
(1164,-393,o),
(1353,-349,o),
(1442,-312,c),
(1402,-178,l),
(1350,-195,o),
(1181,-253,o),
(1022,-254,cs),
(524,-253,o),
(259,26,o),
(258,520,cs),
(259,1007,o),
(529,1297,o),
(986,1298,cs),
(1449,1297,o),
(1667,972,o),
(1666,646,cs),
(1667,314,o),
(1632,166,o),
(1484,166,cs),
(1396,166,o),
(1350,239,o),
(1350,320,cs),
(1350,978,l),
(1196,978,l),
(1196,896,l),
(1186,896,l),
(1167,960,o),
(1053,1015,o),
(908,1000,cs),
(689,977,o),
(524,797,o),
(524,536,cs),
(524,259,o),
(655,47,o),
(908,38,cs),
(1073,32,o),
(1161,113,o),
(1196,198,c),
(1204,198,l),
(1222,73,o),
(1379,29,o),
(1480,30,cs),
(1789,29,o),
(1818,361,o),
(1818,642,cs),
(1818,1041,o),
(1539,1434,o),
(994,1434,cs)
);
}
);
};
guides = (
{
pos = (1384,1940);
},
{
pos = (1272,80);
},
{
pos = (1292,1344);
},
{
pos = (1416,-512);
},
{
angle = 90;
pos = (172,728);
},
{
angle = 90;
pos = (756,736);
},
{
angle = 90;
pos = (1824,736);
},
{
angle = 90;
pos = (2464,876);
},
{
orientation = center;
pos = (2440,712);
}
);
layerId = "9330E9C2-5A13-4EB8-A18E-F8A68B4A0796";
name = "Dec 27 18, 17:59";
shapes = (
{
closed = 0;
nodes = (
(1792,514,l),
(1792,265,o),
(1654,79,o),
(1460,78,cs),
(1345,79,o),
(1327,145,o),
(1326,280,c),
(1326,518,ls),
(1327,772,o),
(1153,977,o),
(940,978,cs),
(724,977,o),
(550,772,o),
(550,518,cs),
(550,264,o),
(724,58,o),
(940,58,cs),
(1151,58,o),
(1327,261,o),
(1326,512,cs),
(1326,994,l)
);
},
{
closed = 0;
nodes = (
(1792,518,l),
(1792,1009,o),
(1419,1408,o),
(958,1408,cs),
(498,1408,o),
(125,1009,o),
(126,518,cs),
(125,26,o),
(498,-372,o),
(958,-372,cs),
(1128,-372,o),
(1286,-319,o),
(1416,-224,cs)
);
}
);
width = 1918;
},
{
associatedMasterId = "B1F27B51-9973-4381-9301-4FE46FE1CA59";
background = {
shapes = (
{
closed = 1;
nodes = (
(1111,858,o),
(1204,788,o),
(1204,544,cs),
(1204,303,o),
(1126,186,o),
(930,186,cs),
(742,186,o),
(675,358,o),
(674,544,cs),
(675,713,o),
(771,858,o),
(936,858,cs)
);
},
{
closed = 1;
nodes = (
(433,1434,o),
(99,1094,o),
(98,526,cs),
(99,-61,o),
(422,-393,o),
(1016,-392,cs),
(1164,-393,o),
(1353,-349,o),
(1442,-312,c),
(1402,-178,l),
(1350,-195,o),
(1181,-253,o),
(1022,-254,cs),
(524,-253,o),
(259,26,o),
(258,520,cs),
(259,1007,o),
(529,1297,o),
(986,1298,cs),
(1449,1297,o),
(1667,972,o),
(1666,646,cs),
(1667,314,o),
(1632,166,o),
(1484,166,cs),
(1396,166,o),
(1350,239,o),
(1350,320,cs),
(1350,978,l),
(1196,978,l),
(1196,896,l),
(1186,896,l),
(1167,960,o),
(1053,1015,o),
(908,1000,cs),
(689,977,o),
(524,797,o),
(524,536,cs),
(524,259,o),
(655,47,o),
(908,38,cs),
(1073,32,o),
(1161,113,o),
(1196,198,c),
(1204,198,l),
(1222,73,o),
(1379,29,o),
(1480,30,cs),
(1789,29,o),
(1818,361,o),
(1818,642,cs),
(1818,1041,o),
(1539,1434,o),
(994,1434,cs)
);
}
);
};
guides = (
{
pos = (1384,1940);
},
{
pos = (1272,80);
},
{
pos = (1292,1344);
},
{
pos = (1416,-512);
},
{
angle = 90;
pos = (172,728);
},
{
angle = 90;
pos = (756,736);
},
{
angle = 90;
pos = (1824,736);
},
{
angle = 90;
pos = (2464,876);
},
{
orientation = center;
pos = (2440,712);
}
);
layerId = "39D8C4D3-01B4-4081-9FD2-F9FB814DC8A5";
name = "Dec 27 18, 18:03";
shapes = (
{
closed = 1;
nodes = (
(102,15,o),
(486,-396,o),
(960,-396,cs),
(1129,-396,o),
(1292,-343,o),
(1432,-244,c),
(1402,-206,l),
(1271,-300,o),
(1120,-349,o),
(960,-350,cs),
(512,-349,o),
(148,38,o),
(148,518,cs),
(148,998,o),
(512,1385,o),
(960,1384,cs),
(1405,1385,o),
(1769,998,o),
(1768,518,cs),
(1769,279,o),
(1638,102,o),
(1460,102,cs),
(1373,102,o),
(1350,137,o),
(1350,280,cs),
(1350,992,l),
(1304,992,l),
(1304,742,l),
(1233,896,o),
(1097,1001,o),
(940,1000,cs),
(710,1001,o),
(527,785,o),
(526,518,cs),
(527,250,o),
(710,35,o),
(940,34,cs),
(1097,35,o),
(1233,140,o),
(1304,290,c),
(1304,280,ls),
(1303,113,o),
(1344,55,o),
(1460,56,cs),
(1667,55,o),
(1815,253,o),
(1816,518,cs),
(1815,1024,o),
(1431,1431,o),
(960,1432,cs),
(486,1431,o),
(102,1024,o),
(102,518,cs)
);
},
{
closed = 1;
nodes = (
(573,759,o),
(739,954,o),
(940,954,cs),
(1140,954,o),
(1303,759,o),
(1304,518,cs),
(1304,512,ls),
(1303,276,o),
(1140,81,o),
(940,82,cs),
(739,81,o),
(573,276,o),
(574,518,cs)
);
}
);
width = 1918;
},
{
layerId = m007;
shapes = (
{
closed = 1;
nodes = (
(1138,-392,o),
(1327,-349,o),
(1416,-312,c),
(1376,-178,l),
(1324,-195,o),
(1155,-254,o),
(996,-254,cs),
(498,-254,o),
(232,26,o),
(232,520,cs),
(232,1007,o),
(503,1298,o),
(960,1298,cs),
(1423,1298,o),
(1640,972,o),
(1640,646,cs),
(1640,314,o),
(1606,166,o),
(1458,166,cs),
(1370,166,o),
(1324,239,o),
(1324,320,cs),
(1324,978,l),
(1170,978,l),
(1170,896,l),
(1160,896,l),
(1126,942,o),
(1041,1002,o),
(910,1002,cs),
(672,1002,o),
(498,802,o),
(498,536,cs),
(498,254,o),
(634,38,o),
(899,38,cs),
(1053,38,o),
(1136,116,o),
(1170,198,c),
(1178,198,l),
(1196,73,o),
(1353,30,o),
(1454,30,cs),
(1763,30,o),
(1792,361,o),
(1792,642,cs),
(1792,1041,o),
(1513,1434,o),
(968,1434,cs),
(407,1434,o),
(72,1094,o),
(72,526,cs),
(72,-61,o),
(396,-392,o),
(990,-392,cs)
);
},
{
closed = 1;
nodes = (
(716,186,o),
(648,358,o),
(648,544,cs),
(648,713,o),
(745,858,o),
(910,858,cs),
(1085,858,o),
(1178,788,o),
(1178,544,cs),
(1178,303,o),
(1100,186,o),
(904,186,cs)
);
}
);
width = 1864;
},
{
layerId = m009;
shapes = (
{
closed = 1;
nodes = (
(1351,-454,o),
(1563,-401,o),
(1654,-340,c),
(1562,-78,l),
(1467,-119,o),
(1301,-152,o),
(1128,-152,cs),
(670,-152,o),
(416,81,o),
(416,518,cs),
(416,887,o),
(632,1216,o),
(1134,1216,cs),
(1409,1216,o),
(1804,1155,o),
(1804,610,cs),
(1804,358,o),
(1741,242,o),
(1672,242,cs),
(1647,242,o),
(1626,256,o),
(1626,314,cs),
(1626,1058,l),
(1350,1058,l),
(1350,978,l),
(1338,978,l),
(1315,1030,o),
(1190,1082,o),
(1048,1082,cs),
(779,1082,o),
(534,888,o),
(534,510,cs),
(534,165,o),
(737,-45,o),
(1027,-45,cs),
(1181,-45,o),
(1345,13,o),
(1376,96,c),
(1384,96,l),
(1398,21,o),
(1405,-55,o),
(1560,-55,cs),
(1927,-55,o),
(2118,185,o),
(2118,584,cs),
(2118,1181,o),
(1735,1516,o),
(1134,1516,cs),
(466,1516,o),
(90,1097,o),
(90,500,cs),
(90,-99,o),
(469,-454,o),
(1104,-454,cs)
);
},
{
closed = 1;
nodes = (
(914,256,o),
(852,384,o),
(852,518,cs),
(852,681,o),
(941,766,o),
(1100,766,cs),
(1290,766,o),
(1320,649,o),
(1320,520,cs),
(1320,352,o),
(1272,256,o),
(1104,256,cs)
);
}
);
width = 2208;
},
{
layerId = m011;
shapes = (
{
closed = 1;
nodes = (
(1065,-396,o),
(1228,-343,o),
(1368,-244,c),
(1338,-206,l),
(1207,-300,o),
(1056,-350,o),
(896,-350,cs),
(448,-350,o),
(84,38,o),
(84,518,cs),
(84,998,o),
(448,1386,o),
(896,1386,cs),
(1341,1386,o),
(1706,998,o),
(1706,518,cs),
(1706,279,o),
(1574,102,o),
(1396,102,cs),
(1309,102,o),
(1286,137,o),
(1286,280,cs),
(1286,986,l),
(1240,986,l),
(1240,754,l),
(1234,754,l),
(1164,902,o),
(1030,1000,o),
(876,1000,cs),
(646,1000,o),
(463,785,o),
(463,518,cs),
(463,250,o),
(646,34,o),
(876,34,cs),
(1030,34,o),
(1164,134,o),
(1234,280,c),
(1240,280,l),
(1239,113,o),
(1280,56,o),
(1396,56,cs),
(1603,56,o),
(1752,253,o),
(1752,518,cs),
(1752,1024,o),
(1367,1432,o),
(896,1432,cs),
(422,1432,o),
(38,1024,o),
(38,518,cs),
(38,15,o),
(422,-396,o),
(896,-396,cs)
);
},
{
closed = 1;
nodes = (
(675,80,o),
(509,276,o),
(509,518,cs),
(509,759,o),
(675,954,o),
(876,954,cs),
(1076,954,o),
(1240,759,o),
(1240,518,cs),
(1240,275,o),
(1077,80,o),
(876,80,cs)
);
}
);
width = 1790;
},
{
associatedMasterId = m011;
background = {
shapes = (
{
closed = 1;
nodes = (
(1111,858,o),
(1204,788,o),
(1204,544,cs),
(1204,303,o),
(1126,186,o),
(930,186,cs),
(742,186,o),
(675,358,o),
(674,544,cs),
(675,713,o),
(771,858,o),
(936,858,cs)
);
},
{
closed = 1;
nodes = (
(433,1434,o),
(99,1094,o),
(98,526,cs),
(99,-61,o),
(422,-393,o),
(1016,-392,cs),
(1164,-393,o),
(1353,-349,o),
(1442,-312,c),
(1402,-178,l),
(1350,-195,o),
(1181,-253,o),
(1022,-254,cs),
(524,-253,o),
(259,26,o),
(258,520,cs),
(259,1007,o),
(529,1297,o),
(986,1298,cs),
(1449,1297,o),
(1667,972,o),
(1666,646,cs),
(1667,314,o),
(1632,166,o),
(1484,166,cs),
(1396,166,o),
(1350,239,o),
(1350,320,cs),
(1350,978,l),
(1196,978,l),
(1196,896,l),
(1186,896,l),
(1167,960,o),
(1053,1015,o),
(908,1000,cs),
(689,977,o),
(524,797,o),
(524,536,cs),
(524,259,o),
(655,47,o),
(908,38,cs),
(1073,32,o),
(1161,113,o),
(1196,198,c),
(1204,198,l),
(1222,73,o),
(1379,29,o),
(1480,30,cs),
(1789,29,o),
(1818,361,o),
(1818,642,cs),
(1818,1041,o),
(1539,1434,o),
(994,1434,cs)
);
}
);
};
guides = (
{
pos = (1384,1940);
},
{
pos = (1272,80);
},
{
pos = (1292,1344);
},
{
pos = (1416,-512);
},
{
angle = 90;
pos = (172,728);
},
{
angle = 90;
pos = (756,736);
},
{
angle = 90;
pos = (1824,736);
},
{
angle = 90;
pos = (2464,876);
},
{
orientation = center;
pos = (2440,712);
}
);
layerId = "E184B990-70CC-46D0-A373-72F57C73D86D";
name = "Dec 27 18, 17:10";
shapes = (
{
closed = 1;
nodes = (
(1419,-372,o),
(1792,26,o),
(1792,518,cs),
(1792,1009,o),
(1419,1408,o),
(958,1408,cs),
(498,1408,o),
(125,1009,o),
(126,518,cs),
(125,26,o),
(498,-372,o),
(958,-372,cs)
);
},
{
closed = 1;
nodes = (
(1153,58,o),
(1327,264,o),
(1326,518,cs),
(1327,772,o),
(1153,977,o),
(938,978,cs),
(724,977,o),
(550,772,o),
(550,518,cs),
(550,264,o),
(724,58,o),
(938,58,cs)
);
}
);
width = 1918;
},
{
associatedMasterId = m011;
background = {
shapes = (
{
closed = 1;
nodes = (
(1111,858,o),
(1204,788,o),
(1204,544,cs),
(1204,303,o),
(1126,186,o),
(930,186,cs),
(742,186,o),
(675,358,o),
(674,544,cs),
(675,713,o),
(771,858,o),
(936,858,cs)
);
},
{
closed = 1;
nodes = (
(433,1434,o),
(99,1094,o),
(98,526,cs),
(99,-61,o),
(422,-393,o),
(1016,-392,cs),
(1164,-393,o),
(1353,-349,o),
(1442,-312,c),
(1402,-178,l),
(1350,-195,o),
(1181,-253,o),
(1022,-254,cs),
(524,-253,o),
(259,26,o),
(258,520,cs),
(259,1007,o),
(529,1297,o),
(986,1298,cs),
(1449,1297,o),
(1667,972,o),
(1666,646,cs),
(1667,314,o),
(1632,166,o),
(1484,166,cs),
(1396,166,o),
(1350,239,o),
(1350,320,cs),
(1350,978,l),
(1196,978,l),
(1196,896,l),
(1186,896,l),
(1167,960,o),
(1053,1015,o),
(908,1000,cs),
(689,977,o),
(524,797,o),
(524,536,cs),
(524,259,o),
(655,47,o),
(908,38,cs),
(1073,32,o),
(1161,113,o),
(1196,198,c),
(1204,198,l),
(1222,73,o),
(1379,29,o),
(1480,30,cs),
(1789,29,o),
(1818,361,o),
(1818,642,cs),
(1818,1041,o),
(1539,1434,o),
(994,1434,cs)
);
}
);
};
guides = (
{
pos = (1384,1940);
},
{
pos = (1272,80);
},
{
pos = (1292,1344);
},
{
pos = (1416,-512);
},
{
angle = 90;
pos = (172,728);
},
{
angle = 90;
pos = (756,736);
},
{
angle = 90;
pos = (1824,736);
},
{
angle = 90;
pos = (2464,876);
},
{
orientation = center;
pos = (2440,712);
}
);
layerId = "B8CDDB73-5500-48E3-8CA5-38B6A6EE42DD";
name = "Dec 27 18, 17:59";
shapes = (
{
closed = 0;
nodes = (
(1792,514,l),
(1792,265,o),
(1654,79,o),
(1460,78,cs),
(1345,79,o),
(1327,145,o),
(1326,280,c),
(1326,518,ls),
(1327,772,o),
(1153,977,o),
(940,978,cs),
(724,977,o),
(550,772,o),
(550,518,cs),
(550,264,o),
(724,58,o),
(940,58,cs),
(1151,58,o),
(1327,261,o),
(1326,512,cs),
(1326,994,l)
);
},
{
closed = 0;
nodes = (
(1792,518,l),
(1792,1009,o),
(1419,1408,o),
(958,1408,cs),
(498,1408,o),
(125,1009,o),
(126,518,cs),
(125,26,o),
(498,-372,o),
(958,-372,cs),
(1128,-372,o),
(1286,-319,o),
(1416,-224,cs)
);
}
);
width = 1918;
},
{
associatedMasterId = m011;
background = {
shapes = (
{
closed = 1;
nodes = (
(1111,858,o),
(1204,788,o),
(1204,544,cs),
(1204,303,o),
(1126,186,o),
(930,186,cs),
(742,186,o),
(675,358,o),
(674,544,cs),
(675,713,o),
(771,858,o),
(936,858,cs)
);
},
{
closed = 1;
nodes = (
(433,1434,o),
(99,1094,o),
(98,526,cs),
(99,-61,o),
(422,-393,o),
(1016,-392,cs),
(1164,-393,o),
(1353,-349,o),
(1442,-312,c),
(1402,-178,l),
(1350,-195,o),
(1181,-253,o),
(1022,-254,cs),
(524,-253,o),
(259,26,o),
(258,520,cs),
(259,1007,o),
(529,1297,o),
(986,1298,cs),
(1449,1297,o),
(1667,972,o),
(1666,646,cs),
(1667,314,o),
(1632,166,o),
(1484,166,cs),
(1396,166,o),
(1350,239,o),
(1350,320,cs),
(1350,978,l),
(1196,978,l),
(1196,896,l),
(1186,896,l),
(1167,960,o),
(1053,1015,o),
(908,1000,cs),
(689,977,o),
(524,797,o),
(524,536,cs),
(524,259,o),
(655,47,o),
(908,38,cs),
(1073,32,o),
(1161,113,o),
(1196,198,c),
(1204,198,l),
(1222,73,o),
(1379,29,o),
(1480,30,cs),
(1789,29,o),
(1818,361,o),
(1818,642,cs),
(1818,1041,o),
(1539,1434,o),
(994,1434,cs)
);
}
);
};
guides = (
{
pos = (1384,1940);
},
{
pos = (1272,80);
},
{
pos = (1292,1344);
},
{
pos = (1416,-512);
},
{
angle = 90;
pos = (172,728);
},
{
angle = 90;
pos = (756,736);
},
{
angle = 90;
pos = (1824,736);
},
{
angle = 90;
pos = (2464,876);
},
{
orientation = center;
pos = (2440,712);
}
);
layerId = "B2232B34-5C69-457B-82F0-2F2BA59893CD";
name = "Dec 27 18, 18:03";
shapes = (
{
closed = 1;
nodes = (
(102,15,o),
(486,-396,o),
(960,-396,cs),
(1129,-396,o),
(1292,-343,o),
(1432,-244,c),
(1402,-206,l),
(1271,-300,o),
(1120,-349,o),
(960,-350,cs),
(512,-349,o),
(148,38,o),
(148,518,cs),
(148,998,o),
(512,1385,o),
(960,1384,cs),
(1405,1385,o),
(1769,998,o),
(1768,518,cs),
(1769,279,o),
(1638,102,o),
(1460,102,cs),
(1373,102,o),
(1350,137,o),
(1350,280,cs),
(1350,992,l),
(1304,992,l),
(1304,742,l),
(1233,896,o),
(1097,1001,o),
(940,1000,cs),
(710,1001,o),
(527,785,o),
(526,518,cs),
(527,250,o),
(710,35,o),
(940,34,cs),
(1097,35,o),
(1233,140,o),
(1304,290,c),
(1304,280,ls),
(1303,113,o),
(1344,55,o),
(1460,56,cs),
(1667,55,o),
(1815,253,o),
(1816,518,cs),
(1815,1024,o),
(1431,1431,o),
(960,1432,cs),
(486,1431,o),
(102,1024,o),
(102,518,cs)
);
},
{
closed = 1;
nodes = (
(573,759,o),
(739,954,o),
(940,954,cs),
(1140,954,o),
(1303,759,o),
(1304,518,cs),
(1304,512,ls),
(1303,276,o),
(1140,81,o),
(940,82,cs),
(739,81,o),
(573,276,o),
(574,518,cs)
);
}
);
width = 1918;
}
);
tags = (
"TODO-opsz"
);
unicode = 64;
userData = {
"interface.width-adjustments" = (
-16
);
};
}
{
color = (219,235,247,1);
glyphname = A;
kernLeft = A;
kernRight = A;
layers = (
{
anchors = (
{
name = _center;
pos = (692,745);
},
{
name = bottom;
pos = (692,0);
},
{
name = ogonek;
pos = (1332,0);
},
{
name = tonos;
pos = (494,1490);
},
{
name = top;
pos = (692,1676);
}
);
guides = (
{
angle = 90;
pos = (1896,1832);
}
);
layerId = "C698F293-3EC0-4A5A-A3A0-0FDB1F5CF265";
shapes = (
{
closed = 1;
nodes = (
(686,1254,l),
(698,1254,l),
(1144,0,l),
(1332,0,l),
(786,1490,l),
(600,1490,l),
(52,0,l),
(242,0,l)
);
},
{
closed = 1;
nodes = (
(312,422,l),
(1074,422,l),
(1074,582,l),
(312,582,l)
);
}
);
width = 1384;
},
{
anchors = (
{
name = _center;
pos = (814,745);
},
{
name = bottom;
pos = (814,0);
},
{
name = ogonek;
pos = (1582,0);
},
{
name = tonos;
pos = (460,1490);
},
{
name = top;
pos = (814,1676);
}
);
background = {
shapes = (
{
pos = (-1436,0);
ref = V;
}
);
};
guides = (
{
pos = (1036,1364);
},
{
orientation = center;
angle = 90;
pos = (1020,964);
}
);
layerId = "5C20EF92-B63D-42A8-8878-93C2863E0093";
shapes = (
{
closed = 1;
nodes = (
(808,1080,l),
(820,1080,l),
(1146,0,l),
(1582,0,l),
(1090,1490,l),
(538,1490,l),
(46,0,l),
(482,0,l)
);
},
{
closed = 1;
nodes = (
(402,286,l),
(1222,286,l),
(1222,588,l),
(402,588,l)
);
}
);
width = 1628;
},
{
anchors = (
{
name = _center;
pos = (631,745);
},
{
name = bottom;
pos = (632,0);
},
{
name = ogonek;
pos = (1196,0);
},
{
name = tonos;
pos = (526,1490);
},
{
name = top;
pos = (632,1676);
}
);
layerId = "B1F27B51-9973-4381-9301-4FE46FE1CA59";
shapes = (
{
closed = 1;
nodes = (
(628,1432,l),
(634,1432,l),
(1146,0,l),
(1196,0,l),
(664,1490,l),
(600,1490,l),
(66,0,l),
(116,0,l)
);
},
{
closed = 1;
nodes = (
(286,504,l),
(978,504,l),
(978,550,l),
(286,550,l)
);
}
);
width = 1262;
},
{
anchors = (
{
name = _center;
pos = (669,745);
},
{
name = bottom;
pos = (668,0);
},
{
name = ogonek;
pos = (1318,0);
},
{
name = tonos;
pos = (470,1490);
},
{
name = top;
pos = (668,1676);
}
);
guides = (
{
angle = 90;
pos = (1716,1832);
},
{
orientation = center;
angle = 90;
pos = (-7546,144);
},
{
angle = 90;
pos = (668,1584);
}
);
layerId = m007;
shapes = (
{
closed = 1;
nodes = (
(666,1290,l),
(670,1290,l),
(1124,0,l),
(1318,0,l),
(771,1490,l),
(567,1490,l),
(20,0,l),
(210,0,l)
);
},
{
closed = 1;
nodes = (
(304,448,l),
(1034,448,l),
(1034,608,l),
(304,608,l)
);
}
);
width = 1338;
},
{
anchors = (
{
name = _center;
pos = (567,745);
},
{
name = bottom;
pos = (568,0);
},
{
name = ogonek;
pos = (1132,0);
},
{
name = tonos;
pos = (462,1490);
},
{
name = top;
pos = (568,1676);
}
);
guides = (
{
angle = 90;
pos = (503,1408);
}
);
layerId = m011;
name = "Thin Display";
shapes = (
{
closed = 1;
nodes = (
(566,1438,l),
(568,1438,l),
(1082,0,l),
(1132,0,l),
(599,1490,l),
(535,1490,l),
(2,0,l),
(52,0,l)
);
},
{
closed = 1;
nodes = (
(222,512,l),
(914,512,l),
(914,558,l),
(222,558,l)
);
}
);
width = 1134;
},
{
anchors = (
{
name = bottom;
pos = (798,0);
},
{
name = ogonek;
pos = (1566,0);
},
{
name = tonos;
pos = (444,1490);
},
{
name = top;
pos = (798,1676);
}
);
associatedMasterId = m009;
guides = (
{
angle = 90;
pos = (798,1575);
}
);
layerId = "4D42B2A4-8B65-416E-BCAF-630280BBC2AB";
name = "Jun 2, 22, 16:35";
shapes = (
{
closed = 1;
nodes = (
(790,1048,l),
(794,1048,l),
(1125,0,l),
(1566,0,l),
(1026,1490,l),
(570,1490,l),
(30,0,l),
(458,0,l)
);
},
{
closed = 1;
nodes = (
(386,238,l),
(1206,238,l),
(1206,540,l),
(386,540,l)
);
}
);
width = 1598;
},
{
anchors = (
{
name = _center;
pos = (768,745);
},
{
name = bottom;
pos = (768,0);
},
{
name = ogonek;
pos = (1536,0);
},
{
name = tonos;
pos = (414,1490);
},
{
name = top;
pos = (768,1676);
}
);
guides = (
{
angle = 90;
pos = (768,1575);
}
);
layerId = m009;
name = "Black Display";
shapes = (
{
closed = 1;
nodes = (
(760,1080,l),
(764,1080,l),
(1095,0,l),
(1536,0,l),
(1020,1490,l),
(516,1490,l),
(0,0,l),
(428,0,l)
);
},
{
closed = 1;
nodes = (
(356,270,l),
(1176,270,l),
(1176,572,l),
(356,572,l)
);
}
);
width = 1536;
}
);
metricRight = "=|A";
unicode = 65;
userData = {
com.typemytype.robofont.guideline.magnetic.9EkLRXjahr = 5;
"interface.width-adjustments" = (
-16
);
};
}
{
color = (219,235,247,1);
glyphname = B;
kernLeft = B;
kernRight = B;
layers = (
{
anchors = (
{
name = _center;
pos = (666,745);
},
{
name = bottom;
pos = (646,0);
},
{
name = cross;
pos = (270,419);
},
{
name = top;
pos = (638,1676);
},
{
name = topl;
pos = (180,1490);
}
);
guides = (
{
angle = 90;
pos = (924,1772);
},
{
angle = 90;
pos = (1612,1340);
}
);
layerId = "C698F293-3EC0-4A5A-A3A0-0FDB1F5CF265";
shapes = (
{
closed = 1;
nodes = (
(718,0,ls),
(1071,0,o),
(1216,172,o),
(1216,396,cs),
(1216,631,o),
(1053,759,o),
(916,768,c),
(916,782,l),
(1044,817,o),
(1158,902,o),
(1158,1094,cs),
(1158,1312,o),
(1012,1490,o),
(702,1490,cs),
(180,1490,l),
(180,0,l)
);
},
{
closed = 1;
nodes = (
(360,678,l),
(728,678,ls),
(922,678,o),
(1044,547,o),
(1044,396,cs),
(1044,265,o),
(954,160,o),
(718,160,cs),
(360,160,l)
);
},
{
closed = 1;
nodes = (
(360,1330,l),
(702,1330,ls),
(899,1330,o),
(986,1225,o),
(986,1094,cs),
(986,937,o),
(858,834,o),
(696,834,cs),
(360,834,l)
);
}
);
width = 1332;
},
{
anchors = (
{
name = _center;
pos = (684,745);
},
{
name = bottom;
pos = (664,0);
},
{
name = cross;
pos = (298,480);
},
{
name = top;
pos = (666,1676);
},
{
name = topl;
pos = (96,1490);
}
);
guides = (
{
orientation = center;
angle = 90;
pos = (760,716);
}
);
layerId = "5C20EF92-B63D-42A8-8878-93C2863E0093";
shapes = (
{
closed = 1;
nodes = (
(798,0,ls),
(1121,0,o),
(1320,177,o),
(1320,422,cs),
(1320,632,o),
(1166,769,o),
(974,776,c),
(974,792,l),
(1147,825,o),
(1262,953,o),
(1262,1118,cs),
(1262,1344,o),
(1082,1490,o),
(742,1490,cs),
(96,1490,l),
(96,0,l)
);
},
{
closed = 1;
nodes = (
(500,638,l),
(696,638,ls),
(818,638,o),
(894,579,o),
(894,474,cs),
(894,375,o),
(825,322,o),
(690,322,cs),
(500,322,l)
);
},
{
closed = 1;
nodes = (
(500,1172,l),
(672,1172,ls),
(772,1172,o),
(846,1121,o),
(846,1030,cs),
(846,938,o),
(772,888,o),
(666,888,cs),
(500,888,l)
);
}
);
width = 1368;
},
{
anchors = (
{
name = _center;
pos = (656,745);
},
{
name = bottom;
pos = (638,0);
},
{
name = cross;
pos = (256,390);
},
{
name = top;
pos = (620,1676);
},
{
name = topl;
pos = (232,1490);
}
);
guides = (
{
orientation = center;
angle = 180;
pos = (944,1040);
}
);
layerId = "B1F27B51-9973-4381-9301-4FE46FE1CA59";
shapes = (
{
closed = 1;
nodes = (
(748,0,ls),
(1004,0,o),
(1154,151,o),
(1154,382,cs),
(1154,588,o),
(1018,740,o),
(870,754,c),
(870,760,l),
(1014,796,o),
(1096,936,o),
(1096,1112,cs),
(1096,1346,o),
(948,1490,o),
(698,1490,cs),
(232,1490,l),
(232,0,l)
);
},
{
closed = 1;
nodes = (
(280,734,l),
(748,734,ls),
(958,734,o),
(1108,588,o),
(1108,382,cs),
(1108,180,o),
(966,46,o),
(748,46,cs),
(280,46,l)
);
},
{
closed = 1;
nodes = (
(280,1442,l),
(698,1442,ls),
(915,1442,o),
(1050,1323,o),
(1050,1112,cs),
(1050,934,o),
(951,780,o),
(748,780,cs),
(280,780,l)
);
}
);
width = 1312;
},
{
anchors = (
{
name = _center;
pos = (634,745);
},
{
name = bottom;
pos = (614,0);
},
{
name = cross;
pos = (238,419);
},
{
name = top;
pos = (606,1676);
},
{
name = topl;
pos = (148,1490);
}
);
guides = (
{
angle = 90;
pos = (632,1772);
},
{
angle = 90;
pos = (1320,1340);
}
);
layerId = m007;
shapes = (
{
closed = 1;
nodes = (
(686,0,ls),
(1039,0,o),
(1184,172,o),
(1184,396,cs),
(1184,631,o),
(1021,759,o),
(884,768,c),
(884,782,l),
(1012,817,o),
(1126,902,o),
(1126,1094,cs),
(1126,1312,o),
(980,1490,o),
(670,1490,cs),
(148,1490,l),
(148,0,l)
);
},
{
closed = 1;
nodes = (
(328,678,l),
(696,678,ls),
(890,678,o),
(1012,547,o),
(1012,396,cs),
(1012,265,o),
(922,160,o),
(686,160,cs),
(328,160,l)
);
},
{
closed = 1;
nodes = (
(328,1330,l),
(670,1330,ls),
(867,1330,o),
(954,1225,o),
(954,1094,cs),
(954,937,o),
(826,834,o),
(664,834,cs),
(328,834,l)
);
}
);
width = 1268;
},
{
anchors = (
{
name = _center;
pos = (664,745);
},
{
name = bottom;
pos = (648,0);
},
{
name = cross;
pos = (282,459);
},
{
name = top;
pos = (650,1676);
},
{
name = topl;
pos = (80,1490);
}
);
guides = (
{
orientation = center;
angle = 90;
pos = (-4054,716);
}
);
layerId = m009;
shapes = (
{
closed = 1;
nodes = (
(782,0,ls),
(1105,0,o),
(1296,178,o),
(1296,422,cs),
(1296,632,o),
(1150,776,o),
(958,783,c),
(958,785,l),
(1131,818,o),
(1246,945,o),
(1246,1118,cs),
(1246,1335,o),
(1066,1490,o),
(726,1490,cs),
(80,1490,l),
(80,0,l)
);
},
{
closed = 1;
nodes = (
(484,606,l),
(704,606,ls),
(805,606,o),
(870,548,o),
(870,459,cs),
(870,370,o),
(805,312,o),
(704,312,cs),
(484,312,l)
);
},
{
closed = 1;
nodes = (
(484,1178,l),
(679,1178,ls),
(771,1178,o),
(830,1123,o),
(830,1039,cs),
(830,955,o),
(771,900,o),
(679,900,cs),
(484,900,l)
);
}
);
width = 1328;
},
{
anchors = (
{
name = _center;
pos = (590,745);
},
{
name = bottom;
pos = (572,0);
},
{
name = cross;
pos = (190,390);
},
{
name = top;
pos = (554,1676);
},
{
name = topl;
pos = (168,1490);
}
);
guides = (
{
orientation = center;
angle = 180;
pos = (-1026,1040);
}
);
layerId = m011;
shapes = (
{
closed = 1;
nodes = (
(682,0,ls),
(938,0,o),
(1088,151,o),
(1088,382,cs),
(1088,588,o),
(946,734,o),
(802,756,c),
(802,758,l),
(946,794,o),
(1030,936,o),
(1030,1112,cs),
(1030,1346,o),
(882,1490,o),
(632,1490,cs),
(168,1490,l),
(168,0,l)
);
},
{
closed = 1;
nodes = (
(214,734,l),
(682,734,ls),
(892,734,o),
(1042,588,o),
(1042,382,cs),
(1042,180,o),
(900,46,o),
(682,46,cs),
(214,46,l)
);
},
{
closed = 1;
nodes = (
(214,1444,l),
(632,1444,ls),
(849,1444,o),
(984,1323,o),
(984,1112,cs),
(984,934,o),
(885,780,o),
(682,780,cs),
(214,780,l)
);
}
);
width = 1182;
}
);
metricLeft = H;
unicode = 66;
userData = {
com.typemytype.robofont.guideline.magnetic.olHMUUD5VH = 5;
com.typemytype.robofont.guideline.magnetic.rWKPWS6RQH = 5;
"interface.width-adjustments" = (
-16
);
};
}
{
color = (219,235,247,1);
glyphname = C;
kernLeft = C;
kernRight = C;
layers = (
{
anchors = (
{
name = _center;
pos = (780,745);
},
{
name = cedilla;
pos = (780,-12);
},
{
name = center;
pos = (778,745);
},
{
name = top;
pos = (780,1676);
},
{
name = topr;
pos = (1378,1024);
}
);
background = {
shapes = (
{
ref = O;
}
);
};
guides = (
{
angle = 90;
pos = (1072,1432);
}
);
layerId = "C698F293-3EC0-4A5A-A3A0-0FDB1F5CF265";
shapes = (
{
closed = 1;
nodes = (
(1079,-20,o),
(1324,160,o),
(1378,466,c),
(1198,466,l),
(1155,259,o),
(977,148,o),
(780,148,cs),
(509,148,o),
(296,358,o),
(296,744,cs),
(296,1132,o),
(509,1342,o),
(780,1342,cs),
(977,1342,o),
(1155,1231,o),
(1198,1024,c),
(1378,1024,l),
(1324,1329,o),
(1079,1510,o),
(780,1510,cs),
(399,1510,o),
(122,1216,o),
(122,744,cs),
(122,273,o),
(399,-20,o),
(780,-20,cs)
);
}
);
width = 1490;
},
{
anchors = (
{
name = _center;
pos = (808,745);
},
{
name = cedilla;
pos = (800,6);
},
{
name = center;
pos = (804,745);
},
{
name = top;
pos = (808,1676);
},
{
name = topr;
pos = (1486,930);
}
);
background = {
hints = (
{
horizontal = 1;
place = (-20, 21);
target = up;
type = BottomGhost;
},
{
horizontal = 1;
place = (1510, -20);
target = down;
type = TopGhost;
},
{
horizontal = 1;
options = 4;
place = (-20, 0);
type = TTSnap;
},
{
horizontal = 1;
options = 4;
place = (1510, 0);
type = TTSnap;
},
{
horizontal = 1;
place = (-20, 21);
target = up;
type = BottomGhost;
},
{
horizontal = 1;
place = (1510, -20);
target = down;
type = TopGhost;
},
{
horizontal = 1;
options = 4;
place = (-20, 0);
type = TTSnap;
},
{
horizontal = 1;
options = 4;
place = (1510, 0);
type = TTSnap;
},
{
horizontal = 1;
place = (-20, 21);
target = up;
type = BottomGhost;
},
{
horizontal = 1;
place = (1510, -20);
target = down;
type = TopGhost;
},
{
horizontal = 1;
options = 4;
place = (-20, 0);
type = TTSnap;
},
{
horizontal = 1;
options = 4;
place = (1510, 0);
type = TTSnap;
}
);
shapes = (
{
ref = O;
}
);
};
guides = (
{
pos = (1160,1024);
},
{
pos = (12,0);
}
);
layerId = "5C20EF92-B63D-42A8-8878-93C2863E0093";
shapes = (
{
closed = 1;
nodes = (
(1245,-20,o),
(1466,284,o),
(1486,538,c),
(1076,538,l),
(1056,411,o),
(966,332,o),
(818,332,cs),
(620,332,o),
(506,471,o),
(506,744,cs),
(506,1004,o),
(617,1158,o),
(820,1158,cs),
(976,1158,o),
(1065,1066,o),
(1076,930,c),
(1486,930,l),
(1455,1300,o),
(1184,1510,o),
(808,1510,cs),
(407,1510,o),
(90,1242,o),
(90,744,cs),
(90,249,o),
(399,-20,o),
(808,-20,cs)
);
}
);
width = 1574;
},
{
anchors = (
{
name = _center;
pos = (766,745);
},
{
name = cedilla;
pos = (766,0);
},
{
name = center;
pos = (760,745);
},
{
name = top;
pos = (766,1676);
},
{
name = topr;
pos = (1336,1024);
}
);
layerId = "B1F27B51-9973-4381-9301-4FE46FE1CA59";
shapes = (
{
closed = 1;
nodes = (
(1116,-20,o),
(1299,256,o),
(1336,466,c),
(1289,466,l),
(1249,263,o),
(1074,26,o),
(766,26,cs),
(460,26,o),
(194,276,o),
(194,744,cs),
(194,1207,o),
(460,1464,o),
(766,1464,cs),
(1075,1464,o),
(1249,1228,o),
(1289,1024,c),
(1336,1024,l),
(1299,1236,o),
(1116,1510,o),
(766,1510,cs),
(399,1510,o),
(148,1201,o),
(148,744,cs),
(148,288,o),
(399,-20,o),
(766,-20,cs)
);
}
);
width = 1480;
},
{
anchors = (
{
name = _center;
pos = (771,745);
},
{
name = cedilla;
pos = (758,0);
},
{
name = center;
pos = (769,745);
},
{
name = top;
pos = (758,1676);
},
{
name = topr;
pos = (1393,1008);
}
);
background = {
shapes = (
{
ref = O;
}
);
};
guides = (
{
angle = 90;
pos = (758,1432);
},
{
pos = (1240,480);
},
{
pos = (1261,1008);
}
);
layerId = m007;
shapes = (
{
closed = 1;
nodes = (
(1087,-24,o),
(1341,184,o),
(1393,480,c),
(1210,480,l),
(1163,281,o),
(989,144,o),
(771,144,cs),
(473,144,o),
(270,390,o),
(270,744,cs),
(270,1100,o),
(473,1346,o),
(771,1346,cs),
(990,1346,o),
(1163,1208,o),
(1209,1008,c),
(1393,1008,l),
(1341,1306,o),
(1087,1514,o),
(771,1514,cs),
(374,1514,o),
(90,1195,o),
(90,744,cs),
(90,296,o),
(375,-24,o),
(771,-24,cs)
);
}
);
width = 1479;
},
{
anchors = (
{
name = _center;
pos = (759,745);
},
{
name = cedilla;
pos = (750,6);
},
{
name = center;
pos = (757,745);
},
{
name = top;
pos = (758,1676);
},
{
name = topr;
pos = (1456,928);
}
);
background = {
hints = (
{
horizontal = 1;
place = (-20, 21);
target = up;
type = BottomGhost;
},
{
horizontal = 1;
place = (1510, -20);
target = down;
type = TopGhost;
},
{
horizontal = 1;
options = 4;
place = (-20, 0);
type = TTSnap;
},
{
horizontal = 1;
options = 4;
place = (1510, 0);
type = TTSnap;
},
{
horizontal = 1;
place = (-20, 21);
target = up;
type = BottomGhost;
},
{
horizontal = 1;
place = (1510, -20);
target = down;
type = TopGhost;
},
{
horizontal = 1;
options = 4;
place = (-20, 0);
type = TTSnap;
},
{
horizontal = 1;
options = 4;
place = (1510, 0);
type = TTSnap;
},
{
horizontal = 1;
place = (-20, 21);
target = up;
type = BottomGhost;
},
{
horizontal = 1;
place = (1510, -20);
target = down;
type = TopGhost;
},
{
horizontal = 1;
options = 4;
place = (-20, 0);
type = TTSnap;
},
{
horizontal = 1;
options = 4;
place = (1510, 0);
type = TTSnap;
}
);
shapes = (
{
ref = O;
}
);
};
guides = (
{
pos = (-118,0);
},
{
pos = (1158,560);
},
{
pos = (1158,928);
}
);
layerId = m009;
shapes = (
{
closed = 1;
nodes = (
(1145,-24,o),
(1414,208,o),
(1456,560,c),
(1037,560,l),
(1011,420,o),
(915,336,o),
(772,336,cs),
(569,336,o),
(460,484,o),
(460,744,cs),
(460,1005,o),
(570,1154,o),
(772,1154,cs),
(915,1154,o),
(1012,1069,o),
(1037,928,c),
(1456,928,l),
(1415,1280,o),
(1145,1514,o),
(764,1514,cs),
(357,1514,o),
(40,1242,o),
(40,744,cs),
(40,250,o),
(357,-24,o),
(764,-24,cs)
);
}
);
width = 1508;
},
{
anchors = (
{
name = cedilla;
pos = (780,-12);
},
{
name = top;
pos = (780,1676);
}
);
associatedMasterId = m007;
background = {
shapes = (
{
ref = O;
}
);
};
guides = (
{
angle = 90;
pos = (1072,1432);
}
);
layerId = "E1A7BCA7-208B-453C-8FC9-3606455C4364";
metricRight = "=O";
name = "May 30, 22, 10:48";
shapes = (
{
closed = 1;
nodes = (
(1137,-16,o),
(1381,214,o),
(1408,536,c),
(1226,536,l),
(1206,311,o),
(1021,148,o),
(800,148,cs),
(478,148,o),
(302,380,o),
(302,744,cs),
(302,1108,o),
(488,1340,o),
(800,1340,cs),
(1013,1340,o),
(1186,1187,o),
(1226,952,c),
(1408,952,l),
(1371,1294,o),
(1109,1504,o),
(800,1504,cs),
(390,1504,o),
(122,1211,o),
(122,744,cs),
(122,277,o),
(380,-16,o),
(800,-16,cs)
);
}
);
width = 1530;
},
{
anchors = (
{
name = cedilla;
pos = (780,-12);
},
{
name = top;
pos = (780,1676);
}
);
associatedMasterId = m007;
background = {
shapes = (
{
closed = 1;
nodes = (
(1324,1329,o),
(1079,1510,o),
(780,1510,cs),
(399,1510,o),
(122,1216,o),
(122,744,c),
(122,273,o),
(399,-20,o),
(780,-20,cs),
(1079,-20,o),
(1324,160,o),
(1378,466,c),
(1198,466,l),
(1155,259,o),
(977,148,o),
(780,148,cs),
(509,148,o),
(297,358,o),
(296,744,c),
(297,1132,o),
(509,1341,o),
(780,1342,cs),
(977,1341,o),
(1155,1231,o),
(1198,1024,c),
(1378,1024,l)
);
}
);
};
guides = (
{
angle = 90;
pos = (1072,1432);
},
{
pos = (1526,480);
},
{
pos = (1547,1008);
}
);
layerId = "E2232249-48EF-40A1-A2EC-7EC4A2B9E352";
name = "May 30, 22, 10:52";
shapes = (
{
closed = 1;
nodes = (
(1438,1216,o),
(1162,1506,o),
(781,1506,cs),
(400,1506,o),
(122,1216,o),
(122,744,cs),
(122,273,o),
(400,-16,o),
(781,-16,cs),
(1162,-16,o),
(1438,273,o),
(1438,744,cs)
);
},
{
closed = 1;
nodes = (
(1265,358,o),
(1051,152,o),
(781,152,cs),
(510,152,o),
(297,358,o),
(296,744,cs),
(295,1132,o),
(510,1337,o),
(781,1338,cs),
(1051,1337,o),
(1263,1132,o),
(1264,744,cs)
);
}
);
width = 1490;
},
{
anchors = (
{
name = cedilla;
pos = (780,-12);
},
{
name = top;
pos = (780,1676);
}
);
associatedMasterId = m007;
background = {
shapes = (
{
ref = O;
}
);
};
guides = (
{
angle = 90;
pos = (1072,1432);
},
{
pos = (1526,480);
},
{
pos = (1547,1008);
}
);
layerId = "5245DA1A-7232-4CFA-B1D7-42F3255AAFCA";
name = "May 30, 22, 10:55";
shapes = (
{
closed = 1;
nodes = (
(1208,480,l),
(1171,287,o),
(994,152,o),
(781,152,cs),
(510,152,o),
(297,358,o),
(296,744,cs),
(295,1132,o),
(510,1337,o),
(781,1338,cs),
(997,1337,o),
(1170,1203,o),
(1207,1008,c),
(1389,1008,l),
(1341,1304,o),
(1095,1506,o),
(781,1506,cs),
(400,1506,o),
(122,1216,o),
(122,744,cs),
(122,273,o),
(400,-16,o),
(781,-16,cs),
(1094,-16,o),
(1341,185,o),
(1389,480,c)
);
}
);
width = 1505;
},
{
anchors = (
{
name = cedilla;
pos = (800,6);
},
{
name = top;
pos = (808,1676);
}
);
associatedMasterId = m009;
background = {
hints = (
{
horizontal = 1;
place = (-20, 21);
target = up;
type = BottomGhost;
},
{
horizontal = 1;
place = (1510, -20);
target = down;
type = TopGhost;
},
{
horizontal = 1;
options = 4;
place = (-20, 0);
type = TTSnap;
},
{
horizontal = 1;
options = 4;
place = (1510, 0);
type = TTSnap;
},
{
horizontal = 1;
place = (-20, 21);
target = up;
type = BottomGhost;
},
{
horizontal = 1;
place = (1510, -20);
target = down;
type = TopGhost;
},
{
horizontal = 1;
options = 4;
place = (-20, 0);
type = TTSnap;
},
{
horizontal = 1;
options = 4;
place = (1510, 0);
type = TTSnap;
},
{
horizontal = 1;
place = (-20, 21);
target = up;
type = BottomGhost;
},
{
horizontal = 1;
place = (1510, -20);
target = down;
type = TopGhost;
},
{
horizontal = 1;
options = 4;
place = (-20, 0);
type = TTSnap;
},
{
horizontal = 1;
options = 4;
place = (1510, 0);
type = TTSnap;
}
);
shapes = (
{
ref = O;
},
{
closed = 1;
nodes = (
(1245,-20,o),
(1466,282,o),
(1486,536,c),
(1076,538,l),
(1056,411,o),
(966,332,o),
(818,332,cs),
(620,332,o),
(506,471,o),
(506,744,c),
(506,1004,o),
(617,1158,o),
(820,1158,cs),
(976,1158,o),
(1065,1066,o),
(1076,930,c),
(1486,930,l),
(1455,1300,o),
(1184,1510,o),
(808,1510,cs),
(407,1510,o),
(90,1242,o),
(90,744,c),
(90,249,o),
(399,-20,o),
(808,-20,cs)
);
}
);
};
guides = (
{
pos = (12,0);
},
{
pos = (1288,560);
},
{
pos = (1288,928);
}
);
layerId = "268EAFDE-EB9C-4009-8394-5501C7EC0408";
name = "May 30, 22, 12:13";
shapes = (
{
closed = 1;
nodes = (
(1539,1242,o),
(1219,1506,o),
(814,1506,cs),
(407,1506,o),
(90,1242,o),
(90,744,cs),
(90,250,o),
(407,-16,o),
(814,-16,cs),
(1219,-16,o),
(1539,247,o),
(1538,744,cs)
);
},
{
closed = 1;
nodes = (
(1119,487,o),
(1010,344,o),
(814,344,cs),
(619,344,o),
(510,487,o),
(510,744,cs),
(510,1002,o),
(619,1146,o),
(814,1146,cs),
(1010,1146,o),
(1119,1002,o),
(1118,744,cs)
);
}
);
width = 1574;
},
{
anchors = (
{
name = _center;
pos = (702,745);
},
{
name = cedilla;
pos = (702,0);
},
{
name = center;
pos = (696,745);
},
{
name = top;
pos = (702,1676);
},
{
name = topr;
pos = (1272,1024);
}
);
layerId = m011;
shapes = (
{
closed = 1;
nodes = (
(1052,-20,o),
(1235,256,o),
(1272,466,c),
(1225,466,l),
(1185,263,o),
(1010,26,o),
(702,26,cs),
(396,26,o),
(130,276,o),
(130,744,cs),
(130,1207,o),
(396,1464,o),
(702,1464,cs),
(1011,1464,o),
(1185,1228,o),
(1225,1024,c),
(1272,1024,l),
(1235,1236,o),
(1052,1510,o),
(702,1510,cs),
(335,1510,o),
(84,1201,o),
(84,744,cs),
(84,288,o),
(335,-20,o),
(702,-20,cs)
);
}
);
width = 1352;
}
);
metricLeft = O;
unicode = 67;
userData = {
com.typemytype.robofont.guideline.magnetic.ju3ppiFr9V = 5;
"interface.width-adjustments" = (
-16
);
};
}
{
glyphname = D;
kernLeft = B;
kernRight = D;
layers = (
{
anchors = (
{
name = bottom;
pos = (628,0);
},
{
name = cross;
pos = (399,745);
},
{
name = top;
pos = (619,1490);
},
{
name = topl;
pos = (180,1490);
}
);
layerId = "C698F293-3EC0-4A5A-A3A0-0FDB1F5CF265";
shapes = (
{
closed = 1;
nodes = (
(1099,0,o),
(1356,282,o),
(1356,748,cs),
(1356,1210,o),
(1099,1490,o),
(664,1490,cs),
(277,1490,l),
(277,1322,l),
(651,1322,ls),
(996,1322,o),
(1172,1106,o),
(1172,748,cs),
(1172,386,o),
(996,168,o),
(633,168,cs),
(285,168,l),
(285,0,l),
(645,0,ls)
);
},
{
closed = 1;
nodes = (
(180,1490,l),
(180,0,l),
(370,0,l),
(370,1490,l)
);
}
);
width = 1478;
},
{
anchors = (
{
name = bottom;
pos = (674,0);
},
{
name = cross;
pos = (360,745);
},
{
name = top;
pos = (594,1490);
},
{
name = topl;
pos = (96,1490);
}
);
layerId = "5C20EF92-B63D-42A8-8878-93C2863E0093";
shapes = (
{
closed = 1;
nodes = (
(1123,0,o),
(1410,279,o),
(1410,744,cs),
(1410,1210,o),
(1123,1490,o),
(664,1490,cs),
(256,1490,l),
(256,1146,l),
(642,1146,ls),
(876,1146,o),
(1004,1056,o),
(1004,744,cs),
(1004,433,o),
(876,344,o),
(654,344,cs),
(262,344,l),
(262,0,l),
(670,0,l)
);
},
{
closed = 1;
nodes = (
(96,1490,l),
(96,0,l),
(500,0,l),
(500,1490,l)
);
}
);
width = 1480;
},
{
anchors = (
{
name = bottom;
pos = (590,0);
},
{
name = cross;
pos = (384,745);
},
{
name = top;
pos = (632,1490);
},
{
name = topl;
pos = (232,1490);
}
);
layerId = "B1F27B51-9973-4381-9301-4FE46FE1CA59";
shapes = (
{
closed = 1;
nodes = (
(1060,0,o),
(1314,275,o),
(1314,750,cs),
(1314,1214,o),
(1071,1490,o),
(660,1490,cs),
(256,1490,l),
(256,1444,l),
(660,1444,ls),
(1047,1444,o),
(1268,1185,o),
(1268,750,cs),
(1268,309,o),
(1036,46,o),
(622,46,cs),
(256,46,l),
(256,0,l),
(622,0,ls)
);
},
{
closed = 1;
nodes = (
(232,1490,l),
(232,0,l),
(278,0,l),
(278,1490,l)
);
}
);
width = 1462;
},
{
anchors = (
{
name = bottom;
pos = (590,0);
},
{
name = cross;
pos = (350,745);
},
{
name = top;
pos = (584,1490);
},
{
name = topl;
pos = (148,1490);
}
);
layerId = m007;
shapes = (
{
closed = 1;
nodes = (
(1062,0,o),
(1322,282,o),
(1322,748,cs),
(1322,1210,o),
(1062,1490,o),
(628,1490,cs),
(242,1490,l),
(242,1330,l),
(616,1330,ls),
(966,1330,o),
(1142,1108,o),
(1142,748,cs),
(1142,384,o),
(966,160,o),
(596,160,cs),
(250,160,l),
(250,0,l),
(608,0,ls)
);
},
{
closed = 1;
nodes = (
(148,1490,l),
(148,0,l),
(328,0,l),
(328,1490,l)
);
}
);
width = 1412;
},
{
anchors = (
{
name = bottom;
pos = (666,0);
},
{
name = cross;
pos = (377,745);
},
{
name = top;
pos = (586,1490);
},
{
name = topl;
pos = (80,1490);
}
);
background = {
shapes = (
{
pos = (-106,0);
ref = O;
}
);
};
layerId = m009;
shapes = (
{
closed = 1;
nodes = (
(1121,0,o),
(1416,292,o),
(1416,744,cs),
(1416,1197,o),
(1116,1490,o),
(656,1490,cs),
(248,1490,l),
(248,1146,l),
(630,1146,ls),
(881,1146,o),
(996,1017,o),
(996,744,cs),
(996,473,o),
(885,344,o),
(642,344,cs),
(254,344,l),
(254,0,l),
(662,0,l)
);
},
{
closed = 1;
nodes = (
(80,1490,l),
(80,0,l),
(496,0,l),
(496,1490,l)
);
}
);
width = 1456;
},
{
anchors = (
{
name = bottom;
pos = (526,0);
},
{
name = cross;
pos = (338,745);
},
{
name = top;
pos = (568,1490);
},
{
name = topl;
pos = (168,1490);
}
);
layerId = m011;
shapes = (
{
closed = 1;
nodes = (
(996,0,o),
(1250,275,o),
(1250,750,cs),
(1250,1214,o),
(1007,1490,o),
(596,1490,cs),
(192,1490,l),
(192,1444,l),
(596,1444,ls),
(983,1444,o),
(1204,1185,o),
(1204,750,cs),
(1204,309,o),
(972,46,o),
(558,46,cs),
(192,46,l),
(192,0,l),
(558,0,ls)
);
},
{
closed = 1;
nodes = (
(168,1490,l),
(168,0,l),
(214,0,l),
(214,1490,l)
);
}
);
width = 1334;
}
);
metricLeft = H;
metricRight = O;
note = "!post:RemoveOverlap";
unicode = 68;
userData = {
"interface.width-adjustments" = (
-16
);
};
}
{
color = (219,235,247,1);
glyphname = E;
kernLeft = B;
kernRight = E;
layers = (
{
anchors = (
{
name = _center;
pos = (612,745);
},
{
name = bottom;
pos = (614,0);
},
{
name = cedilla;
pos = (616,0);
},
{
name = ogonek;
pos = (1090,0);
},
{
name = tonos;
pos = (134,1490);
},
{
name = top;
pos = (628,1676);
}
);
guides = (
{
orientation = center;
angle = 90;
pos = (1044,516);
}
);
layerId = "C698F293-3EC0-4A5A-A3A0-0FDB1F5CF265";
shapes = (
{
closed = 1;
nodes = (
(1090,0,l),
(1090,160,l),
(360,160,l),
(360,672,l),
(1032,672,l),
(1032,832,l),
(360,832,l),
(360,1330,l),
(1080,1330,l),
(1080,1490,l),
(180,1490,l),
(180,0,l)
);
}
);
width = 1224;
},
{
anchors = (
{
name = _center;
pos = (637,745);
},
{
name = bottom;
pos = (638,0);
},
{
name = cedilla;
pos = (640,0);
},
{
name = ogonek;
pos = (1166,0);
},
{
name = tonos;
pos = (56,1490);
},
{
name = top;
pos = (638,1676);
}
);
guides = (
{
pos = (12,1360);
},
{
orientation = center;
angle = 90;
pos = (936,620);
}
);
layerId = "5C20EF92-B63D-42A8-8878-93C2863E0093";
shapes = (
{
closed = 1;
nodes = (
(1166,0,l),
(1166,326,l),
(500,326,l),
(500,594,l),
(1114,594,l),
(1114,912,l),
(500,912,l),
(500,1164,l),
(1170,1164,l),
(1170,1490,l),
(96,1490,l),
(96,0,l)
);
}
);
width = 1274;
},
{
anchors = (
{
name = _center;
pos = (598,745);
},
{
name = bottom;
pos = (600,0);
},
{
name = cedilla;
pos = (602,0);
},
{
name = ogonek;
pos = (1048,0);
},
{
name = tonos;
pos = (180,1490);
},
{
name = top;
pos = (634,1676);
}
);
layerId = "B1F27B51-9973-4381-9301-4FE46FE1CA59";
shapes = (
{
closed = 1;
nodes = (
(1048,0,l),
(1048,46,l),
(280,46,l),
(280,722,l),
(984,722,l),
(984,768,l),
(280,768,l),
(280,1442,l),
(1026,1442,l),
(1026,1490,l),
(232,1490,l),
(232,0,l)
);
}
);
width = 1196;
},
{
anchors = (
{
name = _center;
pos = (580,745);
},
{
name = bottom;
pos = (582,0);
},
{
name = cedilla;
pos = (584,0);
},
{
name = ogonek;
pos = (1058,0);
},
{
name = tonos;
pos = (102,1490);
},
{
name = top;
pos = (596,1676);
}
);
guides = (
{
orientation = center;
angle = 90;
pos = (-4606,516);
}
);
layerId = m007;
shapes = (
{
closed = 1;
nodes = (
(1058,0,l),
(1058,160,l),
(328,160,l),
(328,672,l),
(1000,672,l),
(1000,832,l),
(328,832,l),
(328,1330,l),
(1048,1330,l),
(1048,1490,l),
(148,1490,l),
(148,0,l)
);
}
);
width = 1160;
},
{
anchors = (
{
name = _center;
pos = (630,745);
},
{
name = bottom;
pos = (630,0);
},
{
name = cedilla;
pos = (632,0);
},
{
name = ogonek;
pos = (1158,0);
},
{
name = tonos;
pos = (40,1490);
},
{
name = top;
pos = (630,1676);
}
);
guides = (
{
pos = (-76,1360);
},
{
orientation = center;
angle = 90;
pos = (-2963,620);
}
);
layerId = m009;
shapes = (
{
closed = 1;
nodes = (
(1168,0,l),
(1168,344,l),
(496,344,l),
(496,590,l),
(1072,590,l),
(1072,904,l),
(496,904,l),
(496,1146,l),
(1172,1146,l),
(1172,1490,l),
(80,1490,l),
(80,0,l)
);
}
);
width = 1260;
},
{
anchors = (
{
name = _center;
pos = (534,745);
},
{
name = bottom;
pos = (536,0);
},
{
name = cedilla;
pos = (538,0);
},
{
name = ogonek;
pos = (984,0);
},
{
name = tonos;
pos = (116,1490);
},
{
name = top;
pos = (570,1676);
}
);
layerId = m011;
shapes = (
{
closed = 1;
nodes = (
(984,0,l),
(984,46,l),
(216,46,l),
(216,722,l),
(920,722,l),
(920,768,l),
(216,768,l),
(216,1442,l),
(962,1442,l),
(962,1490,l),
(168,1490,l),
(168,0,l)
);
}
);
width = 1068;
}
);
metricLeft = H;
unicode = 69;
userData = {
"interface.width-adjustments" = (
-16
);
};
}
{
color = (219,235,247,1);
glyphname = F;
kernLeft = B;
kernRight = F;
layers = (
{
anchors = (
{
name = _center;
pos = (601,745);
},
{
name = bottom;
pos = (558,12);
},
{
name = cross;
pos = (270,350);
},
{
name = top;
pos = (646,1676);
}
);
background = {
shapes = (
{
ref = E;
}
);
};
layerId = "C698F293-3EC0-4A5A-A3A0-0FDB1F5CF265";
shapes = (
{
closed = 1;
nodes = (
(360,0,l),
(360,650,l),
(1006,650,l),
(1006,810,l),
(360,810,l),
(360,1330,l),
(1074,1330,l),
(1074,1490,l),
(180,1490,l),
(180,0,l)
);
}
);
width = 1202;
},
{
anchors = (
{
name = _center;
pos = (598,745);
},
{
name = bottom;
pos = (642,12);
},
{
name = cross;
pos = (296,250);
},
{
name = top;
pos = (622,1676);
}
);
background = {
shapes = (
{
ref = E;
}
);
};
guides = (
{
pos = (12,1320);
}
);
layerId = "5C20EF92-B63D-42A8-8878-93C2863E0093";
shapes = (
{
closed = 1;
nodes = (
(500,0,l),
(500,510,l),
(1080,510,l),
(1080,828,l),
(500,828,l),
(500,1164,l),
(1144,1164,l),
(1144,1490,l),
(96,1490,l),
(96,0,l)
);
}
);
width = 1196;
},
{
anchors = (
{
name = _center;
pos = (599,745);
},
{
name = bottom;
pos = (510,12);
},
{
name = cross;
pos = (256,410);
},
{
name = top;
pos = (634,1676);
}
);
guides = (
{
angle = 90;
pos = (872,2220);
}
);
layerId = "B1F27B51-9973-4381-9301-4FE46FE1CA59";
shapes = (
{
closed = 1;
nodes = (
(280,0,l),
(280,722,l),
(962,722,l),
(962,768,l),
(280,768,l),
(280,1442,l),
(1032,1442,l),
(1032,1490,l),
(232,1490,l),
(232,0,l)
);
}
);
width = 1198;
},
{
anchors = (
{
name = _center;
pos = (569,745);
},
{
name = bottom;
pos = (526,12);
},
{
name = cross;
pos = (238,350);
},
{
name = top;
pos = (614,1676);
}
);
background = {
shapes = (
{
ref = E;
}
);
};
layerId = m007;
shapes = (
{
closed = 1;
nodes = (
(328,0,l),
(328,650,l),
(974,650,l),
(974,810,l),
(328,810,l),
(328,1330,l),
(1042,1330,l),
(1042,1490,l),
(148,1490,l),
(148,0,l)
);
}
);
width = 1138;
},
{
anchors = (
{
name = _center;
pos = (596,745);
},
{
name = bottom;
pos = (626,12);
},
{
name = cross;
pos = (280,250);
},
{
name = top;
pos = (606,1676);
}
);
background = {
shapes = (
{
ref = E;
}
);
};
guides = (
{
pos = (-84,1320);
}
);
layerId = m009;
shapes = (
{
closed = 1;
nodes = (
(496,0,l),
(496,518,l),
(1056,518,l),
(1056,848,l),
(496,848,l),
(496,1146,l),
(1156,1146,l),
(1156,1490,l),
(80,1490,l),
(80,0,l)
);
}
);
width = 1192;
},
{
anchors = (
{
name = bottom;
pos = (558,12);
},
{
name = cross;
pos = (270,350);
},
{
name = top;
pos = (646,1676);
}
);
associatedMasterId = "C698F293-3EC0-4A5A-A3A0-0FDB1F5CF265";
background = {
shapes = (
{
ref = E;
}
);
};
layerId = "C292F685-5F3A-49DB-9317-6C4D88F9DD6B";
name = "May 30, 22, 12:40";
shapes = (
{
closed = 1;
nodes = (
(360,0,l),
(360,666,l),
(1006,666,l),
(1006,826,l),
(360,826,l),
(360,1330,l),
(1074,1330,l),
(1074,1490,l),
(180,1490,l),
(180,0,l)
);
}
);
width = 1202;
},
{
anchors = (
{
name = _center;
pos = (535,745);
},
{
name = bottom;
pos = (446,12);
},
{
name = cross;
pos = (192,410);
},
{
name = top;
pos = (570,1676);
}
);
guides = (
{
angle = 90;
pos = (744,2220);
}
);
layerId = m011;
shapes = (
{
closed = 1;
nodes = (
(216,0,l),
(216,722,l),
(898,722,l),
(898,768,l),
(216,768,l),
(216,1442,l),
(968,1442,l),
(968,1490,l),
(168,1490,l),
(168,0,l)
);
}
);
width = 1070;
}
);
metricLeft = H;
unicode = 70;
userData = {
"interface.width-adjustments" = (
-16
);
};
}
